<svg version="1.1" xmlns="http://www.w3.org/2000/svg" xmlns:xlink="http://www.w3.org/1999/xlink" width="50px" height="50px" viewBox="0,0,256,256"><g fill="#007038" fill-rule="nonzero" stroke="none" stroke-width="1" stroke-linecap="butt" stroke-linejoin="miter" stroke-miterlimit="10" stroke-dasharray="" stroke-dashoffset="0" font-family="none" font-weight="none" font-size="none" text-anchor="none" style="mix-blend-mode: normal"><g transform="scale(8,8)"><path d="M16,28c-0.55228,0 -1,-0.44772 -1,-1v-6c0,-0.55228 0.44772,-1 1,-1c0.55228,0 1,0.44772 1,1v6c0,0.55228 -0.44772,1 -1,1z"></path><path d="M9,28h-4c-0.55228,0 -1,-0.44772 -1,-1c0,-0.55228 0.44772,-1 1,-1h4c0.55228,0 1,-0.44772 1,-1v-6c0,-0.55228 0.44772,-1 1,-1c0.55228,0 1,0.44772 1,1v6c0,1.65685 -1.34315,3 -3,3z"></path><path d="M27,28h-4c-1.65685,0 -3,-1.34315 -3,-3v-6c0,-0.55228 0.44772,-1 1,-1c0.55228,0 1,0.44772 1,1v6c0,0.55228 0.44772,1 1,1h4c0.55228,0 1,0.44772 1,1c0,0.55228 -0.44772,1 -1,1z"></path><path d="M16,32c-1.65685,0 -3,-1.34315 -3,-3c0,-1.65685 1.34315,-3 3,-3c1.65685,0 3,1.34315 3,3c0,1.65685 -1.34315,3 -3,3zM16,28c-0.55228,0 -1,0.44772 -1,1c0,0.55228 0.44772,1 1,1c0.55228,0 1,-0.44772 1,-1c0,-0.55228 -0.44772,-1 -1,-1z"></path><path d="M3,30c-1.65685,0 -3,-1.34315 -3,-3c0,-1.65685 1.34315,-3 3,-3c1.65685,0 3,1.34315 3,3c0,1.65685 -1.34315,3 -3,3zM3,26c-0.55228,0 -1,0.44772 -1,1c0,0.55228 0.44772,1 1,1c0.55228,0 1,-0.44772 1,-1c0,-0.55228 -0.44772,-1 -1,-1z"></path><path d="M29,30c-1.65685,0 -3,-1.34315 -3,-3c0,-1.65685 1.34315,-3 3,-3c1.65685,0 3,1.34315 3,3c0,1.65685 -1.34315,3 -3,3zM29,26c-0.55228,0 -1,0.44772 -1,1c0,0.55228 0.44772,1 1,1c0.55228,0 1,-0.44772 1,-1c0,-0.55228 -0.44772,-1 -1,-1z"></path><path d="M25,17c-0.55228,0 -1,-0.44772 -1,-1v-10c0,-0.55228 0.44772,-1 1,-1c0.55228,0 1,0.44772 1,1v10c0,0.55228 -0.44772,1 -1,1z"></path><path d="M16,12c-0.37,0 0.29,0.3 -9.49,-5.13c-0.31331,-0.17756 -0.50695,-0.50987 -0.50695,-0.87c0,-0.36013 0.19364,-0.69244 0.50695,-0.87l3.35,-1.86c0.48049,-0.27614 1.09386,-0.11049 1.37,0.37c0.27614,0.48049 0.11049,1.09386 -0.37,1.37l-1.8,0.99l6.94,3.86l6.94,-3.86l-6.94,-3.86l-1.69,0.94c-0.47378,0.23358 -1.04751,0.0584 -1.31,-0.4c-0.26135,-0.4809 -0.08754,-1.08256 0.39,-1.35l2.13,-1.21c0.3094,-0.17863 0.6906,-0.17863 1,0l9,5c0.31331,0.17756 0.50695,0.50987 0.50695,0.87c0,0.36013 -0.19364,0.69244 -0.50695,0.87c-9.85,5.47 -9.15,5.14 -9.52,5.14z"></path><path d="M16,22c-0.37,0 0.29,0.3 -9.49,-5.13c-0.48049,-0.27614 -0.64614,-0.88951 -0.37,-1.37c0.27614,-0.48049 0.88951,-0.64614 1.37,-0.37l8.49,4.73l8.51,-4.73c0.48049,-0.27614 1.09386,-0.11049 1.37,0.37c0.27614,0.48049 0.11049,1.09386 -0.37,1.37c-9.84,5.46 -9.14,5.13 -9.51,5.13z"></path><path d="M7,17c-0.55228,0 -1,-0.44772 -1,-1v-10c0,-0.55228 0.44772,-1 1,-1c0.55228,0 1,0.44772 1,1v10c0,0.55228 -0.44772,1 -1,1z"></path><path d="M25,17c-0.55228,0 -1,-0.44772 -1,-1v-10c0,-0.55228 0.44772,-1 1,-1c0.55228,0 1,0.44772 1,1v10c0,0.55228 -0.44772,1 -1,1z"></path><path d="M16,22c-0.55228,0 -1,-0.44772 -1,-1v-10c0,-0.55228 0.44772,-1 1,-1c0.55228,0 1,0.44772 1,1v10c0,0.55228 -0.44772,1 -1,1z"></path></g></g></svg>