<svg version="1.1" xmlns="http://www.w3.org/2000/svg" xmlns:xlink="http://www.w3.org/1999/xlink" width="50px" height="50px" viewBox="0,0,256,256"><g fill="#007038" fill-rule="nonzero" stroke="none" stroke-width="1" stroke-linecap="butt" stroke-linejoin="miter" stroke-miterlimit="10" stroke-dasharray="" stroke-dashoffset="0" font-family="none" font-weight="none" font-size="none" text-anchor="none" style="mix-blend-mode: normal"><g transform="scale(3.76471,3.76471)"><path d="M5.32617,1.30078c-2.17969,0 -3.95312,1.77344 -3.95312,3.95313v10.06445c0,0.0069 0.00354,0.01272 0.00391,0.01953v33.76758c0,2.1748 1.76953,3.94336 3.94531,3.94336h25.00977l-0.66992,10.74219c-0.50154,0.26336 -0.83398,0.76721 -0.83398,1.35352c0,0.85742 0.70117,1.55469 1.56445,1.55469h7.58008c0.85742,0 1.55469,-0.69727 1.55469,-1.55469c0,-0.57377 -0.32792,-1.07617 -0.82422,-1.34766l-0.66992,-10.74805h24.63867c2.18066,0 3.95508,-1.76855 3.95508,-3.94336v-39.48047c0,-0.00345 -0.00186,-0.00634 -0.00195,-0.00977v-4.36133c0,-2.17969 -1.77344,-3.95312 -3.95312,-3.95312zM5.32617,2.05078h57.3457c1.7666,0 3.20313,1.43701 3.20313,3.20313v9.68945h-63.74805v-5.31836c0,-0.0069 -0.00354,-0.01272 -0.00391,-0.01953v-4.35156c0,-1.76611 1.43652,-3.20313 3.20313,-3.20313zM9.75391,5.15039c-1.98242,0 -3.5957,1.61182 -3.5957,3.59375c0,1.98242 1.61328,3.5957 3.5957,3.5957c1.98242,0 3.59375,-1.61328 3.59375,-3.5957c0,-1.98193 -1.61133,-3.59375 -3.59375,-3.59375zM18.0918,5.15039c-1.98242,0 -3.5957,1.61182 -3.5957,3.59375c0,1.98242 1.61328,3.5957 3.5957,3.5957c1.98242,0 3.5957,-1.61328 3.5957,-3.5957c0,-1.98193 -1.61328,-3.59375 -3.5957,-3.59375zM26.42969,5.15039c-1.98242,0 -3.59375,1.61182 -3.59375,3.59375c0,1.98242 1.61133,3.5957 3.59375,3.5957c1.98242,0 3.5957,-1.61328 3.5957,-3.5957c0,-1.98193 -1.61328,-3.59375 -3.5957,-3.59375zM9.75391,5.90039c1.56836,0 2.84375,1.27539 2.84375,2.84375c0,1.56885 -1.27539,2.8457 -2.84375,2.8457c-1.56836,0 -2.8457,-1.27686 -2.8457,-2.8457c0,-1.56836 1.27734,-2.84375 2.8457,-2.84375zM18.0918,5.90039c1.56836,0 2.8457,1.27539 2.8457,2.84375c0,1.56885 -1.27734,2.8457 -2.8457,2.8457c-1.56934,0 -2.8457,-1.27686 -2.8457,-2.8457c0,-1.56836 1.27637,-2.84375 2.8457,-2.84375zM26.42969,5.90039c1.56836,0 2.8457,1.27539 2.8457,2.84375c0,1.56885 -1.27734,2.8457 -2.8457,2.8457c-1.56836,0 -2.84375,-1.27686 -2.84375,-2.8457c0,-1.56836 1.27539,-2.84375 2.84375,-2.84375zM2.12695,15.69336h63.75v33.41211c0,1.76172 -1.4375,3.19336 -3.20508,3.19336h-24.68555l-0.12891,-2.06641c-0.03516,-0.58398 0.03418,-1.4082 0.56445,-2.01758c0.24902,-0.27637 0.38672,-0.63965 0.38672,-1.01953c0,-0.68869 -0.44966,-1.26607 -1.06641,-1.4707l3.00781,-9.49805c0.15527,-0.48926 -0.03906,-1.00488 -0.50781,-1.3457c-2.52832,-1.83984 -4.19629,-4.63721 -5.02148,-6.2832c0.10938,-0.1582 0.16992,-0.34033 0.16992,-0.52734c0,-0.43457 -0.32129,-0.80859 -0.81641,-0.95508c-0.11426,-0.03223 -0.23535,-0.0127 -0.33008,0.05859c-0.02637,0.01953 -0.05078,0.04346 -0.07031,0.06836c-0.01953,-0.0249 -0.04199,-0.04883 -0.06836,-0.06836c-0.09375,-0.07129 -0.21582,-0.09277 -0.33203,-0.05859c-0.49609,0.14648 -0.81641,0.521 -0.81641,0.95508c0,0.1875 0.05957,0.36963 0.16992,0.52734c-0.82324,1.64502 -2.48926,4.44141 -5.01953,6.2832c-0.4707,0.34082 -0.66504,0.85547 -0.50977,1.3457l3.00781,9.50195c-0.61313,0.20884 -1.05859,0.78339 -1.05859,1.4668c0,0.37305 0.12891,0.72949 0.36133,1.00391c0.43652,0.50879 0.64844,1.2334 0.59961,2.04102l-0.12891,2.05859h-25.05664c-1.76172,0 -3.19531,-1.43164 -3.19531,-3.19336zM15.67188,17.95898c-2.55566,0 -4.63477,2.08545 -4.63477,4.64648c0,2.55566 2.0791,4.63477 4.63477,4.63477c1.8714,0 3.54776,-1.13994 4.27148,-2.84961h28.10742c0.71545,1.71098 2.39125,2.84961 4.27148,2.84961c2.55566,0 4.63477,-2.0791 4.63477,-4.63477c0,-2.56104 -2.0791,-4.64648 -4.63477,-4.64648c-1.87651,0 -3.54876,1.14198 -4.26172,2.85156h-28.125c-0.72437,-1.71186 -2.39808,-2.85156 -4.26367,-2.85156zM15.67188,18.70898c1.64063,0 3.11426,1.04492 3.66797,2.60352c0.07568,0.20727 0.13391,0.42096 0.17188,0.63672c0.03796,0.21576 0.05664,0.43506 0.05664,0.65625c0,0.22705 -0.01819,0.44763 -0.05469,0.66211c-0.03638,0.21411 -0.0918,0.4209 -0.16406,0.61914v0.00195c-0.55273,1.55566 -2.03125,2.60156 -3.67773,2.60156c-2.1416,0 -3.88477,-1.74219 -3.88477,-3.88477c0,-2.14795 1.74316,-3.89648 3.88477,-3.89648zM52.32227,18.70898c2.1416,0 3.88477,1.74854 3.88477,3.89648c0,2.14258 -1.74316,3.88477 -3.88477,3.88477c-1.6532,0 -3.12921,-1.04279 -3.67578,-2.59766c-0.00065,-0.00188 0.00068,-0.00398 0,-0.00586c-0.07227,-0.19824 -0.12768,-0.40503 -0.16406,-0.61914c-0.03625,-0.21429 -0.05469,-0.43555 -0.05469,-0.66211c0,-0.44238 0.07715,-0.87744 0.23047,-1.29687c0.54297,-1.5542 2.01465,-2.59961 3.66406,-2.59961zM20.19531,21.56055h27.60547c-0.01255,0.05286 -0.01867,0.10692 -0.0293,0.16016c-0.01305,0.06552 -0.02307,0.13121 -0.0332,0.19727c-0.0349,0.22696 -0.06055,0.45567 -0.06055,0.6875c0,0.23999 0.02416,0.47194 0.05859,0.70117c0.00867,0.05787 0.01846,0.11482 0.0293,0.17188c0.01019,0.0535 0.01523,0.10931 0.02734,0.16211h-27.58984c0.01225,-0.05341 0.01706,-0.10993 0.02734,-0.16406c0.01074,-0.05644 0.02068,-0.11273 0.0293,-0.16992c0.03443,-0.22924 0.05859,-0.46118 0.05859,-0.70117c0,-0.23183 -0.02564,-0.46054 -0.06055,-0.6875c-0.01024,-0.06687 -0.02193,-0.13294 -0.03516,-0.19922c-0.01051,-0.0525 -0.01497,-0.10608 -0.02734,-0.1582zM33.50586,29.49805v7.57422c-0.33594,0.18652 -0.54883,0.50781 -0.54883,0.85938c0,0.57031 0.5459,1.03516 1.2168,1.03516c0.66992,0 1.2168,-0.46484 1.2168,-1.03516c0,-0.35156 -0.21094,-0.67285 -0.54687,-0.85937v-7.57422c0.93262,1.73584 2.57617,4.25732 4.95703,5.99023c0.09766,0.07031 0.31348,0.26074 0.23438,0.51172l-3.05078,9.63867h-5.62109l-3.05078,-9.63867c-0.0791,-0.25098 0.13867,-0.44238 0.23633,-0.51367c2.38379,-1.73437 4.02637,-4.25342 4.95703,-5.98828zM34.17383,37.55273c0.04688,0.05957 0.1123,0.10645 0.18945,0.12891c0.16211,0.04688 0.27734,0.14941 0.27734,0.25c0,0.13379 -0.2002,0.28516 -0.4668,0.28516c-0.26758,0 -0.4668,-0.15137 -0.4668,-0.28516c0,-0.10059 0.11426,-0.20312 0.27734,-0.25c0.07715,-0.02246 0.14258,-0.06934 0.18945,-0.12891zM31.10352,46.38867h6.1543c0.00129,0 0.00261,0.00001 0.00391,0c0.43848,0 0.79688,0.3623 0.79688,0.80664c0,0.19434 -0.07031,0.37988 -0.19922,0.52344c-0.7002,0.80469 -0.79395,1.83496 -0.75,2.55859l0.14844,2.41992l0.68164,10.89258h-7.51367l0.68164,-10.91211v-0.00391c0,-0.00067 0,-0.00128 0,-0.00195l0.14844,-2.38477c0.06152,-1.00391 -0.21484,-1.91895 -0.77734,-2.57422c-0.11719,-0.13867 -0.18164,-0.32227 -0.18164,-0.51758c0,-0.44434 0.3623,-0.80664 0.80664,-0.80664zM30.39258,64.33984h7.58008c0.08691,0 0.16602,0.01269 0.24805,0.04102h0.00195c0.33207,0.11277 0.55469,0.41953 0.55469,0.76367c0,0.44336 -0.36133,0.80469 -0.80469,0.80469h-7.58008c-0.44922,0 -0.81445,-0.36133 -0.81445,-0.80469c0,-0.34668 0.22754,-0.65918 0.5625,-0.76367c0.08496,-0.02832 0.16504,-0.04102 0.25195,-0.04102z"></path></g></g></svg>