<svg version="1.1" xmlns="http://www.w3.org/2000/svg" xmlns:xlink="http://www.w3.org/1999/xlink" width="50px" height="50px" viewBox="0,0,256,256"><g fill="#007038" fill-rule="nonzero" stroke="none" stroke-width="1" stroke-linecap="butt" stroke-linejoin="miter" stroke-miterlimit="10" stroke-dasharray="" stroke-dashoffset="0" font-family="none" font-weight="none" font-size="none" text-anchor="none" style="mix-blend-mode: normal"><g transform="scale(3.50685,3.50685)"><path d="M11.07031,4.41992c-3.62988,0 -6.57031,2.9502 -6.57031,6.57031v39.75c0,3.69971 3.00903,6.70898 6.70898,6.70898h16.12109l-1.37109,4.35156h-1.5293c-1.86987,0 -3.39062,1.51904 -3.39063,3.38867c0,1.87012 1.52075,3.39063 3.39063,3.39063h24.13086c1.86987,0 3.38867,-1.52051 3.38867,-3.39062c0,-1.86963 -1.5188,-3.38867 -3.38867,-3.38867h-1.51953l-1.37109,-4.35156h15.66016c3.94995,0 7.16992,-3.20996 7.16992,-7.16016v-39.29883c0,-3.62012 -2.95032,-6.57031 -6.57031,-6.57031zM11.07031,6.41992h50.85938c2.52002,0 4.57031,2.05029 4.57031,4.57031v35.30078h-60v-35.30078c0,-2.52002 2.05029,-4.57031 4.57031,-4.57031zM53.51953,10.20898c-0.55005,0 -1,0.4502 -1,1v0.61133h-6.36914c-0.55005,0 -1,0.43994 -1,1c0,0.54981 0.44995,1 1,1h6.36914v0.63867c0,0.55029 0.44995,1 1,1c0.54993,0 1,-0.44971 1,-1v-0.63867h5.31055c0.55994,0 1,-0.45019 1,-1c0,-0.56006 -0.44006,-1 -1,-1h-5.31055v-0.61133c0,-0.5498 -0.45007,-1 -1,-1zM14.34961,12.83008c-1.8999,0 -3.44922,1.54883 -3.44922,3.44922v18.8418c0,1.91016 1.54932,3.44922 3.44922,3.44922h22.09961c1.90991,0 3.45117,-1.53906 3.45117,-3.44922v-18.8418c0,-1.90039 -1.54126,-3.44922 -3.45117,-3.44922zM49.51953,16.23047c-0.55005,0 -1,0.4502 -1,1v0.61914h-2.36914c-0.55005,0 -1,0.44971 -1,1c0,0.56006 0.44995,1 1,1h2.36914v0.63086c0,0.55029 0.44995,1 1,1c0.5498,0 1,-0.44971 1,-1v-0.63086h9.31055c0.55994,0 1,-0.43994 1,-1c0,-0.55029 -0.44006,-1 -1,-1h-9.31055v-0.61914c0,-0.5498 -0.4502,-1 -1,-1zM25.09961,16.70898c3.31006,0 6,2.68018 6,6c0,3.31006 -2.68994,6 -6,6c-3.32007,0 -6,-2.68994 -6,-6c0,-3.31982 2.67993,-6 6,-6zM23.91992,20.17578c-0.52171,0.00266 -1,0.4187 -1,1.00391v3.06055c0,0.77002 0.84961,1.25 1.51953,0.84961l2.56055,-1.5293c0.63989,-0.37988 0.63989,-1.3208 0,-1.71094l-2.56055,-1.5293c-0.16748,-0.1001 -0.34563,-0.14542 -0.51953,-0.14453zM57.15039,22.26953c-0.55994,0 -1,0.4502 -1,1v0.62109h-10c-0.55005,0 -1,0.44971 -1,1c0,0.56006 0.44995,1 1,1h10v0.62891c0,0.55029 0.44006,1 1,1c0.55005,0 1,-0.44971 1,-1v-0.62891h1.67969c0.55994,0 1,-0.43994 1,-1c0,-0.55029 -0.44006,-1 -1,-1h-1.67969v-0.62109c0,-0.5498 -0.44995,-1 -1,-1zM47.21094,29.29102c-1,0 -1.81055,0.80859 -1.81055,1.80859v2.07031c0,1 0.81055,1.81055 1.81055,1.81055h2.89844c0.98999,0 1.81055,-0.81055 1.81055,-1.81055v-2.07031c0,-1 -0.82056,-1.80859 -1.81055,-1.80859zM55.86914,29.29102c-0.98999,0 -1.80859,0.80859 -1.80859,1.80859v2.07031c0,1 0.8186,1.81055 1.80859,1.81055h2.90039c1,0 1.81055,-0.81055 1.81055,-1.81055v-2.07031c0,-1 -0.81055,-1.80859 -1.81055,-1.80859zM20.16992,31.44922c0.55005,0 1,0.44971 1,1v0.32031h13.83008c0.5498,0 1,0.4502 1,1c0,0.55029 -0.4502,1 -1,1h-13.83008v0.21094c0,0.55029 -0.44995,1 -1,1c-0.55005,0 -1,-0.44971 -1,-1v-0.21094h-3.18945c-0.55005,0 -1,-0.44971 -1,-1c0,-0.5498 0.44995,-1 1,-1h3.18945v-0.32031c0,-0.55029 0.44995,-1 1,-1zM47.21094,37.54102c-1,0 -1.81055,0.80859 -1.81055,1.80859v2.07031c0,1 0.81055,1.81055 1.81055,1.81055h2.89844c0.98999,0 1.81055,-0.81055 1.81055,-1.81055v-2.07031c0,-1 -0.82056,-1.80859 -1.81055,-1.80859zM55.86914,37.54102c-0.98999,0 -1.80859,0.80859 -1.80859,1.80859v2.07031c0,1 0.8186,1.81055 1.80859,1.81055h2.90039c1,0 1.81055,-0.81055 1.81055,-1.81055v-2.07031c0,-1 -0.81055,-1.80859 -1.81055,-1.80859zM36.5,49.30078c1.09985,0 2,0.8999 2,2.00977c0,1.07723 -0.89233,1.99023 -2,1.99023c-1.07259,0 -2,-0.85335 -2,-1.99023c0,-1.10986 0.88989,-2.00977 2,-2.00977zM29.42969,57.44922h14.14062l1.36914,4.35156h-16.88867zM24.42969,63.80078h24.13086c0.77002,0 1.38867,0.61865 1.38867,1.38867c0,0.77002 -0.61865,1.39063 -1.38867,1.39063h-24.13086c-0.76001,0 -1.39063,-0.6206 -1.39063,-1.39062c0,-0.77002 0.63062,-1.38867 1.39063,-1.38867z"></path></g></g></svg>