<svg version="1.1" xmlns="http://www.w3.org/2000/svg" xmlns:xlink="http://www.w3.org/1999/xlink" width="50px" height="50px" viewBox="0,0,256,256"><g fill="#ffffff" fill-rule="nonzero" stroke="none" stroke-width="1" stroke-linecap="butt" stroke-linejoin="miter" stroke-miterlimit="10" stroke-dasharray="" stroke-dashoffset="0" font-family="none" font-weight="none" font-size="none" text-anchor="none" style="mix-blend-mode: normal"><g transform="scale(5.12,5.12)"><path d="M8,3c-2.206,0 -4,1.75984 -4,3.96484v14c0,2.206 1.794,4 4,4h14v-1.96484h-14c-1.103,0 -2,-0.93216 -2,-2.03516v-14c0,-1.103 0.897,-2 2,-2h24c1.103,0 2,0.897 2,2v14.25391c0.741,0.209 1.421,0.56697 2,1.04297v-15.29688c0,-2.205 -1.794,-3.96484 -4,-3.96484zM18.05859,7.96484v12h1c1.043,0 2.07373,-0.08541 2.92773,-0.56641v-0.91797h-0.00195c0,-1.732 0.81036,-3.27911 2.06836,-4.28711c0.001,-0.079 0.00586,-0.14751 0.00586,-0.22851c0,-5.537 -2.47,-6 -5,-6zM28.06055,7.96484c-1.206,0 -3,0.799 -3,3c0,0.813 0.38964,1.54052 0.93164,2.22851c0.476,-0.134 0.97805,-0.21094 1.49805,-0.21094c0.381,0 0.75328,0.03928 1.11328,0.11328c-0.727,-0.729 -1.54492,-1.58486 -1.54492,-2.13086c0,-0.805 0.55,-0.988 1,-1c0.764,0 1.15706,0.54083 1.16406,0.54883l1.67383,-1.09766c-0.354,-0.539 -1.34894,-1.45117 -2.83594,-1.45117zM12.07227,7.9668l-3.07227,12h2.0625l0.45508,-2h3.00781l0.47461,2h2.0625l-3.07422,-12zM20.05859,9.99414c1.266,0.121 2,0.7447 2,3.9707c0,3.226 -0.734,3.8497 -2,3.9707zM12.98828,11.49219l1.0625,4.47461h-2.08008zM27.49023,14.98242c-1.92521,0 -3.50586,1.57406 -3.50586,3.49805v13.01172c-0.19584,-0.23018 -0.39946,-0.47349 -0.57617,-0.67383c-0.30408,-0.34474 -0.49633,-0.5746 -0.77734,-0.80469c-1.61429,-1.45503 -4.13376,-1.31949 -5.59961,0.27539c-1.48104,1.60994 -1.1967,4.02792 0.20117,5.54883c3.85826,4.55654 6.08777,7.32352 8.41016,9.02344c2.32894,1.70472 4.73995,2.17921 8.375,2.11523c0.10792,-0.002 1.06214,-0.0071 1.97852,-0.01172c0.89971,-0.0045 1.70546,-0.00559 2.00391,-0.01562c4.658,0 8.0332,-4.4416 8.0332,-8.94727v-9.17187c0,-1.92399 -1.58064,-3.49609 -3.50586,-3.49609c-0.71365,0 -1.35757,0.22874 -1.89844,0.59961c-0.58129,-1.13676 -1.75527,-1.92773 -3.11328,-1.92773c-0.76166,0 -1.46376,0.25298 -2.04102,0.66992c-0.62032,-0.99545 -1.71771,-1.66797 -2.9707,-1.66797c-0.54115,0 -1.04856,0.13415 -1.50781,0.35547v-4.88281c0,-1.92399 -1.58065,-3.49805 -3.50586,-3.49805zM27.49023,16.98242c0.88079,0 1.50586,0.62604 1.50586,1.49805v12.51953c-0.0031,0.27021 0.10328,0.53018 0.29492,0.7207c0.02294,0.02397 0.04706,0.04679 0.07227,0.06836c0.00065,0 0.0013,0 0.00195,0c0.02507,0.02079 0.05114,0.04035 0.07813,0.05859c0.00065,0 0.0013,0 0.00195,0c0.02715,0.01829 0.05518,0.03524 0.08398,0.05078c0.00065,0 0.0013,0 0.00195,0c0.02922,0.01581 0.0592,0.03015 0.08984,0.04297c0.00065,0 0.0013,0 0.00195,0c0.03004,0.01256 0.06068,0.02364 0.0918,0.0332c0.00065,0 0.0013,0 0.00195,0c0.0315,0.00938 0.06344,0.0172 0.0957,0.02344c0.00065,0 0.0013,0 0.00195,0c0.03234,0.00551 0.06493,0.00942 0.09766,0.01172c0.00065,0 0.0013,0 0.00195,0c0.03312,0.00296 0.06636,0.00426 0.09961,0.00391c0.03328,-0.00029 0.06652,-0.00225 0.09961,-0.00586c0.03282,-0.00424 0.06542,-0.01011 0.09766,-0.01758c0.03296,-0.00681 0.06555,-0.01529 0.09766,-0.02539c0.03116,-0.01021 0.06179,-0.02194 0.0918,-0.03516c0.03068,-0.01346 0.06067,-0.02845 0.08984,-0.04492c0.02889,-0.01681 0.05692,-0.03507 0.08398,-0.05469c0.02769,-0.01883 0.05442,-0.03904 0.08008,-0.06055c0.02459,-0.02226 0.04806,-0.04572 0.07031,-0.07031c0.00065,0 0.0013,0 0.00195,0c0.17778,-0.18903 0.27513,-0.43975 0.27148,-0.69922v-4.49609c0,-0.87201 0.62507,-1.49609 1.50586,-1.49609c0.88079,0 1.50586,0.62408 1.50586,1.49609v1v0.49805v2.99805c-0.0051,0.36064 0.18438,0.69608 0.49587,0.87789c0.3115,0.18181 0.69676,0.18181 1.00825,0c0.3115,-0.18181 0.50097,-0.51725 0.49587,-0.87789v-3.49609c0,-0.87201 0.62507,-1.49805 1.50586,-1.49805c0.88079,0 1.50586,0.62604 1.50586,1.49805v3.49609c-0.00693,0.52481 0.39302,0.96568 0.91602,1.00977c0.03312,0.00296 0.06636,0.00426 0.09961,0.00391c0.55152,-0.00862 0.99193,-0.46214 0.98438,-1.01367v-2c0,-0.87201 0.70538,-1.66602 1.50586,-1.66602c0.88079,0 1.50586,0.62408 1.50586,1.49609v9.17188c0,3.49433 -2.6912,6.94727 -6.0332,6.94727c-0.01237,-0.00023 -0.02474,-0.00023 -0.03711,0c-0.06614,0.0025 -1.06339,0.011 -1.97852,0.01563c-0.91513,0.0046 -1.78587,0.0077 -2.00195,0.01172c-3.46695,0.06102 -5.18814,-0.28648 -7.1582,-1.72852c-1.97006,-1.44203 -4.20616,-4.142 -8.09375,-8.73242c-0.00825,-0.01059 -0.01672,-0.021 -0.02539,-0.03125c-0.80613,-0.87709 -0.92613,-2.05374 -0.20117,-2.8418c0.7322,-0.79665 2.00625,-0.86273 2.79883,-0.13867c0.01645,0.01488 0.03338,0.02921 0.05078,0.04297c-0.04816,-0.03845 0.2612,0.26077 0.55664,0.5957c0.29544,0.33494 0.6508,0.75427 0.99219,1.16211c0.68278,0.81567 1.30664,1.58398 1.30664,1.58398c0.26693,0.32757 0.71093,0.45204 1.10923,0.31094c0.3983,-0.14109 0.66495,-0.51729 0.66616,-0.93985v-15.7793c0,-0.87201 0.62507,-1.49805 1.50586,-1.49805z"></path></g></g></svg>