<svg id="visual" viewBox="0 0 1920 1080" width="1920" height="1080" xmlns="http://www.w3.org/2000/svg" xmlns:xlink="http://www.w3.org/1999/xlink" version="1.1"><g stroke-width="1" stroke-linejoin="bevel"><path d="M872.3 539L1057.7 370L858.3 344Z" fill="#277297" stroke="#277297"></path><path d="M872.3 539L1067.7 557L1057.7 370Z" fill="#246688" stroke="#246688"></path><path d="M1041.7 192L869.3 196L858.3 344Z" fill="#297ea6" stroke="#297ea6"></path><path d="M1057.7 370L1041.7 192L858.3 344Z" fill="#277297" stroke="#277297"></path><path d="M1067.7 557L1245 370L1057.7 370Z" fill="#0c2435" stroke="#0c2435"></path><path d="M1057.7 370L1245 370L1041.7 192Z" fill="#081a28" stroke="#081a28"></path><path d="M651 320L653 550L858.3 344Z" fill="#1d4e6b" stroke="#1d4e6b"></path><path d="M858.3 344L653 550L872.3 539Z" fill="#297ea6" stroke="#297ea6"></path><path d="M872.3 539L1037.7 744L1067.7 557Z" fill="#112e42" stroke="#112e42"></path><path d="M869.3 196L651 320L858.3 344Z" fill="#112e42" stroke="#112e42"></path><path d="M828.3 749L1037.7 744L872.3 539Z" fill="#081a28" stroke="#081a28"></path><path d="M1067.7 557L1313 568L1245 370Z" fill="#1d4e6b" stroke="#1d4e6b"></path><path d="M653 550L828.3 749L872.3 539Z" fill="#277297" stroke="#277297"></path><path d="M817.3 0L660 177L869.3 196Z" fill="#246688" stroke="#246688"></path><path d="M869.3 196L660 177L651 320Z" fill="#1d4e6b" stroke="#1d4e6b"></path><path d="M1301 725L1313 568L1067.7 557Z" fill="#297ea6" stroke="#297ea6"></path><path d="M1454.3 210L1271 203L1245 370Z" fill="#081a28" stroke="#081a28"></path><path d="M1245 370L1271 203L1041.7 192Z" fill="#0c2435" stroke="#0c2435"></path><path d="M653 550L633 699L828.3 749Z" fill="#0c2435" stroke="#0c2435"></path><path d="M414.7 561L633 699L653 550Z" fill="#246688" stroke="#246688"></path><path d="M1271 203L1062.7 0L1041.7 192Z" fill="#19435d" stroke="#19435d"></path><path d="M1041.7 192L1062.7 0L869.3 196Z" fill="#246688" stroke="#246688"></path><path d="M1062.7 0L817.3 0L869.3 196Z" fill="#112e42" stroke="#112e42"></path><path d="M1037.7 744L1301 725L1067.7 557Z" fill="#19435d" stroke="#19435d"></path><path d="M873.3 904L1083.7 880L1037.7 744Z" fill="#1d4e6b" stroke="#1d4e6b"></path><path d="M1037.7 744L1083.7 880L1301 725Z" fill="#246688" stroke="#246688"></path><path d="M873.3 904L1037.7 744L828.3 749Z" fill="#00101c" stroke="#00101c"></path><path d="M627 937L873.3 904L828.3 749Z" fill="#15384f" stroke="#15384f"></path><path d="M817.3 0L666 0L660 177Z" fill="#205a7a" stroke="#205a7a"></path><path d="M426.7 215L420.7 395L651 320Z" fill="#081a28" stroke="#081a28"></path><path d="M651 320L420.7 395L653 550Z" fill="#15384f" stroke="#15384f"></path><path d="M426.7 215L651 320L660 177Z" fill="#297ea6" stroke="#297ea6"></path><path d="M1454.3 210L1262 0L1271 203Z" fill="#1d4e6b" stroke="#1d4e6b"></path><path d="M1271 203L1262 0L1062.7 0Z" fill="#15384f" stroke="#15384f"></path><path d="M1271 1080L1270 877L1083.7 880Z" fill="#081a28" stroke="#081a28"></path><path d="M1083.7 880L1270 877L1301 725Z" fill="#00101c" stroke="#00101c"></path><path d="M420.7 395L414.7 561L653 550Z" fill="#0c2435" stroke="#0c2435"></path><path d="M633 699L627 937L828.3 749Z" fill="#1d4e6b" stroke="#1d4e6b"></path><path d="M1516.3 377L1454.3 210L1245 370Z" fill="#0c2435" stroke="#0c2435"></path><path d="M1516.3 377L1245 370L1313 568Z" fill="#19435d" stroke="#19435d"></path><path d="M1516.3 377L1313 568L1511.3 546Z" fill="#19435d" stroke="#19435d"></path><path d="M433.7 0L426.7 215L660 177Z" fill="#00101c" stroke="#00101c"></path><path d="M222.3 544L394.7 714L414.7 561Z" fill="#205a7a" stroke="#205a7a"></path><path d="M1511.3 546L1313 568L1477.3 707Z" fill="#19435d" stroke="#19435d"></path><path d="M1477.3 707L1313 568L1301 725Z" fill="#15384f" stroke="#15384f"></path><path d="M1514.3 899L1477.3 707L1301 725Z" fill="#081a28" stroke="#081a28"></path><path d="M430.7 929L627 937L633 699Z" fill="#205a7a" stroke="#205a7a"></path><path d="M873.3 904L1054.7 1080L1083.7 880Z" fill="#246688" stroke="#246688"></path><path d="M222.3 544L414.7 561L420.7 395Z" fill="#081a28" stroke="#081a28"></path><path d="M414.7 561L394.7 714L633 699Z" fill="#15384f" stroke="#15384f"></path><path d="M830.3 1080L1054.7 1080L873.3 904Z" fill="#297ea6" stroke="#297ea6"></path><path d="M1270 877L1514.3 899L1301 725Z" fill="#246688" stroke="#246688"></path><path d="M627 937L830.3 1080L873.3 904Z" fill="#112e42" stroke="#112e42"></path><path d="M666 0L433.7 0L660 177Z" fill="#19435d" stroke="#19435d"></path><path d="M426.7 215L246.3 321L420.7 395Z" fill="#0c2435" stroke="#0c2435"></path><path d="M251.3 191L246.3 321L426.7 215Z" fill="#19435d" stroke="#19435d"></path><path d="M394.7 714L430.7 929L633 699Z" fill="#277297" stroke="#277297"></path><path d="M627 937L610 1080L830.3 1080Z" fill="#15384f" stroke="#15384f"></path><path d="M244.3 729L430.7 929L394.7 714Z" fill="#0c2435" stroke="#0c2435"></path><path d="M1054.7 1080L1271 1080L1083.7 880Z" fill="#0c2435" stroke="#0c2435"></path><path d="M1718.7 158L1526.3 0L1454.3 210Z" fill="#15384f" stroke="#15384f"></path><path d="M1454.3 210L1526.3 0L1262 0Z" fill="#1d4e6b" stroke="#1d4e6b"></path><path d="M457.7 1080L610 1080L627 937Z" fill="#19435d" stroke="#19435d"></path><path d="M1472.3 1080L1514.3 899L1270 877Z" fill="#00101c" stroke="#00101c"></path><path d="M1738.7 748L1682.7 502L1511.3 546Z" fill="#246688" stroke="#246688"></path><path d="M1511.3 546L1682.7 502L1516.3 377Z" fill="#205a7a" stroke="#205a7a"></path><path d="M1516.3 377L1716.7 342L1454.3 210Z" fill="#19435d" stroke="#19435d"></path><path d="M246.3 321L222.3 544L420.7 395Z" fill="#277297" stroke="#277297"></path><path d="M1738.7 748L1511.3 546L1477.3 707Z" fill="#246688" stroke="#246688"></path><path d="M433.7 0L251.3 191L426.7 215Z" fill="#0c2435" stroke="#0c2435"></path><path d="M246.3 321L0 365L222.3 544Z" fill="#1d4e6b" stroke="#1d4e6b"></path><path d="M222.3 544L244.3 729L394.7 714Z" fill="#081a28" stroke="#081a28"></path><path d="M1682.7 502L1716.7 342L1516.3 377Z" fill="#277297" stroke="#277297"></path><path d="M228.3 1080L457.7 1080L430.7 929Z" fill="#112e42" stroke="#112e42"></path><path d="M430.7 929L457.7 1080L627 937Z" fill="#277297" stroke="#277297"></path><path d="M1716.7 342L1718.7 158L1454.3 210Z" fill="#1d4e6b" stroke="#1d4e6b"></path><path d="M1271 1080L1472.3 1080L1270 877Z" fill="#277297" stroke="#277297"></path><path d="M1682.7 877L1738.7 748L1477.3 707Z" fill="#205a7a" stroke="#205a7a"></path><path d="M1682.7 877L1477.3 707L1514.3 899Z" fill="#112e42" stroke="#112e42"></path><path d="M1920 532L1920 356L1716.7 342Z" fill="#1d4e6b" stroke="#1d4e6b"></path><path d="M1716.7 342L1920 178L1718.7 158Z" fill="#112e42" stroke="#112e42"></path><path d="M1678.7 1080L1682.7 877L1514.3 899Z" fill="#0c2435" stroke="#0c2435"></path><path d="M433.7 0L182.3 0L251.3 191Z" fill="#297ea6" stroke="#297ea6"></path><path d="M0 169L0 365L246.3 321Z" fill="#081a28" stroke="#081a28"></path><path d="M0 691L176.3 861L244.3 729Z" fill="#112e42" stroke="#112e42"></path><path d="M244.3 729L176.3 861L430.7 929Z" fill="#19435d" stroke="#19435d"></path><path d="M0 691L244.3 729L222.3 544Z" fill="#297ea6" stroke="#297ea6"></path><path d="M1920 0L1714.7 0L1718.7 158Z" fill="#00101c" stroke="#00101c"></path><path d="M1718.7 158L1714.7 0L1526.3 0Z" fill="#1d4e6b" stroke="#1d4e6b"></path><path d="M0 169L246.3 321L251.3 191Z" fill="#277297" stroke="#277297"></path><path d="M0 365L0 530L222.3 544Z" fill="#0c2435" stroke="#0c2435"></path><path d="M176.3 861L228.3 1080L430.7 929Z" fill="#1d4e6b" stroke="#1d4e6b"></path><path d="M0 907L228.3 1080L176.3 861Z" fill="#297ea6" stroke="#297ea6"></path><path d="M1920 868L1920 727L1738.7 748Z" fill="#00101c" stroke="#00101c"></path><path d="M1472.3 1080L1678.7 1080L1514.3 899Z" fill="#297ea6" stroke="#297ea6"></path><path d="M1920 532L1682.7 502L1738.7 748Z" fill="#19435d" stroke="#19435d"></path><path d="M1920 532L1716.7 342L1682.7 502Z" fill="#246688" stroke="#246688"></path><path d="M1920 727L1920 532L1738.7 748Z" fill="#205a7a" stroke="#205a7a"></path><path d="M0 530L0 691L222.3 544Z" fill="#19435d" stroke="#19435d"></path><path d="M182.3 0L0 169L251.3 191Z" fill="#112e42" stroke="#112e42"></path><path d="M1920 356L1920 178L1716.7 342Z" fill="#297ea6" stroke="#297ea6"></path><path d="M1920 868L1738.7 748L1682.7 877Z" fill="#112e42" stroke="#112e42"></path><path d="M182.3 0L0 0L0 169Z" fill="#19435d" stroke="#19435d"></path><path d="M0 691L0 907L176.3 861Z" fill="#19435d" stroke="#19435d"></path><path d="M1920 1080L1920 868L1682.7 877Z" fill="#15384f" stroke="#15384f"></path><path d="M1920 178L1920 0L1718.7 158Z" fill="#1d4e6b" stroke="#1d4e6b"></path><path d="M0 907L0 1080L228.3 1080Z" fill="#081a28" stroke="#081a28"></path><path d="M1678.7 1080L1920 1080L1682.7 877Z" fill="#15384f" stroke="#15384f"></path></g></svg>