<svg id="visual" viewBox="0 0 1920 1080" width="1920" height="1080" xmlns="http://www.w3.org/2000/svg" xmlns:xlink="http://www.w3.org/1999/xlink" version="1.1"><rect x="0" y="0" width="1920" height="1080" fill="#ffffff"></rect><defs><linearGradient id="grad1_0" x1="43.8%" y1="0%" x2="100%" y2="100%"><stop offset="14.444444444444446%" stop-color="#007038" stop-opacity="1"></stop><stop offset="85.55555555555554%" stop-color="#007038" stop-opacity="1"></stop></linearGradient></defs><defs><linearGradient id="grad1_1" x1="43.8%" y1="0%" x2="100%" y2="100%"><stop offset="14.444444444444446%" stop-color="#007038" stop-opacity="1"></stop><stop offset="85.55555555555554%" stop-color="#3f8756" stop-opacity="1"></stop></linearGradient></defs><defs><linearGradient id="grad1_2" x1="43.8%" y1="0%" x2="100%" y2="100%"><stop offset="14.444444444444446%" stop-color="#679f76" stop-opacity="1"></stop><stop offset="85.55555555555554%" stop-color="#3f8756" stop-opacity="1"></stop></linearGradient></defs><defs><linearGradient id="grad1_3" x1="43.8%" y1="0%" x2="100%" y2="100%"><stop offset="14.444444444444446%" stop-color="#679f76" stop-opacity="1"></stop><stop offset="85.55555555555554%" stop-color="#8cb696" stop-opacity="1"></stop></linearGradient></defs><defs><linearGradient id="grad1_4" x1="43.8%" y1="0%" x2="100%" y2="100%"><stop offset="14.444444444444446%" stop-color="#b2ceb8" stop-opacity="1"></stop><stop offset="85.55555555555554%" stop-color="#8cb696" stop-opacity="1"></stop></linearGradient></defs><defs><linearGradient id="grad1_5" x1="43.8%" y1="0%" x2="100%" y2="100%"><stop offset="14.444444444444446%" stop-color="#b2ceb8" stop-opacity="1"></stop><stop offset="85.55555555555554%" stop-color="#d8e7db" stop-opacity="1"></stop></linearGradient></defs><defs><linearGradient id="grad1_6" x1="43.8%" y1="0%" x2="100%" y2="100%"><stop offset="14.444444444444446%" stop-color="#ffffff" stop-opacity="1"></stop><stop offset="85.55555555555554%" stop-color="#d8e7db" stop-opacity="1"></stop></linearGradient></defs><defs><linearGradient id="grad2_0" x1="0%" y1="0%" x2="56.3%" y2="100%"><stop offset="14.444444444444446%" stop-color="#007038" stop-opacity="1"></stop><stop offset="85.55555555555554%" stop-color="#007038" stop-opacity="1"></stop></linearGradient></defs><defs><linearGradient id="grad2_1" x1="0%" y1="0%" x2="56.3%" y2="100%"><stop offset="14.444444444444446%" stop-color="#3f8756" stop-opacity="1"></stop><stop offset="85.55555555555554%" stop-color="#007038" stop-opacity="1"></stop></linearGradient></defs><defs><linearGradient id="grad2_2" x1="0%" y1="0%" x2="56.3%" y2="100%"><stop offset="14.444444444444446%" stop-color="#3f8756" stop-opacity="1"></stop><stop offset="85.55555555555554%" stop-color="#679f76" stop-opacity="1"></stop></linearGradient></defs><defs><linearGradient id="grad2_3" x1="0%" y1="0%" x2="56.3%" y2="100%"><stop offset="14.444444444444446%" stop-color="#8cb696" stop-opacity="1"></stop><stop offset="85.55555555555554%" stop-color="#679f76" stop-opacity="1"></stop></linearGradient></defs><defs><linearGradient id="grad2_4" x1="0%" y1="0%" x2="56.3%" y2="100%"><stop offset="14.444444444444446%" stop-color="#8cb696" stop-opacity="1"></stop><stop offset="85.55555555555554%" stop-color="#b2ceb8" stop-opacity="1"></stop></linearGradient></defs><defs><linearGradient id="grad2_5" x1="0%" y1="0%" x2="56.3%" y2="100%"><stop offset="14.444444444444446%" stop-color="#d8e7db" stop-opacity="1"></stop><stop offset="85.55555555555554%" stop-color="#b2ceb8" stop-opacity="1"></stop></linearGradient></defs><defs><linearGradient id="grad2_6" x1="0%" y1="0%" x2="56.3%" y2="100%"><stop offset="14.444444444444446%" stop-color="#d8e7db" stop-opacity="1"></stop><stop offset="85.55555555555554%" stop-color="#ffffff" stop-opacity="1"></stop></linearGradient></defs><g transform="translate(1920, 0)"><path d="M0 810C-112.5 739.6 -224.9 669.3 -352.5 610.5C-480.1 551.8 -622.7 504.8 -701.5 405C-780.2 305.2 -795.1 152.6 -810 0L0 0Z" fill="#ecf3ed"></path><path d="M0 694.3C-96.4 634 -192.8 573.6 -302.1 523.3C-411.5 473 -533.8 432.7 -601.3 347.1C-668.8 261.6 -681.5 130.8 -694.3 0L0 0Z" fill="#c5daca"></path><path d="M0 578.6C-80.3 528.3 -160.7 478 -251.8 436.1C-342.9 394.2 -444.8 360.6 -501.1 289.3C-557.3 218 -567.9 109 -578.6 0L0 0Z" fill="#9fc2a7"></path><path d="M0 462.9C-64.3 422.6 -128.5 382.4 -201.4 348.9C-274.3 315.3 -355.8 288.5 -400.8 231.4C-445.9 174.4 -454.4 87.2 -462.9 0L0 0Z" fill="#7aab86"></path><path d="M0 347.1C-48.2 317 -96.4 286.8 -151.1 261.7C-205.7 236.5 -266.9 216.3 -300.6 173.6C-334.4 130.8 -340.8 65.4 -347.1 0L0 0Z" fill="#539366"></path><path d="M0 231.4C-32.1 211.3 -64.3 191.2 -100.7 174.4C-137.2 157.7 -177.9 144.2 -200.4 115.7C-222.9 87.2 -227.2 43.6 -231.4 0L0 0Z" fill="#277c47"></path><path d="M0 115.7C-16.1 105.7 -32.1 95.6 -50.4 87.2C-68.6 78.8 -89 72.1 -100.2 57.9C-111.5 43.6 -113.6 21.8 -115.7 0L0 0Z" fill="#007038"></path></g><g transform="translate(0, 1080)"><path d="M0 -810C120.2 -753 240.4 -696 367 -635.7C493.6 -575.3 626.6 -511.5 701.5 -405C776.4 -298.5 793.2 -149.2 810 0L0 0Z" fill="#ecf3ed"></path><path d="M0 -694.3C103 -645.4 206.1 -596.6 314.6 -544.9C423.1 -493.1 537.1 -438.4 601.3 -347.1C665.5 -255.8 679.9 -127.9 694.3 0L0 0Z" fill="#c5daca"></path><path d="M0 -578.6C85.9 -537.9 171.7 -497.2 262.1 -454C352.6 -410.9 447.6 -365.4 501.1 -289.3C554.6 -213.2 566.6 -106.6 578.6 0L0 0Z" fill="#9fc2a7"></path><path d="M0 -462.9C68.7 -430.3 137.4 -397.7 209.7 -363.2C282.1 -328.7 358 -292.3 400.8 -231.4C443.6 -170.6 453.3 -85.3 462.9 0L0 0Z" fill="#7aab86"></path><path d="M0 -347.1C51.5 -322.7 103 -298.3 157.3 -272.4C211.5 -246.6 268.5 -219.2 300.6 -173.6C332.7 -127.9 339.9 -64 347.1 0L0 0Z" fill="#539366"></path><path d="M0 -231.4C34.3 -215.1 68.7 -198.9 104.9 -181.6C141 -164.4 179 -146.1 200.4 -115.7C221.8 -85.3 226.6 -42.6 231.4 0L0 0Z" fill="#277c47"></path><path d="M0 -115.7C17.2 -107.6 34.3 -99.4 52.4 -90.8C70.5 -82.2 89.5 -73.1 100.2 -57.9C110.9 -42.6 113.3 -21.3 115.7 0L0 0Z" fill="#007038"></path></g></svg>