<svg xmlns="http://www.w3.org/2000/svg" viewBox="0 0 500 500"><g id="freepik--Background--inject-63"><path id="freepik--background--inject-63" d="M235.32,38.53c-59,36.36-51.15,70.07-79.58,114.63-26.7,41.85-44,46.28-89.36,79.74C25.16,263.32-3.36,336.05,46.07,404.1c52.8,72.7,168.27,94.82,264,72.7,121.86-28.14,191.32-145.39,180-260.39C479.82,111.73,417.47,51.06,368.78,32.26S268.4,18.15,235.32,38.53Z" style="fill:#263238"></path></g><g id="freepik--Sparkles--inject-63"><g id="freepik--Shine--inject-63"><g id="freepik--shine--inject-63"><path d="M47.82,365.56a.21.21,0,0,1-.27-.13l-2.28-5.76a1.09,1.09,0,0,0-1.21-.68l-4.79.86a.22.22,0,0,1-.12-.43l4.49-1.88a1.1,1.1,0,0,0,.65-1.22l-1.21-6.08a.21.21,0,0,1,.15-.26.22.22,0,0,1,.27.13l2.28,5.77a1.1,1.1,0,0,0,1.21.67l4.79-.85a.24.24,0,0,1,.26.15.23.23,0,0,1-.13.27L47.42,358a1.1,1.1,0,0,0-.65,1.23L48,365.31A.22.22,0,0,1,47.82,365.56Zm-6.64-6.51,2.81-.5a1.54,1.54,0,0,1,1.7.95L47.06,363l-.73-3.66a1.54,1.54,0,0,1,.92-1.72l2.63-1.1-2.81.5a1.53,1.53,0,0,1-1.7-.95L44,352.58l.72,3.65h0a1.53,1.53,0,0,1-.91,1.72Zm3.33-2.78Z" style="fill:#265CBE"></path><g style="opacity:0.5"><path d="M58,341.27a.23.23,0,0,1-.27-.14l-1.56-3.92a.67.67,0,0,0-.74-.42l-3.26.58a.22.22,0,0,1-.13-.42l3.06-1.28a.68.68,0,0,0,.4-.75l-.83-4.14a.23.23,0,0,1,.16-.26.22.22,0,0,1,.27.13l1.55,3.93a.68.68,0,0,0,.75.41l3.26-.58a.23.23,0,0,1,.13.43l-3.06,1.28a.67.67,0,0,0-.4.75l.82,4.14A.23.23,0,0,1,58,341.27Zm-3.93-4.69,1.28-.23a1.13,1.13,0,0,1,1.24.7l.64,1.62L56.92,337a1.14,1.14,0,0,1,.67-1.26l1.19-.5-1.27.23a1.12,1.12,0,0,1-1.24-.69l-.64-1.63.34,1.72h0a1.12,1.12,0,0,1-.67,1.25Zm1.65-1.71Z" style="fill:#265CBE"></path></g></g><g id="freepik--shine--inject-63"><path d="M365.79,94.2a.29.29,0,0,1-.35-.17l-2.95-7.47a1.41,1.41,0,0,0-1.56-.87l-6.21,1.1a.29.29,0,0,1-.33-.2.29.29,0,0,1,.17-.35l5.81-2.43a1.42,1.42,0,0,0,.84-1.59l-1.56-7.87a.29.29,0,0,1,.2-.33.29.29,0,0,1,.35.17l2.95,7.46h0a1.41,1.41,0,0,0,1.57.88l6.2-1.11a.29.29,0,0,1,.33.21.28.28,0,0,1-.17.34l-5.81,2.44a1.4,1.4,0,0,0-.84,1.58L366,93.86A.29.29,0,0,1,365.79,94.2Zm-8.6-8.43,3.63-.65A2,2,0,0,1,363,86.35l1.77,4.49-.94-4.73a2,2,0,0,1,1.19-2.23l3.4-1.43-3.63.65a2,2,0,0,1-2.21-1.23l-1.77-4.49.94,4.73a2,2,0,0,1-1.18,2.23Z" style="fill:#265CBE"></path><g style="opacity:0.5"><path d="M349.72,107.24a.23.23,0,0,1-.29-.14L347.79,103a.73.73,0,0,0-.79-.44l-3.45.62a.24.24,0,0,1-.27-.17.23.23,0,0,1,.13-.28l3.24-1.36a.71.71,0,0,0,.42-.8l-.87-4.37a.25.25,0,0,1,.17-.28h0a.24.24,0,0,1,.28.14l1.64,4.16a.73.73,0,0,0,.79.44l3.45-.62a.24.24,0,0,1,.14.45l-3.24,1.35a.71.71,0,0,0-.42.8l.87,4.38A.24.24,0,0,1,349.72,107.24Zm-4.15-4.95,1.35-.24a1.18,1.18,0,0,1,1.31.73l.68,1.71-.37-1.81a1.19,1.19,0,0,1,.71-1.32l1.27-.53-1.36.24a1.19,1.19,0,0,1-1.31-.73h0l-.67-1.72.36,1.81a1.2,1.2,0,0,1-.71,1.33Z" style="fill:#265CBE"></path></g></g><g id="freepik--shine--inject-63"><path d="M116.77,438a.26.26,0,0,1-.32-.16l-2.73-6.89a1.31,1.31,0,0,0-1.45-.81l-5.73,1a.27.27,0,0,1-.3-.19.27.27,0,0,1,.15-.32l5.37-2.25a1.3,1.3,0,0,0,.78-1.46l-1.45-7.27a.28.28,0,0,1,.19-.31.26.26,0,0,1,.32.16l2.73,6.89h0a1.3,1.3,0,0,0,1.45.81l5.73-1a.27.27,0,0,1,.3.19.27.27,0,0,1-.15.32l-5.37,2.25a1.3,1.3,0,0,0-.78,1.46l1.45,7.27A.28.28,0,0,1,116.77,438Zm-8-7.79,3.36-.6a1.86,1.86,0,0,1,2,1.14l1.64,4.14-.88-4.37a1.85,1.85,0,0,1,1.1-2.06l3.15-1.31-3.36.6a1.86,1.86,0,0,1-2-1.14l-1.64-4.14.87,4.37a1.84,1.84,0,0,1-1.09,2.05Z" style="fill:#265CBE"></path><g style="opacity:0.5"><path d="M131.54,446.94a.21.21,0,0,1-.26-.13L129.76,443a.67.67,0,0,0-.73-.41l-3.19.57a.21.21,0,0,1-.24-.15.22.22,0,0,1,.12-.27l3-1.25a.65.65,0,0,0,.39-.73l-.8-4.05a.21.21,0,0,1,.15-.25h0a.21.21,0,0,1,.26.13l1.52,3.83a.66.66,0,0,0,.73.41l3.18-.57a.22.22,0,0,1,.13.42l-3,1.25a.66.66,0,0,0-.39.74l.8,4A.21.21,0,0,1,131.54,446.94Zm-3.83-4.58,1.25-.22a1.1,1.1,0,0,1,1.21.68l.62,1.58-.33-1.67a1.09,1.09,0,0,1,.65-1.22l1.17-.49-1.25.22a1.1,1.1,0,0,1-1.21-.67h0l-.63-1.58.34,1.67a1.09,1.09,0,0,1-.65,1.22Z" style="fill:#265CBE"></path></g></g><g id="freepik--shine--inject-63"><path d="M462,272.58a.25.25,0,0,1-.3-.14l-2.48-6.27a1.18,1.18,0,0,0-1.31-.74l-5.22.93a.24.24,0,0,1-.27-.17.23.23,0,0,1,.14-.29l4.88-2a1.19,1.19,0,0,0,.71-1.33l-1.32-6.61a.25.25,0,0,1,.47-.14l2.47,6.27h0a1.2,1.2,0,0,0,1.32.74l5.21-.93a.25.25,0,0,1,.28.17.25.25,0,0,1-.14.29l-4.88,2.05a1.19,1.19,0,0,0-.71,1.33l1.31,6.61A.24.24,0,0,1,462,272.58Zm-7.23-7.08,3-.55a1.68,1.68,0,0,1,1.85,1l1.49,3.77-.79-4a1.69,1.69,0,0,1,1-1.87l2.86-1.2-3.05.55a1.69,1.69,0,0,1-1.86-1l-1.49-3.77.8,4a1.69,1.69,0,0,1-1,1.87Z" style="fill:#265CBE"></path><path d="M290.82,51.71a.13.13,0,0,1-.15-.08l-1.27-3.21a.61.61,0,0,0-.68-.37l-2.66.47a.11.11,0,0,1-.14-.08.12.12,0,0,1,.07-.15l2.5-1a.62.62,0,0,0,.36-.68l-.68-3.39a.13.13,0,0,1,.09-.14.12.12,0,0,1,.15.07l1.27,3.21h0a.61.61,0,0,0,.67.38l2.67-.48a.13.13,0,0,1,.14.09.12.12,0,0,1-.07.15l-2.5,1a.61.61,0,0,0-.36.68l.67,3.38A.12.12,0,0,1,290.82,51.71Zm-3.7-3.63,1.56-.28a.86.86,0,0,1,.95.53l.76,1.93-.4-2a.86.86,0,0,1,.51-1l1.46-.61-1.56.27a.85.85,0,0,1-.95-.53l-.76-1.92.4,2a.86.86,0,0,1-.51,1Z" style="fill:#265CBE"></path><g style="opacity:0.5"><path d="M465.41,247.65a.19.19,0,0,1-.24-.12L463.79,244a.59.59,0,0,0-.66-.36l-2.9.51a.2.2,0,0,1-.11-.38l2.71-1.13a.6.6,0,0,0,.36-.67l-.73-3.68a.2.2,0,0,1,.14-.23h0a.2.2,0,0,1,.24.12l1.37,3.49a.61.61,0,0,0,.67.36l2.9-.51a.19.19,0,0,1,.22.14.2.2,0,0,1-.11.24l-2.72,1.13a.62.62,0,0,0-.36.67l.74,3.68A.2.2,0,0,1,465.41,247.65Zm-3.49-4.16,1.14-.2a1,1,0,0,1,1.1.61l.57,1.44-.3-1.52a1,1,0,0,1,.59-1.11l1.06-.45-1.13.21a1,1,0,0,1-1.1-.62h0l-.56-1.44.3,1.52A1,1,0,0,1,463,243Z" style="fill:#265CBE"></path></g><g style="opacity:0.5"><path d="M452.61,141a.2.2,0,0,1-.24-.12L451,137.42a.61.61,0,0,0-.66-.37l-2.9.52a.2.2,0,0,1-.12-.38l2.72-1.14a.61.61,0,0,0,.36-.67l-.73-3.68a.19.19,0,0,1,.13-.22h0a.19.19,0,0,1,.24.11l1.38,3.49a.62.62,0,0,0,.67.37l2.89-.52a.22.22,0,0,1,.23.14.2.2,0,0,1-.11.24l-2.72,1.14a.61.61,0,0,0-.36.67l.74,3.68A.2.2,0,0,1,452.61,141Zm-3.49-4.17,1.14-.2a1,1,0,0,1,1.1.61l.57,1.45-.31-1.52a1,1,0,0,1,.6-1.12l1.06-.44-1.14.2a1,1,0,0,1-1.1-.61h0l-.57-1.45.31,1.52a1,1,0,0,1-.59,1.12Z" style="fill:#265CBE"></path></g></g><g id="freepik--shine--inject-63"><path d="M290.22,348.82a.21.21,0,0,1-.23-.12l-2-5a1,1,0,0,0-1.05-.59l-4.16.74a.2.2,0,0,1-.22-.13.19.19,0,0,1,.11-.23l3.9-1.64a1,1,0,0,0,.57-1.06l-1.06-5.27a.2.2,0,0,1,.14-.23.19.19,0,0,1,.23.12l2,5a1,1,0,0,0,1.05.59l4.16-.74a.19.19,0,0,1,.22.13.18.18,0,0,1-.11.23l-3.9,1.64a1,1,0,0,0-.56,1.06l1.05,5.27A.2.2,0,0,1,290.22,348.82Zm-5.76-5.65,2.43-.44a1.34,1.34,0,0,1,1.48.83l1.19,3-.63-3.17a1.33,1.33,0,0,1,.79-1.49l2.29-1-2.44.44a1.35,1.35,0,0,1-1.48-.83h0l-1.19-3,.63,3.17a1.33,1.33,0,0,1-.79,1.49Z" style="fill:#265CBE"></path><g style="opacity:0.5"><path d="M314.84,342a.21.21,0,0,1-.23-.12l-1.35-3.4a.59.59,0,0,0-.64-.37l-2.83.51a.18.18,0,0,1-.22-.14.19.19,0,0,1,.11-.23l2.65-1.11a.59.59,0,0,0,.35-.65l-.72-3.6a.19.19,0,0,1,.14-.22.18.18,0,0,1,.23.12l1.35,3.4h0a.57.57,0,0,0,.64.36l2.84-.5a.18.18,0,0,1,.21.13.19.19,0,0,1-.11.24l-2.65,1.11a.59.59,0,0,0-.35.65l.72,3.59A.2.2,0,0,1,314.84,342Zm-3.4-4.07,1.11-.2a1,1,0,0,1,1.07.6l.56,1.41-.3-1.48a1,1,0,0,1,.58-1.09l1-.43-1.11.19a1,1,0,0,1-1.07-.6l-.56-1.41.3,1.49a1,1,0,0,1-.58,1.09Z" style="fill:#265CBE"></path></g><g style="opacity:0.5"><path d="M313.83,319a.19.19,0,0,1-.23-.11l-1.35-3.41a.59.59,0,0,0-.65-.36l-2.83.51a.2.2,0,0,1-.22-.14.2.2,0,0,1,.11-.23l2.66-1.11a.6.6,0,0,0,.35-.66l-.72-3.59a.19.19,0,0,1,.13-.22.2.2,0,0,1,.24.11l1.35,3.41h0a.57.57,0,0,0,.64.36l2.83-.5a.19.19,0,0,1,.22.13.18.18,0,0,1-.11.23l-2.65,1.12a.58.58,0,0,0-.35.65l.72,3.59A.18.18,0,0,1,313.83,319Zm-3.4-4.06,1.11-.2a1,1,0,0,1,1.07.6l.56,1.41-.3-1.49a1,1,0,0,1,.58-1.08l1-.44-1.11.2a1,1,0,0,1-1.07-.6l-.56-1.41.29,1.49a1,1,0,0,1-.57,1.08Z" style="fill:#265CBE"></path></g></g><g id="freepik--shine--inject-63" style="opacity:0.5"><path d="M399.89,406a.23.23,0,0,1-.27-.13l-1.55-3.93a.67.67,0,0,0-.75-.41l-3.26.58a.23.23,0,0,1-.13-.43l3.06-1.28a.68.68,0,0,0,.4-.75l-.82-4.14a.22.22,0,0,1,.15-.26.23.23,0,0,1,.27.14l1.55,3.92a.67.67,0,0,0,.75.41l3.26-.58a.23.23,0,0,1,.13.43l-3.06,1.28a.67.67,0,0,0-.4.75l.82,4.14A.22.22,0,0,1,399.89,406ZM396,401.27l1.27-.22a1.11,1.11,0,0,1,1.24.69l.64,1.62-.34-1.71a1.12,1.12,0,0,1,.67-1.25l1.19-.5-1.27.22a1.1,1.1,0,0,1-1.24-.69h0l-.64-1.62.34,1.71a1.12,1.12,0,0,1-.67,1.25Z" style="fill:#265CBE"></path></g></g></g><g id="freepik--gears-2--inject-63"><g id="freepik--small-gears--inject-63"><path d="M89.68,387.57H86.4a.67.67,0,0,1-.64-.6l-.32-2.91a.42.42,0,0,0-.26-.28,9.49,9.49,0,0,1-1.62-.66.53.53,0,0,0-.37-.07L80.77,385a.71.71,0,0,1-.91-.19l-2.11-2.11a.71.71,0,0,1-.19-.92l1.94-2.42a.51.51,0,0,0-.07-.36,10.42,10.42,0,0,1-.67-1.62.39.39,0,0,0-.27-.26l-2.92-.32a.67.67,0,0,1-.59-.65v-3.27a.63.63,0,0,1,.55-.64l3-.33a.26.26,0,0,0,.2-.16,10.25,10.25,0,0,1,.78-1.87.54.54,0,0,0-.14-.37l-1.68-2.1a.7.7,0,0,1-.09-.92L80,364.07a.71.71,0,0,1,.92.08l2.1,1.69a.62.62,0,0,0,.38.14,9.77,9.77,0,0,1,1.86-.78.27.27,0,0,0,.16-.21l.33-3a.66.66,0,0,1,.64-.56h3.28a.67.67,0,0,1,.64.6l.32,2.92a.41.41,0,0,0,.26.27,9.53,9.53,0,0,1,1.62.67.5.5,0,0,0,.37.06L95.31,364a.71.71,0,0,1,.91.2l2.11,2.11a.71.71,0,0,1,.19.91l-1.94,2.42a.5.5,0,0,0,.07.36,10.84,10.84,0,0,1,.67,1.62.42.42,0,0,0,.27.27l2.92.32a.65.65,0,0,1,.59.64v3.27a.63.63,0,0,1-.55.64l-3,.33a.26.26,0,0,0-.2.16,10.25,10.25,0,0,1-.78,1.87.53.53,0,0,0,.14.37l1.68,2.11a.7.7,0,0,1,.09.92L96.07,385a.7.7,0,0,1-.92-.09l-2.1-1.69a.51.51,0,0,0-.38-.13,9.73,9.73,0,0,1-1.86.77.28.28,0,0,0-.17.21l-.32,3A.66.66,0,0,1,89.68,387.57Zm-6.42-5a1.19,1.19,0,0,1,.53.13,8.8,8.8,0,0,0,1.53.63.89.89,0,0,1,.61.7l.33,2.92a.17.17,0,0,0,.14.15h3.28a.15.15,0,0,0,.14-.11l.33-3a.77.77,0,0,1,.52-.63,9.09,9.09,0,0,0,1.77-.74.94.94,0,0,1,.92.19l2.1,1.69a.37.37,0,0,0,.28.11l2.39-2.4a.79.79,0,0,0-.13-.25l-1.68-2.11a.89.89,0,0,1-.19-.92,10.18,10.18,0,0,0,.74-1.77.76.76,0,0,1,.63-.51l3-.33a.16.16,0,0,0,.11-.15v-3.27a.17.17,0,0,0-.15-.15l-2.91-.32a.87.87,0,0,1-.7-.61,9.77,9.77,0,0,0-.63-1.54.86.86,0,0,1,0-.9l1.94-2.42a.53.53,0,0,0-.15-.25l-2.11-2.11a.42.42,0,0,0-.27-.14l-2.4,1.93a.9.9,0,0,1-.91,0,8.8,8.8,0,0,0-1.53-.63.9.9,0,0,1-.62-.7l-.32-2.92a.17.17,0,0,0-.14-.15H86.4a.15.15,0,0,0-.14.12l-.33,3a.77.77,0,0,1-.52.63,9.09,9.09,0,0,0-1.77.74.89.89,0,0,1-.92-.19l-2.1-1.69a.47.47,0,0,0-.28-.11L78,366.83a.86.86,0,0,0,.13.26l1.68,2.1a.89.89,0,0,1,.19.92,9.46,9.46,0,0,0-.74,1.77.77.77,0,0,1-.63.52l-3,.33a.13.13,0,0,0-.11.14v3.27a.17.17,0,0,0,.15.15l2.91.32a.87.87,0,0,1,.7.61,9.39,9.39,0,0,0,.63,1.54.86.86,0,0,1,0,.9L78,382.09a.58.58,0,0,0,.15.24l2.11,2.11a.42.42,0,0,0,.27.15l2.4-1.94A.61.61,0,0,1,83.26,382.54ZM88,380.29a5.79,5.79,0,1,1,5.78-5.78A5.79,5.79,0,0,1,88,380.29Zm0-11.07a5.29,5.29,0,1,0,5.28,5.29A5.3,5.3,0,0,0,88,369.22Z" style="fill:#265CBE"></path><g style="opacity:0.6000000000000001"><path d="M89.68,387.57H86.4a.67.67,0,0,1-.64-.6l-.32-2.91a.42.42,0,0,0-.26-.28,9.49,9.49,0,0,1-1.62-.66.53.53,0,0,0-.37-.07L80.77,385a.71.71,0,0,1-.91-.19l-2.11-2.11a.71.71,0,0,1-.19-.92l1.94-2.42a.51.51,0,0,0-.07-.36,10.42,10.42,0,0,1-.67-1.62.39.39,0,0,0-.27-.26l-2.92-.32a.67.67,0,0,1-.59-.65v-3.27a.63.63,0,0,1,.55-.64l3-.33a.26.26,0,0,0,.2-.16,10.25,10.25,0,0,1,.78-1.87.54.54,0,0,0-.14-.37l-1.68-2.1a.7.7,0,0,1-.09-.92L80,364.07a.71.71,0,0,1,.92.08l2.1,1.69a.62.62,0,0,0,.38.14,9.77,9.77,0,0,1,1.86-.78.27.27,0,0,0,.16-.21l.33-3a.66.66,0,0,1,.64-.56h3.28a.67.67,0,0,1,.64.6l.32,2.92a.41.41,0,0,0,.26.27,9.53,9.53,0,0,1,1.62.67.5.5,0,0,0,.37.06L95.31,364a.71.71,0,0,1,.91.2l2.11,2.11a.71.71,0,0,1,.19.91l-1.94,2.42a.5.5,0,0,0,.07.36,10.84,10.84,0,0,1,.67,1.62.42.42,0,0,0,.27.27l2.92.32a.65.65,0,0,1,.59.64v3.27a.63.63,0,0,1-.55.64l-3,.33a.26.26,0,0,0-.2.16,10.25,10.25,0,0,1-.78,1.87.53.53,0,0,0,.14.37l1.68,2.11a.7.7,0,0,1,.09.92L96.07,385a.7.7,0,0,1-.92-.09l-2.1-1.69a.51.51,0,0,0-.38-.13,9.73,9.73,0,0,1-1.86.77.28.28,0,0,0-.17.21l-.32,3A.66.66,0,0,1,89.68,387.57Zm-6.42-5a1.19,1.19,0,0,1,.53.13,8.8,8.8,0,0,0,1.53.63.89.89,0,0,1,.61.7l.33,2.92a.17.17,0,0,0,.14.15h3.28a.15.15,0,0,0,.14-.11l.33-3a.77.77,0,0,1,.52-.63,9.09,9.09,0,0,0,1.77-.74.94.94,0,0,1,.92.19l2.1,1.69a.37.37,0,0,0,.28.11l2.39-2.4a.79.79,0,0,0-.13-.25l-1.68-2.11a.89.89,0,0,1-.19-.92,10.18,10.18,0,0,0,.74-1.77.76.76,0,0,1,.63-.51l3-.33a.16.16,0,0,0,.11-.15v-3.27a.17.17,0,0,0-.15-.15l-2.91-.32a.87.87,0,0,1-.7-.61,9.77,9.77,0,0,0-.63-1.54.86.86,0,0,1,0-.9l1.94-2.42a.53.53,0,0,0-.15-.25l-2.11-2.11a.42.42,0,0,0-.27-.14l-2.4,1.93a.9.9,0,0,1-.91,0,8.8,8.8,0,0,0-1.53-.63.9.9,0,0,1-.62-.7l-.32-2.92a.17.17,0,0,0-.14-.15H86.4a.15.15,0,0,0-.14.12l-.33,3a.77.77,0,0,1-.52.63,9.09,9.09,0,0,0-1.77.74.89.89,0,0,1-.92-.19l-2.1-1.69a.47.47,0,0,0-.28-.11L78,366.83a.86.86,0,0,0,.13.26l1.68,2.1a.89.89,0,0,1,.19.92,9.46,9.46,0,0,0-.74,1.77.77.77,0,0,1-.63.52l-3,.33a.13.13,0,0,0-.11.14v3.27a.17.17,0,0,0,.15.15l2.91.32a.87.87,0,0,1,.7.61,9.39,9.39,0,0,0,.63,1.54.86.86,0,0,1,0,.9L78,382.09a.58.58,0,0,0,.15.24l2.11,2.11a.42.42,0,0,0,.27.15l2.4-1.94A.61.61,0,0,1,83.26,382.54ZM88,380.29a5.79,5.79,0,1,1,5.78-5.78A5.79,5.79,0,0,1,88,380.29Zm0-11.07a5.29,5.29,0,1,0,5.28,5.29A5.3,5.3,0,0,0,88,369.22Z" style="fill:#fff"></path></g><path d="M224.31,465.58h-2.39a.49.49,0,0,1-.48-.44l-.23-2.14a.33.33,0,0,0-.19-.2,7.22,7.22,0,0,1-1.19-.48.33.33,0,0,0-.27-.05l-1.77,1.42a.54.54,0,0,1-.67-.14L215.58,462a.54.54,0,0,1-.14-.67l1.42-1.77a.36.36,0,0,0-.05-.26,7.64,7.64,0,0,1-.49-1.19.27.27,0,0,0-.2-.19l-2.13-.24a.48.48,0,0,1-.44-.47v-2.4a.46.46,0,0,1,.41-.46l2.19-.24a.21.21,0,0,0,.15-.12,6.6,6.6,0,0,1,.57-1.37.4.4,0,0,0-.1-.27l-1.24-1.54a.54.54,0,0,1-.06-.68l1.76-1.76a.53.53,0,0,1,.68.06l1.54,1.24a.4.4,0,0,0,.27.1,6.6,6.6,0,0,1,1.37-.57.21.21,0,0,0,.12-.15l.24-2.19a.47.47,0,0,1,.47-.41h2.39a.49.49,0,0,1,.48.44L225,449a.29.29,0,0,0,.19.2,7.26,7.26,0,0,1,1.19.49.45.45,0,0,0,.27.05l1.77-1.42c.16-.14.45-.08.67.14l1.54,1.54a.54.54,0,0,1,.14.67l-1.42,1.77a.39.39,0,0,0,0,.27,7.26,7.26,0,0,1,.49,1.19.29.29,0,0,0,.2.19l2.13.23a.49.49,0,0,1,.44.47v2.4a.47.47,0,0,1-.41.47l-2.19.24a.21.21,0,0,0-.15.12,7.09,7.09,0,0,1-.57,1.37.4.4,0,0,0,.1.27l1.24,1.54a.52.52,0,0,1,.06.67L229,463.66a.53.53,0,0,1-.68-.07l-1.54-1.23a.39.39,0,0,0-.27-.1,7.09,7.09,0,0,1-1.37.57.19.19,0,0,0-.12.15l-.24,2.19A.47.47,0,0,1,224.31,465.58Zm-4.69-3.69a.83.83,0,0,1,.38.1,6.57,6.57,0,0,0,1.13.47.62.62,0,0,1,.44.5l.24,2.14a.13.13,0,0,0,.11.11h2.39a.11.11,0,0,0,.11-.08l.24-2.19a.58.58,0,0,1,.38-.47,6.3,6.3,0,0,0,1.29-.54.7.7,0,0,1,.68.14l1.54,1.24a.31.31,0,0,0,.2.08l1.75-1.76a.36.36,0,0,0-.09-.18l-1.24-1.54a.67.67,0,0,1-.13-.68,7.65,7.65,0,0,0,.54-1.29.54.54,0,0,1,.46-.38l2.19-.24a.11.11,0,0,0,.08-.11v-2.4a.11.11,0,0,0-.11-.1l-2.13-.24a.62.62,0,0,1-.51-.45,6.82,6.82,0,0,0-.47-1.12.65.65,0,0,1,0-.66l1.42-1.78a.41.41,0,0,0-.11-.18l-1.54-1.54a.38.38,0,0,0-.2-.11l-1.76,1.42a.63.63,0,0,1-.66,0,7.43,7.43,0,0,0-1.13-.46.64.64,0,0,1-.44-.51l-.24-2.14a.12.12,0,0,0-.11-.11h-2.39a.12.12,0,0,0-.11.09l-.24,2.19a.56.56,0,0,1-.38.46,6.64,6.64,0,0,0-1.29.54.67.67,0,0,1-.68-.14l-1.54-1.23c-.1-.08-.18-.09-.2-.08l-1.75,1.75a.37.37,0,0,0,.09.19l1.24,1.54a.68.68,0,0,1,.13.67,7.75,7.75,0,0,0-.54,1.3.57.57,0,0,1-.46.38l-2.19.24a.1.1,0,0,0-.08.1v2.4a.12.12,0,0,0,.11.11l2.13.23a.65.65,0,0,1,.51.45,6.57,6.57,0,0,0,.47,1.13.65.65,0,0,1,0,.66l-1.42,1.77a.36.36,0,0,0,.11.18l1.54,1.55a.29.29,0,0,0,.2.1l1.76-1.41A.43.43,0,0,1,219.62,461.89Zm3.49-1.64a4.24,4.24,0,1,1,4.24-4.24A4.24,4.24,0,0,1,223.11,460.25Zm0-8.11A3.87,3.87,0,1,0,227,456,3.88,3.88,0,0,0,223.11,452.14Z" style="fill:#265CBE"></path><g style="opacity:0.6000000000000001"><path d="M224.31,465.58h-2.39a.49.49,0,0,1-.48-.44l-.23-2.14a.33.33,0,0,0-.19-.2,7.22,7.22,0,0,1-1.19-.48.33.33,0,0,0-.27-.05l-1.77,1.42a.54.54,0,0,1-.67-.14L215.58,462a.54.54,0,0,1-.14-.67l1.42-1.77a.36.36,0,0,0-.05-.26,7.64,7.64,0,0,1-.49-1.19.27.27,0,0,0-.2-.19l-2.13-.24a.48.48,0,0,1-.44-.47v-2.4a.46.46,0,0,1,.41-.46l2.19-.24a.21.21,0,0,0,.15-.12,6.6,6.6,0,0,1,.57-1.37.4.4,0,0,0-.1-.27l-1.24-1.54a.54.54,0,0,1-.06-.68l1.76-1.76a.53.53,0,0,1,.68.06l1.54,1.24a.4.4,0,0,0,.27.1,6.6,6.6,0,0,1,1.37-.57.21.21,0,0,0,.12-.15l.24-2.19a.47.47,0,0,1,.47-.41h2.39a.49.49,0,0,1,.48.44L225,449a.29.29,0,0,0,.19.2,7.26,7.26,0,0,1,1.19.49.45.45,0,0,0,.27.05l1.77-1.42c.16-.14.45-.08.67.14l1.54,1.54a.54.54,0,0,1,.14.67l-1.42,1.77a.39.39,0,0,0,0,.27,7.26,7.26,0,0,1,.49,1.19.29.29,0,0,0,.2.19l2.13.23a.49.49,0,0,1,.44.47v2.4a.47.47,0,0,1-.41.47l-2.19.24a.21.21,0,0,0-.15.12,7.09,7.09,0,0,1-.57,1.37.4.4,0,0,0,.1.27l1.24,1.54a.52.52,0,0,1,.06.67L229,463.66a.53.53,0,0,1-.68-.07l-1.54-1.23a.39.39,0,0,0-.27-.1,7.09,7.09,0,0,1-1.37.57.19.19,0,0,0-.12.15l-.24,2.19A.47.47,0,0,1,224.31,465.58Zm-4.69-3.69a.83.83,0,0,1,.38.1,6.57,6.57,0,0,0,1.13.47.62.62,0,0,1,.44.5l.24,2.14a.13.13,0,0,0,.11.11h2.39a.11.11,0,0,0,.11-.08l.24-2.19a.58.58,0,0,1,.38-.47,6.3,6.3,0,0,0,1.29-.54.7.7,0,0,1,.68.14l1.54,1.24a.31.31,0,0,0,.2.08l1.75-1.76a.36.36,0,0,0-.09-.18l-1.24-1.54a.67.67,0,0,1-.13-.68,7.65,7.65,0,0,0,.54-1.29.54.54,0,0,1,.46-.38l2.19-.24a.11.11,0,0,0,.08-.11v-2.4a.11.11,0,0,0-.11-.1l-2.13-.24a.62.62,0,0,1-.51-.45,6.82,6.82,0,0,0-.47-1.12.65.65,0,0,1,0-.66l1.42-1.78a.41.41,0,0,0-.11-.18l-1.54-1.54a.38.38,0,0,0-.2-.11l-1.76,1.42a.63.63,0,0,1-.66,0,7.43,7.43,0,0,0-1.13-.46.64.64,0,0,1-.44-.51l-.24-2.14a.12.12,0,0,0-.11-.11h-2.39a.12.12,0,0,0-.11.09l-.24,2.19a.56.56,0,0,1-.38.46,6.64,6.64,0,0,0-1.29.54.67.67,0,0,1-.68-.14l-1.54-1.23c-.1-.08-.18-.09-.2-.08l-1.75,1.75a.37.37,0,0,0,.09.19l1.24,1.54a.68.68,0,0,1,.13.67,7.75,7.75,0,0,0-.54,1.3.57.57,0,0,1-.46.38l-2.19.24a.1.1,0,0,0-.08.1v2.4a.12.12,0,0,0,.11.11l2.13.23a.65.65,0,0,1,.51.45,6.57,6.57,0,0,0,.47,1.13.65.65,0,0,1,0,.66l-1.42,1.77a.36.36,0,0,0,.11.18l1.54,1.55a.29.29,0,0,0,.2.1l1.76-1.41A.43.43,0,0,1,219.62,461.89Zm3.49-1.64a4.24,4.24,0,1,1,4.24-4.24A4.24,4.24,0,0,1,223.11,460.25Zm0-8.11A3.87,3.87,0,1,0,227,456,3.88,3.88,0,0,0,223.11,452.14Z" style="fill:#fff"></path></g><path d="M324,81.49h-3.19a.66.66,0,0,1-.63-.58l-.31-2.84a.41.41,0,0,0-.25-.27,9.34,9.34,0,0,1-1.58-.64.53.53,0,0,0-.35-.07L315.32,79a.7.7,0,0,1-.89-.19l-2.05-2.05a.69.69,0,0,1-.19-.89l1.89-2.35a.53.53,0,0,0-.07-.35,10.3,10.3,0,0,1-.65-1.58.38.38,0,0,0-.26-.25L310.26,71a.66.66,0,0,1-.58-.63V67.19a.63.63,0,0,1,.54-.62l2.92-.32a.29.29,0,0,0,.2-.15,9.06,9.06,0,0,1,.75-1.82.55.55,0,0,0-.13-.36l-1.64-2a.7.7,0,0,1-.09-.9l2.34-2.34a.7.7,0,0,1,.9.08l2,1.64a.54.54,0,0,0,.36.14,9,9,0,0,1,1.81-.76.28.28,0,0,0,.16-.2l.32-2.91a.62.62,0,0,1,.62-.54H324a.64.64,0,0,1,.63.58l.31,2.83a.39.39,0,0,0,.26.27,9,9,0,0,1,1.57.65.54.54,0,0,0,.36.06l2.35-1.88a.7.7,0,0,1,.89.18l2.05,2a.7.7,0,0,1,.18.89l-1.89,2.36a.63.63,0,0,0,.07.35A9.79,9.79,0,0,1,331.4,66a.37.37,0,0,0,.27.26l2.83.31a.64.64,0,0,1,.58.62v3.19a.63.63,0,0,1-.54.62l-2.91.32a.28.28,0,0,0-.2.16,9.88,9.88,0,0,1-.76,1.82.54.54,0,0,0,.14.35l1.64,2a.68.68,0,0,1,.08.89l-2.34,2.35a.7.7,0,0,1-.9-.09l-2-1.64a.49.49,0,0,0-.36-.13,9.3,9.3,0,0,1-1.82.75.26.26,0,0,0-.15.2l-.32,2.91A.64.64,0,0,1,324,81.49Zm-6.24-4.9a1.15,1.15,0,0,1,.51.14,9.15,9.15,0,0,0,1.49.61.88.88,0,0,1,.6.68l.31,2.83a.16.16,0,0,0,.14.15H324a.13.13,0,0,0,.14-.11l.32-2.91a.75.75,0,0,1,.51-.61,9.21,9.21,0,0,0,1.72-.72.88.88,0,0,1,.89.18l2.05,1.64a.34.34,0,0,0,.27.11l2.32-2.33a.85.85,0,0,0-.12-.25l-1.64-2a.88.88,0,0,1-.18-.9,9.17,9.17,0,0,0,.71-1.72.75.75,0,0,1,.62-.5l2.91-.32a.14.14,0,0,0,.1-.14V67.19a.16.16,0,0,0-.14-.14l-2.84-.31a.84.84,0,0,1-.67-.59,8.94,8.94,0,0,0-.62-1.5.87.87,0,0,1,0-.88l1.89-2.35a.52.52,0,0,0-.15-.24l-2.05-2c-.12-.12-.22-.15-.26-.14l-2.33,1.88a.87.87,0,0,1-.88,0,8.94,8.94,0,0,0-1.5-.62.84.84,0,0,1-.59-.67l-.31-2.84a.17.17,0,0,0-.15-.14h-3.18a.14.14,0,0,0-.14.1l-.32,2.91a.75.75,0,0,1-.5.62,9.17,9.17,0,0,0-1.72.71.88.88,0,0,1-.9-.18l-2-1.64a.4.4,0,0,0-.27-.11l-2.32,2.33a.46.46,0,0,0,.12.25l1.64,2a.88.88,0,0,1,.18.89,9.21,9.21,0,0,0-.72,1.72.75.75,0,0,1-.61.51l-2.91.32a.13.13,0,0,0-.11.13v3.19a.16.16,0,0,0,.15.14l2.83.31a.88.88,0,0,1,.68.6,10.13,10.13,0,0,0,.61,1.49.85.85,0,0,1,0,.88l-1.89,2.36a.75.75,0,0,0,.15.24l2,2a.46.46,0,0,0,.26.14l2.34-1.88A.59.59,0,0,1,317.74,76.59Zm4.64-2.18A5.63,5.63,0,1,1,328,68.79,5.62,5.62,0,0,1,322.38,74.41Zm0-10.76a5.14,5.14,0,1,0,5.14,5.14A5.14,5.14,0,0,0,322.38,63.65Z" style="fill:#265CBE"></path><g style="opacity:0.6000000000000001"><path d="M324,81.49h-3.19a.66.66,0,0,1-.63-.58l-.31-2.84a.41.41,0,0,0-.25-.27,9.34,9.34,0,0,1-1.58-.64.53.53,0,0,0-.35-.07L315.32,79a.7.7,0,0,1-.89-.19l-2.05-2.05a.69.69,0,0,1-.19-.89l1.89-2.35a.53.53,0,0,0-.07-.35,10.3,10.3,0,0,1-.65-1.58.38.38,0,0,0-.26-.25L310.26,71a.66.66,0,0,1-.58-.63V67.19a.63.63,0,0,1,.54-.62l2.92-.32a.29.29,0,0,0,.2-.15,9.06,9.06,0,0,1,.75-1.82.55.55,0,0,0-.13-.36l-1.64-2a.7.7,0,0,1-.09-.9l2.34-2.34a.7.7,0,0,1,.9.08l2,1.64a.54.54,0,0,0,.36.14,9,9,0,0,1,1.81-.76.28.28,0,0,0,.16-.2l.32-2.91a.62.62,0,0,1,.62-.54H324a.64.64,0,0,1,.63.58l.31,2.83a.39.39,0,0,0,.26.27,9,9,0,0,1,1.57.65.54.54,0,0,0,.36.06l2.35-1.88a.7.7,0,0,1,.89.18l2.05,2a.7.7,0,0,1,.18.89l-1.89,2.36a.63.63,0,0,0,.07.35A9.79,9.79,0,0,1,331.4,66a.37.37,0,0,0,.27.26l2.83.31a.64.64,0,0,1,.58.62v3.19a.63.63,0,0,1-.54.62l-2.91.32a.28.28,0,0,0-.2.16,9.88,9.88,0,0,1-.76,1.82.54.54,0,0,0,.14.35l1.64,2a.68.68,0,0,1,.08.89l-2.34,2.35a.7.7,0,0,1-.9-.09l-2-1.64a.49.49,0,0,0-.36-.13,9.3,9.3,0,0,1-1.82.75.26.26,0,0,0-.15.2l-.32,2.91A.64.64,0,0,1,324,81.49Zm-6.24-4.9a1.15,1.15,0,0,1,.51.14,9.15,9.15,0,0,0,1.49.61.88.88,0,0,1,.6.68l.31,2.83a.16.16,0,0,0,.14.15H324a.13.13,0,0,0,.14-.11l.32-2.91a.75.75,0,0,1,.51-.61,9.21,9.21,0,0,0,1.72-.72.88.88,0,0,1,.89.18l2.05,1.64a.34.34,0,0,0,.27.11l2.32-2.33a.85.85,0,0,0-.12-.25l-1.64-2a.88.88,0,0,1-.18-.9,9.17,9.17,0,0,0,.71-1.72.75.75,0,0,1,.62-.5l2.91-.32a.14.14,0,0,0,.1-.14V67.19a.16.16,0,0,0-.14-.14l-2.84-.31a.84.84,0,0,1-.67-.59,8.94,8.94,0,0,0-.62-1.5.87.87,0,0,1,0-.88l1.89-2.35a.52.52,0,0,0-.15-.24l-2.05-2c-.12-.12-.22-.15-.26-.14l-2.33,1.88a.87.87,0,0,1-.88,0,8.94,8.94,0,0,0-1.5-.62.84.84,0,0,1-.59-.67l-.31-2.84a.17.17,0,0,0-.15-.14h-3.18a.14.14,0,0,0-.14.1l-.32,2.91a.75.75,0,0,1-.5.62,9.17,9.17,0,0,0-1.72.71.88.88,0,0,1-.9-.18l-2-1.64a.4.4,0,0,0-.27-.11l-2.32,2.33a.46.46,0,0,0,.12.25l1.64,2a.88.88,0,0,1,.18.89,9.21,9.21,0,0,0-.72,1.72.75.75,0,0,1-.61.51l-2.91.32a.13.13,0,0,0-.11.13v3.19a.16.16,0,0,0,.15.14l2.83.31a.88.88,0,0,1,.68.6,10.13,10.13,0,0,0,.61,1.49.85.85,0,0,1,0,.88l-1.89,2.36a.75.75,0,0,0,.15.24l2,2a.46.46,0,0,0,.26.14l2.34-1.88A.59.59,0,0,1,317.74,76.59Zm4.64-2.18A5.63,5.63,0,1,1,328,68.79,5.62,5.62,0,0,1,322.38,74.41Zm0-10.76a5.14,5.14,0,1,0,5.14,5.14A5.14,5.14,0,0,0,322.38,63.65Z" style="fill:#fff"></path></g><path d="M444.78,322.42h-3.19a.64.64,0,0,1-.62-.58l-.31-2.83a.39.39,0,0,0-.26-.27,8.83,8.83,0,0,1-1.57-.65.48.48,0,0,0-.36-.06l-2.35,1.88a.7.7,0,0,1-.89-.18l-2.05-2.05a.7.7,0,0,1-.18-.89l1.89-2.36a.63.63,0,0,0-.07-.35,9,9,0,0,1-.65-1.57.39.39,0,0,0-.27-.26l-2.83-.31a.64.64,0,0,1-.58-.62v-3.19a.63.63,0,0,1,.54-.62l2.91-.32a.26.26,0,0,0,.2-.16,9,9,0,0,1,.76-1.81.54.54,0,0,0-.14-.36l-1.64-2.05a.68.68,0,0,1-.08-.89l2.34-2.35a.7.7,0,0,1,.9.09l2,1.64a.48.48,0,0,0,.36.13,9.87,9.87,0,0,1,1.81-.75.27.27,0,0,0,.16-.2l.32-2.91a.63.63,0,0,1,.62-.54h3.19a.64.64,0,0,1,.62.57l.32,2.84a.41.41,0,0,0,.25.27,8.92,8.92,0,0,1,1.57.64.5.5,0,0,0,.36.07l2.35-1.89a.69.69,0,0,1,.89.19l2.05,2a.72.72,0,0,1,.19.89L451.49,305a.5.5,0,0,0,.07.36,8.92,8.92,0,0,1,.64,1.57.43.43,0,0,0,.27.26l2.84.31a.64.64,0,0,1,.57.62v3.19a.62.62,0,0,1-.54.62l-2.91.32a.29.29,0,0,0-.2.15,9.3,9.3,0,0,1-.75,1.82.49.49,0,0,0,.13.36l1.64,2a.7.7,0,0,1,.09.9L451,319.87a.68.68,0,0,1-.89-.08l-2.05-1.64a.53.53,0,0,0-.36-.14,9.52,9.52,0,0,1-1.81.76.28.28,0,0,0-.16.2l-.32,2.91A.63.63,0,0,1,444.78,322.42Zm-6.24-4.89a1.07,1.07,0,0,1,.51.13,9.3,9.3,0,0,0,1.5.62.84.84,0,0,1,.59.68l.31,2.83a.17.17,0,0,0,.14.15h3.19a.15.15,0,0,0,.14-.11l.32-2.91a.76.76,0,0,1,.5-.62,8.55,8.55,0,0,0,1.72-.71.88.88,0,0,1,.9.18l2,1.64a.5.5,0,0,0,.27.11l2.32-2.33a.52.52,0,0,0-.12-.25l-1.64-2.05a.88.88,0,0,1-.18-.89,9.21,9.21,0,0,0,.72-1.72.75.75,0,0,1,.61-.51l2.91-.31a.15.15,0,0,0,.11-.14v-3.19a.16.16,0,0,0-.15-.14l-2.83-.31a.86.86,0,0,1-.68-.6,9.19,9.19,0,0,0-.62-1.49.87.87,0,0,1,0-.88l1.89-2.36a.86.86,0,0,0-.15-.24l-2.05-2.05a.44.44,0,0,0-.27-.14l-2.33,1.88a.87.87,0,0,1-.88,0,9.19,9.19,0,0,0-1.49-.62.85.85,0,0,1-.6-.68l-.31-2.83a.16.16,0,0,0-.14-.15h-3.19a.13.13,0,0,0-.13.11l-.32,2.91a.75.75,0,0,1-.51.61,9.21,9.21,0,0,0-1.72.72.86.86,0,0,1-.89-.18L436,300a.35.35,0,0,0-.27-.11l-2.32,2.33a.75.75,0,0,0,.12.25l1.64,2a.88.88,0,0,1,.18.9,8.55,8.55,0,0,0-.71,1.72.75.75,0,0,1-.62.5l-2.91.32a.13.13,0,0,0-.1.14v3.19a.16.16,0,0,0,.14.14l2.84.31a.84.84,0,0,1,.67.59,8.94,8.94,0,0,0,.62,1.5.87.87,0,0,1,0,.88l-1.89,2.35a.52.52,0,0,0,.15.24l2.05,2.05a.4.4,0,0,0,.26.14l2.33-1.88A.58.58,0,0,1,438.54,317.53Zm4.65-2.18a5.63,5.63,0,1,1,5.62-5.63A5.64,5.64,0,0,1,443.19,315.35Zm0-10.76a5.14,5.14,0,1,0,5.13,5.13A5.14,5.14,0,0,0,443.19,304.59Z" style="fill:#265CBE"></path><g style="opacity:0.6000000000000001"><path d="M444.78,322.42h-3.19a.64.64,0,0,1-.62-.58l-.31-2.83a.39.39,0,0,0-.26-.27,8.83,8.83,0,0,1-1.57-.65.48.48,0,0,0-.36-.06l-2.35,1.88a.7.7,0,0,1-.89-.18l-2.05-2.05a.7.7,0,0,1-.18-.89l1.89-2.36a.63.63,0,0,0-.07-.35,9,9,0,0,1-.65-1.57.39.39,0,0,0-.27-.26l-2.83-.31a.64.64,0,0,1-.58-.62v-3.19a.63.63,0,0,1,.54-.62l2.91-.32a.26.26,0,0,0,.2-.16,9,9,0,0,1,.76-1.81.54.54,0,0,0-.14-.36l-1.64-2.05a.68.68,0,0,1-.08-.89l2.34-2.35a.7.7,0,0,1,.9.09l2,1.64a.48.48,0,0,0,.36.13,9.87,9.87,0,0,1,1.81-.75.27.27,0,0,0,.16-.2l.32-2.91a.63.63,0,0,1,.62-.54h3.19a.64.64,0,0,1,.62.57l.32,2.84a.41.41,0,0,0,.25.27,8.92,8.92,0,0,1,1.57.64.5.5,0,0,0,.36.07l2.35-1.89a.69.69,0,0,1,.89.19l2.05,2a.72.72,0,0,1,.19.89L451.49,305a.5.5,0,0,0,.07.36,8.92,8.92,0,0,1,.64,1.57.43.43,0,0,0,.27.26l2.84.31a.64.64,0,0,1,.57.62v3.19a.62.62,0,0,1-.54.62l-2.91.32a.29.29,0,0,0-.2.15,9.3,9.3,0,0,1-.75,1.82.49.49,0,0,0,.13.36l1.64,2a.7.7,0,0,1,.09.9L451,319.87a.68.68,0,0,1-.89-.08l-2.05-1.64a.53.53,0,0,0-.36-.14,9.52,9.52,0,0,1-1.81.76.28.28,0,0,0-.16.2l-.32,2.91A.63.63,0,0,1,444.78,322.42Zm-6.24-4.89a1.07,1.07,0,0,1,.51.13,9.3,9.3,0,0,0,1.5.62.84.84,0,0,1,.59.68l.31,2.83a.17.17,0,0,0,.14.15h3.19a.15.15,0,0,0,.14-.11l.32-2.91a.76.76,0,0,1,.5-.62,8.55,8.55,0,0,0,1.72-.71.88.88,0,0,1,.9.18l2,1.64a.5.5,0,0,0,.27.11l2.32-2.33a.52.52,0,0,0-.12-.25l-1.64-2.05a.88.88,0,0,1-.18-.89,9.21,9.21,0,0,0,.72-1.72.75.75,0,0,1,.61-.51l2.91-.31a.15.15,0,0,0,.11-.14v-3.19a.16.16,0,0,0-.15-.14l-2.83-.31a.86.86,0,0,1-.68-.6,9.19,9.19,0,0,0-.62-1.49.87.87,0,0,1,0-.88l1.89-2.36a.86.86,0,0,0-.15-.24l-2.05-2.05a.44.44,0,0,0-.27-.14l-2.33,1.88a.87.87,0,0,1-.88,0,9.19,9.19,0,0,0-1.49-.62.85.85,0,0,1-.6-.68l-.31-2.83a.16.16,0,0,0-.14-.15h-3.19a.13.13,0,0,0-.13.11l-.32,2.91a.75.75,0,0,1-.51.61,9.21,9.21,0,0,0-1.72.72.86.86,0,0,1-.89-.18L436,300a.35.35,0,0,0-.27-.11l-2.32,2.33a.75.75,0,0,0,.12.25l1.64,2a.88.88,0,0,1,.18.9,8.55,8.55,0,0,0-.71,1.72.75.75,0,0,1-.62.5l-2.91.32a.13.13,0,0,0-.1.14v3.19a.16.16,0,0,0,.14.14l2.84.31a.84.84,0,0,1,.67.59,8.94,8.94,0,0,0,.62,1.5.87.87,0,0,1,0,.88l-1.89,2.35a.52.52,0,0,0,.15.24l2.05,2.05a.4.4,0,0,0,.26.14l2.33-1.88A.58.58,0,0,1,438.54,317.53Zm4.65-2.18a5.63,5.63,0,1,1,5.62-5.63A5.64,5.64,0,0,1,443.19,315.35Zm0-10.76a5.14,5.14,0,1,0,5.13,5.13A5.14,5.14,0,0,0,443.19,304.59Z" style="fill:#fff"></path></g></g></g><g id="freepik--gears-1--inject-63"><g id="freepik--Gear--inject-63"><path d="M251.31,403.82h0l4.44,8.43h0a.91.91,0,0,0,.72.44l6.13.88a2.45,2.45,0,0,1-.88,1.06l-12.53,7.6a1.47,1.47,0,0,0-.54,1.92l3.78,7.23s0,0,0,0l4.41,8.39a1.48,1.48,0,0,0,1.89.66l13.39-5.95a2.31,2.31,0,0,1,1.34-.12l-2.79,5.55a.9.9,0,0,0-.05.85h0l4.45,8.45h0a.92.92,0,0,0,.79.41l12.66.53a3,3,0,0,0,2.2-1l7.48-9.72a4,4,0,0,1,2.18-1.31,68.31,68.31,0,0,0,8.61-2.18,2.08,2.08,0,0,1,2.15.64l4.62,5.85a1.73,1.73,0,0,0,2.07.44l14.3-7.48a1.71,1.71,0,0,0,.82-1.94l-2.17-7.14a2.11,2.11,0,0,1,.71-2.13,66.27,66.27,0,0,0,6.7-5.82,4.09,4.09,0,0,1,2.33-1.05l12.24-.58a2.94,2.94,0,0,0,2.1-1.22l6.8-10.7a.89.89,0,0,0,.1-.9h0l-4.44-8.43h0a.94.94,0,0,0-.73-.44l-6.12-.88a2.45,2.45,0,0,1,.88-1.06l12.53-7.6a1.47,1.47,0,0,0,.54-1.92l-5.32-10.13h0l-2.88-5.51a1.49,1.49,0,0,0-1.89-.66l-13.39,6a2.39,2.39,0,0,1-1.34.11l2.79-5.55a.92.92,0,0,0,.05-.86h0L338,358.51h0a.87.87,0,0,0-.8-.42l-12.66-.54a3,3,0,0,0-2.21,1l-7.47,9.72a4.12,4.12,0,0,1-2.18,1.32,65,65,0,0,0-8.61,2.18,2.12,2.12,0,0,1-2.15-.64l-4.63-5.86a1.72,1.72,0,0,0-2.06-.44L281,372.34a1.71,1.71,0,0,0-.82,1.94l2.16,7.14a2.1,2.1,0,0,1-.7,2.13,66.43,66.43,0,0,0-6.7,5.82,4.09,4.09,0,0,1-2.33,1.05l-12.24.58a3,3,0,0,0-2.11,1.22l-6.79,10.7A.91.91,0,0,0,251.31,403.82Zm74.41-3.26c-6.34,10-21.05,17.67-32.86,17.17-4.62-.19-8.11-1.62-10.27-3.87-.15-2.67.91-5.92,3.24-9.58,6.34-10,21.05-17.68,32.86-17.18,4.62.2,7.9,1.39,9.81,3.35C328.92,393.4,328.06,396.88,325.72,400.56Z" style="fill:#265CBE"></path><path d="M251.31,403.82h0l4.44,8.43h0a.91.91,0,0,0,.72.44l6.13.88a2.45,2.45,0,0,1-.88,1.06l-12.53,7.6a1.47,1.47,0,0,0-.54,1.92l3.78,7.23s0,0,0,0l4.41,8.39a1.48,1.48,0,0,0,1.89.66l13.39-5.95a2.31,2.31,0,0,1,1.34-.12l-2.79,5.55a.9.9,0,0,0-.05.85h0l4.45,8.45h0a.92.92,0,0,0,.79.41l12.66.53a3,3,0,0,0,2.2-1l7.48-9.72a4,4,0,0,1,2.18-1.31,68.31,68.31,0,0,0,8.61-2.18,2.08,2.08,0,0,1,2.15.64l4.62,5.85a1.73,1.73,0,0,0,2.07.44l14.3-7.48a1.71,1.71,0,0,0,.82-1.94l-2.17-7.14a2.11,2.11,0,0,1,.71-2.13,66.27,66.27,0,0,0,6.7-5.82,4.09,4.09,0,0,1,2.33-1.05l12.24-.58a2.94,2.94,0,0,0,2.1-1.22l6.8-10.7a.89.89,0,0,0,.1-.9h0l-4.44-8.43h0a.94.94,0,0,0-.73-.44l-6.12-.88a2.45,2.45,0,0,1,.88-1.06l12.53-7.6a1.47,1.47,0,0,0,.54-1.92l-5.32-10.13h0l-2.88-5.51a1.49,1.49,0,0,0-1.89-.66l-13.39,6a2.39,2.39,0,0,1-1.34.11l2.79-5.55a.92.92,0,0,0,.05-.86h0L338,358.51h0a.87.87,0,0,0-.8-.42l-12.66-.54a3,3,0,0,0-2.21,1l-7.47,9.72a4.12,4.12,0,0,1-2.18,1.32,65,65,0,0,0-8.61,2.18,2.12,2.12,0,0,1-2.15-.64l-4.63-5.86a1.72,1.72,0,0,0-2.06-.44L281,372.34a1.71,1.71,0,0,0-.82,1.94l2.16,7.14a2.1,2.1,0,0,1-.7,2.13,66.43,66.43,0,0,0-6.7,5.82,4.09,4.09,0,0,1-2.33,1.05l-12.24.58a3,3,0,0,0-2.11,1.22l-6.79,10.7A.91.91,0,0,0,251.31,403.82Zm74.41-3.26c-6.34,10-21.05,17.67-32.86,17.17-4.62-.19-8.11-1.62-10.27-3.87-.15-2.67.91-5.92,3.24-9.58,6.34-10,21.05-17.68,32.86-17.18,4.62.2,7.9,1.39,9.81,3.35C328.92,393.4,328.06,396.88,325.72,400.56Z" style="fill:#fff;opacity:0.2"></path><path d="M345,392a1.16,1.16,0,0,0,1,1.51l4.46.64a2.42,2.42,0,0,1,.9-1.06l12.53-7.6a1.48,1.48,0,0,0,.54-1.93l-5.32-10.12.89,1.71a1.48,1.48,0,0,1-.53,1.92l-12.54,7.59a2.74,2.74,0,0,0-1.14,2.09A22.19,22.19,0,0,1,345,392Zm-7-33.41a1.08,1.08,0,0,1-.09.77l-4.81,9.57a1.15,1.15,0,0,0,.68,1.66A22,22,0,0,1,338.6,373a2.71,2.71,0,0,0,1,.37l2.79-5.56a.9.9,0,0,0,.05-.85h0Z" style="opacity:0.1"></path><path d="M282.94,398.76c6.34-10,21.05-17.68,32.86-17.18,7.47.31,12,3.82,12.71,8.88-1.9-2-5.19-3.16-9.82-3.36-11.82-.5-26.52,7.2-32.86,17.18-2.32,3.65-3.4,6.9-3.25,9.58C279.21,410.36,279.09,404.83,282.94,398.76Z" style="opacity:0.1"></path><path d="M256.86,439.81a1.46,1.46,0,0,0,1.88.64l13.4-5.94a1.9,1.9,0,0,1,.73-.15l-4.43-8.44a1.83,1.83,0,0,0-.74.17l-13.39,6a1.48,1.48,0,0,1-1.78-.5Zm-1.11-27.55h0a1,1,0,0,0,.73.45l6.13.87a2.77,2.77,0,0,0,.25-1,21.52,21.52,0,0,1,.71-5,1,1,0,0,1,.05-.24,1.48,1.48,0,0,0,0-.59c0-.06,0-.12,0-.18a1.26,1.26,0,0,0-.18-.32,1.16,1.16,0,0,0-.5-.35.71.71,0,0,0-.27-.07L252,404.27a1,1,0,0,1-.25-.06.56.56,0,0,1-.29-.17.5.5,0,0,1-.18-.23h0Zm19.33,37a.87.87,0,0,0,.79.4l12.66.54a2.9,2.9,0,0,0,1.64-.53l-4.42-8.42a2.88,2.88,0,0,1-1.64.53l-12.67-.53a1,1,0,0,1-.77-.36Zm64.36-31.65a3.52,3.52,0,0,1,1.08-.28l12.25-.58a2.89,2.89,0,0,0,1-.29l-4.42-8.4a2.45,2.45,0,0,1-1,.27l-12.24.58a3.49,3.49,0,0,0-1.1.28ZM316.21,442.8a1.74,1.74,0,0,0,1.63.07l14.3-7.47a1.64,1.64,0,0,0,.7-.77l-4.42-8.43a1.63,1.63,0,0,1-.71.78l-14.31,7.47a1.69,1.69,0,0,1-1.53,0Z" style="fill:#265CBE"></path><path d="M256.86,439.81a1.46,1.46,0,0,0,1.88.64l13.4-5.94a1.9,1.9,0,0,1,.73-.15l-4.43-8.44a1.83,1.83,0,0,0-.74.17l-13.39,6a1.48,1.48,0,0,1-1.78-.5Zm-1.11-27.55h0a1,1,0,0,0,.73.45l6.13.87a2.77,2.77,0,0,0,.25-1,21.52,21.52,0,0,1,.71-5,1,1,0,0,1,.05-.24,1.48,1.48,0,0,0,0-.59c0-.06,0-.12,0-.18a1.26,1.26,0,0,0-.18-.32,1.16,1.16,0,0,0-.5-.35.71.71,0,0,0-.27-.07L252,404.27a1,1,0,0,1-.25-.06.56.56,0,0,1-.29-.17.5.5,0,0,1-.18-.23h0Zm19.33,37a.87.87,0,0,0,.79.4l12.66.54a2.9,2.9,0,0,0,1.64-.53l-4.42-8.42a2.88,2.88,0,0,1-1.64.53l-12.67-.53a1,1,0,0,1-.77-.36Zm64.36-31.65a3.52,3.52,0,0,1,1.08-.28l12.25-.58a2.89,2.89,0,0,0,1-.29l-4.42-8.4a2.45,2.45,0,0,1-1,.27l-12.24.58a3.49,3.49,0,0,0-1.1.28ZM316.21,442.8a1.74,1.74,0,0,0,1.63.07l14.3-7.47a1.64,1.64,0,0,0,.7-.77l-4.42-8.43a1.63,1.63,0,0,1-.71.78l-14.31,7.47a1.69,1.69,0,0,1-1.53,0Z" style="fill:#fff;opacity:0.7000000000000001"></path><path d="M258.21,392.22l-6.79,10.7a.82.82,0,0,0,.62,1.35l10.61,1.52a1.16,1.16,0,0,1,1,1.51,22.2,22.2,0,0,0-.76,5.26,2.67,2.67,0,0,1-1.14,2.07l-12.53,7.6a1.47,1.47,0,0,0-.54,1.92l3.78,7.23a1.48,1.48,0,0,0,1.89.66l13.39-6a2.7,2.7,0,0,1,2.36.24,21.44,21.44,0,0,0,4.74,2.38,1.16,1.16,0,0,1,.69,1.66l-4.81,9.57a.82.82,0,0,0,.75,1.29l12.66.53a3,3,0,0,0,2.2-1l7.48-9.72A4,4,0,0,1,296,429.7a68.31,68.31,0,0,0,8.61-2.18,2.08,2.08,0,0,1,2.15.64l4.63,5.85a1.72,1.72,0,0,0,2.06.44l14.3-7.48a1.71,1.71,0,0,0,.82-1.94l-2.16-7.14a2.1,2.1,0,0,1,.7-2.13,65.19,65.19,0,0,0,6.7-5.82,4.09,4.09,0,0,1,2.33-1.05l12.24-.58a2.94,2.94,0,0,0,2.1-1.22l6.8-10.7a.82.82,0,0,0-.63-1.35L346,393.52a1.16,1.16,0,0,1-1-1.51,22.12,22.12,0,0,0,.76-5.25,2.68,2.68,0,0,1,1.14-2.08l12.53-7.6a1.47,1.47,0,0,0,.54-1.92l-3.78-7.23a1.49,1.49,0,0,0-1.89-.66l-13.39,6a2.73,2.73,0,0,1-2.36-.25,21.44,21.44,0,0,0-4.74-2.38,1.16,1.16,0,0,1-.69-1.66l4.81-9.57a.81.81,0,0,0-.75-1.28l-12.66-.54a3,3,0,0,0-2.21,1l-7.47,9.72a4.12,4.12,0,0,1-2.18,1.32,65,65,0,0,0-8.61,2.18,2.12,2.12,0,0,1-2.15-.64l-4.63-5.86a1.72,1.72,0,0,0-2.06-.44L281,372.34a1.71,1.71,0,0,0-.82,1.94l2.16,7.14a2.1,2.1,0,0,1-.7,2.13,66.43,66.43,0,0,0-6.7,5.82,4.09,4.09,0,0,1-2.33,1.05l-12.24.58A3,3,0,0,0,258.21,392.22Zm57.59-10.64c11.82.5,16.26,9,9.92,19s-21.05,17.67-32.86,17.17-16.26-9-9.92-19S304,381.08,315.8,381.58Z" style="fill:#265CBE"></path><path d="M258.21,392.22l-6.79,10.7a.82.82,0,0,0,.62,1.35l10.61,1.52a1.16,1.16,0,0,1,1,1.51,22.2,22.2,0,0,0-.76,5.26,2.67,2.67,0,0,1-1.14,2.07l-12.53,7.6a1.47,1.47,0,0,0-.54,1.92l3.78,7.23a1.48,1.48,0,0,0,1.89.66l13.39-6a2.7,2.7,0,0,1,2.36.24,21.44,21.44,0,0,0,4.74,2.38,1.16,1.16,0,0,1,.69,1.66l-4.81,9.57a.82.82,0,0,0,.75,1.29l12.66.53a3,3,0,0,0,2.2-1l7.48-9.72A4,4,0,0,1,296,429.7a68.31,68.31,0,0,0,8.61-2.18,2.08,2.08,0,0,1,2.15.64l4.63,5.85a1.72,1.72,0,0,0,2.06.44l14.3-7.48a1.71,1.71,0,0,0,.82-1.94l-2.16-7.14a2.1,2.1,0,0,1,.7-2.13,65.19,65.19,0,0,0,6.7-5.82,4.09,4.09,0,0,1,2.33-1.05l12.24-.58a2.94,2.94,0,0,0,2.1-1.22l6.8-10.7a.82.82,0,0,0-.63-1.35L346,393.52a1.16,1.16,0,0,1-1-1.51,22.12,22.12,0,0,0,.76-5.25,2.68,2.68,0,0,1,1.14-2.08l12.53-7.6a1.47,1.47,0,0,0,.54-1.92l-3.78-7.23a1.49,1.49,0,0,0-1.89-.66l-13.39,6a2.73,2.73,0,0,1-2.36-.25,21.44,21.44,0,0,0-4.74-2.38,1.16,1.16,0,0,1-.69-1.66l4.81-9.57a.81.81,0,0,0-.75-1.28l-12.66-.54a3,3,0,0,0-2.21,1l-7.47,9.72a4.12,4.12,0,0,1-2.18,1.32,65,65,0,0,0-8.61,2.18,2.12,2.12,0,0,1-2.15-.64l-4.63-5.86a1.72,1.72,0,0,0-2.06-.44L281,372.34a1.71,1.71,0,0,0-.82,1.94l2.16,7.14a2.1,2.1,0,0,1-.7,2.13,66.43,66.43,0,0,0-6.7,5.82,4.09,4.09,0,0,1-2.33,1.05l-12.24.58A3,3,0,0,0,258.21,392.22Zm57.59-10.64c11.82.5,16.26,9,9.92,19s-21.05,17.67-32.86,17.17-16.26-9-9.92-19S304,381.08,315.8,381.58Z" style="fill:#fff;opacity:0.55"></path><g style="opacity:0.55"><path d="M253.43,431.14a.55.55,0,0,1-.18-.19l-3.78-7.23a.56.56,0,0,1,.2-.7l12.53-7.59a3.57,3.57,0,0,0,1.59-2.86,21,21,0,0,1,.73-5,2.11,2.11,0,0,0-.87-2.36,2.32,2.32,0,0,0-.87-.31l-10.53-1.51L259,392.72a2.06,2.06,0,0,1,1.36-.79l12.25-.58a5,5,0,0,0,2.94-1.32,64.38,64.38,0,0,1,6.61-5.74,3,3,0,0,0,1-3.14L281,374a.8.8,0,0,1,.36-.85l14.3-7.47a.78.78,0,0,1,.75.06.49.49,0,0,1,.15.13l4.63,5.85a2.54,2.54,0,0,0,.67.59,3,3,0,0,0,2.5.36,64.69,64.69,0,0,1,8.48-2.15,5,5,0,0,0,2.76-1.66l7.47-9.72a2.06,2.06,0,0,1,1.43-.67l12.59.53-4.78,9.51a2.08,2.08,0,0,0,.74,2.73,2.15,2.15,0,0,0,.46.22,21.22,21.22,0,0,1,4.14,2l.41.26.06,0a3.65,3.65,0,0,0,3.19.29l13.39-6a.55.55,0,0,1,.51.05.65.65,0,0,1,.18.19l3.78,7.23a.55.55,0,0,1-.2.7l-12.53,7.59a3.57,3.57,0,0,0-1.59,2.86,21,21,0,0,1-.73,5,2.09,2.09,0,0,0,.87,2.36,2.16,2.16,0,0,0,.87.31L356.41,396l-6.75,10.64a2.06,2.06,0,0,1-1.36.79l-12.25.58a5.08,5.08,0,0,0-2.94,1.32A64.38,64.38,0,0,1,326.5,415a3,3,0,0,0-1,3.14l2.16,7.14a.8.8,0,0,1-.36.85L313,433.62a.78.78,0,0,1-.75-.06.38.38,0,0,1-.15-.13l-4.63-5.85a2.54,2.54,0,0,0-.67-.59,3,3,0,0,0-2.5-.36,64.69,64.69,0,0,1-8.48,2.15,5,5,0,0,0-2.76,1.66l-7.47,9.72a2.06,2.06,0,0,1-1.43.67l-12.59-.53,4.78-9.51a2.08,2.08,0,0,0-.75-2.73,2.35,2.35,0,0,0-.45-.22,21.78,21.78,0,0,1-4.14-2l-.41-.27-.06,0a3.61,3.61,0,0,0-3.19-.28l-13.39,5.95a.55.55,0,0,1-.51-.05h0m71.22-48a17.59,17.59,0,0,0-8.81-2.45c-12.09-.51-27.2,7.39-33.69,17.61-2.28,3.6-3.31,7.18-3,10.37a10.05,10.05,0,0,0,4.82,7.59,17.69,17.69,0,0,0,8.81,2.44c12.09.51,27.2-7.39,33.69-17.61,4.61-7.26,3.88-14.31-1.86-17.95m-71.72,48.83a1.52,1.52,0,0,0,1.39.11l13.39-6a2.69,2.69,0,0,1,2.31.22l.05,0,.42.28a22.21,22.21,0,0,0,4.32,2.1,1.47,1.47,0,0,1,.28.14,1.14,1.14,0,0,1,.41,1.52l-4.81,9.57a.82.82,0,0,0,.2,1.13,1.12,1.12,0,0,0,.55.16l12.66.53a3,3,0,0,0,2.2-1l7.48-9.72A4,4,0,0,1,296,429.7a68.31,68.31,0,0,0,8.61-2.18,2.08,2.08,0,0,1,1.71.25,1.84,1.84,0,0,1,.44.39l4.63,5.85a1.38,1.38,0,0,0,.38.34,1.73,1.73,0,0,0,1.68.1l14.3-7.48a1.71,1.71,0,0,0,.82-1.94l-2.16-7.14a2.1,2.1,0,0,1,.7-2.13,65.19,65.19,0,0,0,6.7-5.82,4.09,4.09,0,0,1,2.33-1.05l12.24-.58a2.94,2.94,0,0,0,2.1-1.22l6.8-10.7a.81.81,0,0,0-.16-1.19,1.09,1.09,0,0,0-.47-.16L346,393.52a1.29,1.29,0,0,1-.5-.18A1.17,1.17,0,0,1,345,392a22.12,22.12,0,0,0,.76-5.25,2.68,2.68,0,0,1,1.14-2.08l12.53-7.6a1.47,1.47,0,0,0,.54-1.92l-3.78-7.23a1.45,1.45,0,0,0-.5-.54,1.49,1.49,0,0,0-1.39-.12l-13.39,6a2.72,2.72,0,0,1-2.32-.23l0,0c-.13-.1-.28-.19-.42-.28a22.21,22.21,0,0,0-4.32-2.1l-.28-.13a1.16,1.16,0,0,1-.41-1.53l4.81-9.57a.82.82,0,0,0-.2-1.13,1,1,0,0,0-.55-.15l-12.66-.54a3,3,0,0,0-2.21,1l-7.47,9.72a4.12,4.12,0,0,1-2.18,1.32,65,65,0,0,0-8.61,2.18,2.15,2.15,0,0,1-1.72-.26,2.25,2.25,0,0,1-.43-.38l-4.63-5.86a1.38,1.38,0,0,0-.38-.34,1.73,1.73,0,0,0-1.68-.1L281,372.34a1.71,1.71,0,0,0-.82,1.94l2.16,7.14a2.1,2.1,0,0,1-.7,2.13,66.43,66.43,0,0,0-6.7,5.82,4.09,4.09,0,0,1-2.33,1.05l-12.24.58a3,3,0,0,0-2.11,1.22l-6.79,10.7a.81.81,0,0,0,.16,1.19,1.09,1.09,0,0,0,.46.16l10.61,1.52a1.29,1.29,0,0,1,.5.18,1.17,1.17,0,0,1,.47,1.33,22.2,22.2,0,0,0-.76,5.26,2.67,2.67,0,0,1-1.14,2.07l-12.53,7.6a1.47,1.47,0,0,0-.54,1.92l3.78,7.23a1.56,1.56,0,0,0,.5.55Zm71.22-48.05c5.14,3.26,6.07,9.59,1.57,16.68-6.34,10-21.05,17.67-32.86,17.17a16.7,16.7,0,0,1-8.35-2.3c-5.14-3.26-6.07-9.59-1.57-16.67,6.34-10,21.05-17.68,32.86-17.18a16.91,16.91,0,0,1,8.35,2.3Z" style="fill:#fff"></path></g></g><g id="freepik--gear--inject-63"><path d="M166.92,381.58a5.27,5.27,0,0,1-3.15-.52l-6.77-4a3.5,3.5,0,0,0-3-.1l-5.72,2.86a1.2,1.2,0,0,0-.68.79h0l-1.79,7.7h0a1.07,1.07,0,0,0,.45,1.11l2.28,1.9-6.9-.41a1.42,1.42,0,0,0-1.53,1.15l0,0-1.8,7.7h0a1.87,1.87,0,0,0,0,.48l.33,4.45a2.35,2.35,0,0,0,1.81,2l8.65,1.66a4.06,4.06,0,0,1,1.91,1.12l-.54.36a1.34,1.34,0,0,0-.57.75h0L148,418.32h0a1.14,1.14,0,0,0,.54,1.19l6.8,4.75a3.63,3.63,0,0,0,3,.39l5.83-2.17a4.92,4.92,0,0,1,3.17.1c1.53.65,3.11,1.23,4.71,1.74a3.34,3.34,0,0,1,2.06,2.15l1,4.07a2.69,2.69,0,0,0,2.11,1.88l9.6,1.21a1.67,1.67,0,0,0,1.84-1.26h0l1.22-5.23a2.09,2.09,0,0,1,1.12-.45,38.85,38.85,0,0,0,4.25-.53,5.36,5.36,0,0,1,3.15.53l6.76,4a3.49,3.49,0,0,0,3,.1l5.71-2.86a1.18,1.18,0,0,0,.67-.75h0l1.81-7.75h0a1.13,1.13,0,0,0-.46-1.1l-2.28-1.9,6.91.42a1.45,1.45,0,0,0,1.52-1.07h0L224,408h0a1.46,1.46,0,0,0,.06-.52l-.33-4.45a2.37,2.37,0,0,0-1.8-2l-8.66-1.66a4,4,0,0,1-1.91-1.12l.54-.36a1.24,1.24,0,0,0,.57-.76h0l1.78-7.66h0l0-.09h0a1.12,1.12,0,0,0-.55-1.14l-6.8-4.76a3.66,3.66,0,0,0-3-.38L198,385.27a4.86,4.86,0,0,1-3.17-.11c-1.53-.65-3.11-1.23-4.71-1.73a3.41,3.41,0,0,1-2.06-2.15l-1-4.08a2.68,2.68,0,0,0-2.12-1.87l-9.6-1.22a1.69,1.69,0,0,0-1.89,1.49l-.4,3.66a2.1,2.1,0,0,1-1.9,1.79A38.36,38.36,0,0,0,166.92,381.58Zm28.45,27.76c-6.74,3.38-18.18,1.93-25.55-3.22A14.26,14.26,0,0,1,164.5,400a11.16,11.16,0,0,1,2.38-1.57c6.73-3.38,18.17-1.93,25.54,3.22a14.35,14.35,0,0,1,5.32,6.14A10.89,10.89,0,0,1,195.37,409.34Z" style="fill:#265CBE"></path><path d="M166.92,381.58a5.27,5.27,0,0,1-3.15-.52l-6.77-4a3.5,3.5,0,0,0-3-.1l-5.72,2.86a1.2,1.2,0,0,0-.68.79h0l-1.79,7.7h0a1.07,1.07,0,0,0,.45,1.11l2.28,1.9-6.9-.41a1.42,1.42,0,0,0-1.53,1.15l0,0-1.8,7.7h0a1.87,1.87,0,0,0,0,.48l.33,4.45a2.35,2.35,0,0,0,1.81,2l8.65,1.66a4.06,4.06,0,0,1,1.91,1.12l-.54.36a1.34,1.34,0,0,0-.57.75h0L148,418.32h0a1.14,1.14,0,0,0,.54,1.19l6.8,4.75a3.63,3.63,0,0,0,3,.39l5.83-2.17a4.92,4.92,0,0,1,3.17.1c1.53.65,3.11,1.23,4.71,1.74a3.34,3.34,0,0,1,2.06,2.15l1,4.07a2.69,2.69,0,0,0,2.11,1.88l9.6,1.21a1.67,1.67,0,0,0,1.84-1.26h0l1.22-5.23a2.09,2.09,0,0,1,1.12-.45,38.85,38.85,0,0,0,4.25-.53,5.36,5.36,0,0,1,3.15.53l6.76,4a3.49,3.49,0,0,0,3,.1l5.71-2.86a1.18,1.18,0,0,0,.67-.75h0l1.81-7.75h0a1.13,1.13,0,0,0-.46-1.1l-2.28-1.9,6.91.42a1.45,1.45,0,0,0,1.52-1.07h0L224,408h0a1.46,1.46,0,0,0,.06-.52l-.33-4.45a2.37,2.37,0,0,0-1.8-2l-8.66-1.66a4,4,0,0,1-1.91-1.12l.54-.36a1.24,1.24,0,0,0,.57-.76h0l1.78-7.66h0l0-.09h0a1.12,1.12,0,0,0-.55-1.14l-6.8-4.76a3.66,3.66,0,0,0-3-.38L198,385.27a4.86,4.86,0,0,1-3.17-.11c-1.53-.65-3.11-1.23-4.71-1.73a3.41,3.41,0,0,1-2.06-2.15l-1-4.08a2.68,2.68,0,0,0-2.12-1.87l-9.6-1.22a1.69,1.69,0,0,0-1.89,1.49l-.4,3.66a2.1,2.1,0,0,1-1.9,1.79A38.36,38.36,0,0,0,166.92,381.58Zm28.45,27.76c-6.74,3.38-18.18,1.93-25.55-3.22A14.26,14.26,0,0,1,164.5,400a11.16,11.16,0,0,1,2.38-1.57c6.73-3.38,18.17-1.93,25.54,3.22a14.35,14.35,0,0,1,5.32,6.14A10.89,10.89,0,0,1,195.37,409.34Z" style="fill:#fff;opacity:0.2"></path><path d="M210.51,411.52a1.66,1.66,0,0,0,.16,2.37l3,2.53,6.91.42a1.45,1.45,0,0,0,1.52-1.07l1.78-7.64a1.44,1.44,0,0,1-1.5,1l-8.48-.52a2.93,2.93,0,0,0-2.44,1.44A10.83,10.83,0,0,1,210.51,411.52Zm3.69-22.1a1.23,1.23,0,0,1-.56.75L209.38,393a1.5,1.5,0,0,0-.3,2.25,18,18,0,0,1,1.63,2.31,3.62,3.62,0,0,0,.58.71l.55-.37a1.32,1.32,0,0,0,.56-.76h0Z" style="opacity:0.1"></path><path d="M194.22,393.9c6.36,4.45,7.62,10.2,3.51,13.85a14.3,14.3,0,0,0-5.31-6.13c-7.37-5.16-18.8-6.61-25.55-3.23a10.63,10.63,0,0,0-2.36,1.57c-1.45-3.61-.09-7.16,4.16-9.29C175.42,387.29,186.85,388.74,194.22,393.9Z" style="opacity:0.1"></path><path d="M173.57,425.38a2.92,2.92,0,0,1,.59,1.07l1,4.08a2.62,2.62,0,0,0,1.11,1.48l1.8-7.72a2.7,2.7,0,0,1-1.11-1.48l-1-4.08a2.9,2.9,0,0,0-.57-1.08ZM148,418.32a1.09,1.09,0,0,0,.54,1.17l6.8,4.77a3.62,3.62,0,0,0,2,.53l1.8-7.72a3.48,3.48,0,0,1-1.95-.54l-6.79-4.75a1.13,1.13,0,0,1-.54-1.19h0Zm50.52,8.4,6.68,3.95a3.35,3.35,0,0,0,1.83.37l1.79-7.7A3.39,3.39,0,0,1,207,423L200.37,419Zm-60.27-27a1.13,1.13,0,0,0,0,.49l.32,4.44a2.36,2.36,0,0,0,1.81,2l8.65,1.66a3.55,3.55,0,0,1,1.27.59l1.8-7.73a3.52,3.52,0,0,0-1.27-.58L142.19,399a2.34,2.34,0,0,1-1.81-2l-.32-4.45a2.43,2.43,0,0,1,0-.47Zm7.5-11.44h0a1.13,1.13,0,0,0,.45,1.12l2.29,1.89,1.56.11a2.89,2.89,0,0,0,2.45-1.46,10.52,10.52,0,0,1,1-1.47,3.85,3.85,0,0,0,.23-.38l.11-.3a1.66,1.66,0,0,0,.05-.62,1.46,1.46,0,0,0-.26-.72,1,1,0,0,0-.3-.35l-5.31-4.43a2,2,0,0,1-.32-.35,1,1,0,0,1-.17-.46,1.31,1.31,0,0,1,0-.28Z" style="fill:#265CBE"></path><path d="M173.57,425.38a2.92,2.92,0,0,1,.59,1.07l1,4.08a2.62,2.62,0,0,0,1.11,1.48l1.8-7.72a2.7,2.7,0,0,1-1.11-1.48l-1-4.08a2.9,2.9,0,0,0-.57-1.08ZM148,418.32a1.09,1.09,0,0,0,.54,1.17l6.8,4.77a3.62,3.62,0,0,0,2,.53l1.8-7.72a3.48,3.48,0,0,1-1.95-.54l-6.79-4.75a1.13,1.13,0,0,1-.54-1.19h0Zm50.52,8.4,6.68,3.95a3.35,3.35,0,0,0,1.83.37l1.79-7.7A3.39,3.39,0,0,1,207,423L200.37,419Zm-60.27-27a1.13,1.13,0,0,0,0,.49l.32,4.44a2.36,2.36,0,0,0,1.81,2l8.65,1.66a3.55,3.55,0,0,1,1.27.59l1.8-7.73a3.52,3.52,0,0,0-1.27-.58L142.19,399a2.34,2.34,0,0,1-1.81-2l-.32-4.45a2.43,2.43,0,0,1,0-.47Zm7.5-11.44h0a1.13,1.13,0,0,0,.45,1.12l2.29,1.89,1.56.11a2.89,2.89,0,0,0,2.45-1.46,10.52,10.52,0,0,1,1-1.47,3.85,3.85,0,0,0,.23-.38l.11-.3a1.66,1.66,0,0,0,.05-.62,1.46,1.46,0,0,0-.26-.72,1,1,0,0,0-.3-.35l-5.31-4.43a2,2,0,0,1-.32-.35,1,1,0,0,1-.17-.46,1.31,1.31,0,0,1,0-.28Z" style="fill:#fff;opacity:0.7000000000000001"></path><path d="M154,377l-5.72,2.86a1,1,0,0,0-.22,1.87l5.31,4.43a1.67,1.67,0,0,1,.17,2.37,12.61,12.61,0,0,0-1,1.47,2.85,2.85,0,0,1-2.44,1.45l-8.47-.51a1.46,1.46,0,0,0-1.59,1.6l.33,4.45a2.36,2.36,0,0,0,1.81,2l8.65,1.66a4.31,4.31,0,0,1,2.5,1.83,23.16,23.16,0,0,0,1.62,2.31,1.47,1.47,0,0,1-.3,2.24l-4.25,2.82a1.09,1.09,0,0,0,0,1.93l6.8,4.76a3.64,3.64,0,0,0,3,.39l5.83-2.17a4.92,4.92,0,0,1,3.17.1,50.06,50.06,0,0,0,4.72,1.73,3.39,3.39,0,0,1,2.05,2.16l1,4.07a2.7,2.7,0,0,0,2.11,1.88l9.61,1.21a1.67,1.67,0,0,0,1.88-1.49l.41-3.66a2.09,2.09,0,0,1,1.89-1.79,38.24,38.24,0,0,0,4.25-.53,5.27,5.27,0,0,1,3.15.53l6.76,4a3.49,3.49,0,0,0,3,.1l5.72-2.86a1,1,0,0,0,.21-1.87l-5.31-4.42a1.7,1.7,0,0,1-.17-2.38,11.56,11.56,0,0,0,1-1.47,2.87,2.87,0,0,1,2.43-1.45l8.48.51a1.45,1.45,0,0,0,1.58-1.6l-.33-4.45a2.37,2.37,0,0,0-1.8-2l-8.66-1.66a4.29,4.29,0,0,1-2.49-1.83,21.75,21.75,0,0,0-1.63-2.31,1.48,1.48,0,0,1,.31-2.24l4.25-2.82a1.09,1.09,0,0,0,0-1.93l-6.8-4.76a3.66,3.66,0,0,0-3-.38L198,385.27a4.92,4.92,0,0,1-3.17-.11c-1.53-.65-3.11-1.23-4.71-1.73a3.41,3.41,0,0,1-2.06-2.15l-1-4.08a2.68,2.68,0,0,0-2.12-1.87l-9.6-1.22a1.69,1.69,0,0,0-1.89,1.49l-.4,3.66a2.1,2.1,0,0,1-1.9,1.79,38.36,38.36,0,0,0-4.24.53,5.27,5.27,0,0,1-3.15-.52l-6.77-4A3.5,3.5,0,0,0,154,377Zm40.22,16.93c7.37,5.16,7.88,12.08,1.15,15.45s-18.18,1.93-25.55-3.22-7.88-12.08-1.14-15.45S186.85,388.74,194.22,393.89Z" style="fill:#265CBE"></path><path d="M154,377l-5.72,2.86a1,1,0,0,0-.22,1.87l5.31,4.43a1.67,1.67,0,0,1,.17,2.37,12.61,12.61,0,0,0-1,1.47,2.85,2.85,0,0,1-2.44,1.45l-8.47-.51a1.46,1.46,0,0,0-1.59,1.6l.33,4.45a2.36,2.36,0,0,0,1.81,2l8.65,1.66a4.31,4.31,0,0,1,2.5,1.83,23.16,23.16,0,0,0,1.62,2.31,1.47,1.47,0,0,1-.3,2.24l-4.25,2.82a1.09,1.09,0,0,0,0,1.93l6.8,4.76a3.64,3.64,0,0,0,3,.39l5.83-2.17a4.92,4.92,0,0,1,3.17.1,50.06,50.06,0,0,0,4.72,1.73,3.39,3.39,0,0,1,2.05,2.16l1,4.07a2.7,2.7,0,0,0,2.11,1.88l9.61,1.21a1.67,1.67,0,0,0,1.88-1.49l.41-3.66a2.09,2.09,0,0,1,1.89-1.79,38.24,38.24,0,0,0,4.25-.53,5.27,5.27,0,0,1,3.15.53l6.76,4a3.49,3.49,0,0,0,3,.1l5.72-2.86a1,1,0,0,0,.21-1.87l-5.31-4.42a1.7,1.7,0,0,1-.17-2.38,11.56,11.56,0,0,0,1-1.47,2.87,2.87,0,0,1,2.43-1.45l8.48.51a1.45,1.45,0,0,0,1.58-1.6l-.33-4.45a2.37,2.37,0,0,0-1.8-2l-8.66-1.66a4.29,4.29,0,0,1-2.49-1.83,21.75,21.75,0,0,0-1.63-2.31,1.48,1.48,0,0,1,.31-2.24l4.25-2.82a1.09,1.09,0,0,0,0-1.93l-6.8-4.76a3.66,3.66,0,0,0-3-.38L198,385.27a4.92,4.92,0,0,1-3.17-.11c-1.53-.65-3.11-1.23-4.71-1.73a3.41,3.41,0,0,1-2.06-2.15l-1-4.08a2.68,2.68,0,0,0-2.12-1.87l-9.6-1.22a1.69,1.69,0,0,0-1.89,1.49l-.4,3.66a2.1,2.1,0,0,1-1.9,1.79,38.36,38.36,0,0,0-4.24.53,5.27,5.27,0,0,1-3.15-.52l-6.77-4A3.5,3.5,0,0,0,154,377Zm40.22,16.93c7.37,5.16,7.88,12.08,1.15,15.45s-18.18,1.93-25.55-3.22-7.88-12.08-1.14-15.45S186.85,388.74,194.22,393.89Z" style="fill:#fff;opacity:0.55"></path><g style="opacity:0.55"><path d="M141.46,397.07h0a.71.71,0,0,1,0-.2l-.33-4.44a.51.51,0,0,1,.11-.38.5.5,0,0,1,.37-.11l8.48.51a3.92,3.92,0,0,0,3.41-2,9.9,9.9,0,0,1,.9-1.35,2.8,2.8,0,0,0,.52-2.55,2.63,2.63,0,0,0-.84-1.26l-5.31-4.43-.08-.08.09-.05,5.72-2.87a2.51,2.51,0,0,1,2,.07l6.77,4a6.29,6.29,0,0,0,3.86.65,38.08,38.08,0,0,1,4.14-.51,3.14,3.14,0,0,0,2.85-2.71l.41-3.67a.61.61,0,0,1,.24-.43.63.63,0,0,1,.48-.14l9.6,1.22a1.7,1.7,0,0,1,1.24,1.09h0l1,4.08a.83.83,0,0,1,0,.15,4.45,4.45,0,0,0,2.72,2.74c1.58.5,3.13,1.07,4.62,1.7a5.93,5.93,0,0,0,3.94.12l5.82-2.17a2.67,2.67,0,0,1,2,.26l6.8,4.76c.08.05.11.09.13.1l-.13.11-4.25,2.83a2.47,2.47,0,0,0-1,2.82,2.94,2.94,0,0,0,.5.94,20.41,20.41,0,0,1,1.55,2.19,5.22,5.22,0,0,0,3.19,2.31l8.65,1.66a1.38,1.38,0,0,1,.93.89,1.77,1.77,0,0,1,0,.2l.33,4.45a.46.46,0,0,1-.12.37.47.47,0,0,1-.37.12l-8.48-.51a3.9,3.9,0,0,0-3.4,2,10,10,0,0,1-.91,1.35,2.82,2.82,0,0,0-.51,2.55,2.5,2.5,0,0,0,.84,1.26l5.31,4.43.08.08-.1.06-5.72,2.86a2.47,2.47,0,0,1-2-.07l-6.76-4a6.31,6.31,0,0,0-3.87-.65,37.58,37.58,0,0,1-4.13.51,3.16,3.16,0,0,0-2.86,2.72l-.4,3.66a.65.65,0,0,1-.24.44.69.69,0,0,1-.48.13l-9.61-1.22a1.68,1.68,0,0,1-1.23-1.09h0l-1-4.08a.83.83,0,0,0,0-.15,4.44,4.44,0,0,0-2.71-2.74c-1.58-.5-3.14-1.07-4.62-1.7a6,6,0,0,0-3.94-.12l-5.83,2.17a2.67,2.67,0,0,1-2.05-.26l-6.8-4.76-.12-.1a.56.56,0,0,1,.13-.11l4.25-2.82a2.49,2.49,0,0,0,1-2.83,2.76,2.76,0,0,0-.5-.94,18.15,18.15,0,0,1-1.54-2.19,5.28,5.28,0,0,0-3.19-2.31L142.39,398a1.34,1.34,0,0,1-.93-.89m59.32,3.33c-.8-2.65-2.86-5.19-6-7.36-7.64-5.34-19.57-6.83-26.61-3.3-4.31,2.16-6.16,5.85-4.94,9.87.8,2.65,2.86,5.19,6,7.36,7.64,5.34,19.57,6.83,26.6,3.3,4.32-2.16,6.17-5.85,4.95-9.87m-60.32-3a2.38,2.38,0,0,0,1.73,1.61l8.65,1.66a4.31,4.31,0,0,1,2.5,1.83,23.16,23.16,0,0,0,1.62,2.31,1.85,1.85,0,0,1,.32.58,1.46,1.46,0,0,1-.62,1.66l-4.25,2.82a1.12,1.12,0,0,0-.56,1.25,1.33,1.33,0,0,0,.54.68l6.8,4.76a3.64,3.64,0,0,0,3,.39l5.83-2.17a4.92,4.92,0,0,1,3.17.1,50.06,50.06,0,0,0,4.72,1.73,3.42,3.42,0,0,1,2,2.06.3.3,0,0,1,0,.1l1,4.07,0,.09a2.71,2.71,0,0,0,2.08,1.79l9.61,1.21a1.67,1.67,0,0,0,1.88-1.49l.41-3.66a2.09,2.09,0,0,1,1.89-1.79,38.24,38.24,0,0,0,4.25-.53,5.27,5.27,0,0,1,3.15.53l6.76,4a3.49,3.49,0,0,0,3,.1l5.72-2.86a1.05,1.05,0,0,0,.66-1.24,1.35,1.35,0,0,0-.45-.63l-5.31-4.42a1.68,1.68,0,0,1-.51-.77,1.79,1.79,0,0,1,.34-1.61,11.56,11.56,0,0,0,1-1.47,2.87,2.87,0,0,1,2.43-1.45l8.48.51a1.45,1.45,0,0,0,1.58-1.6l-.33-4.45a2,2,0,0,0-.07-.42,2.38,2.38,0,0,0-1.73-1.61l-8.66-1.66a4.29,4.29,0,0,1-2.49-1.83,21.75,21.75,0,0,0-1.63-2.31,1.82,1.82,0,0,1-.31-.58,1.44,1.44,0,0,1,.62-1.66l4.25-2.82a1.1,1.1,0,0,0,.55-1.25,1.26,1.26,0,0,0-.53-.68l-6.8-4.76a3.66,3.66,0,0,0-3-.38L198,385.27a4.86,4.86,0,0,1-3.17-.11c-1.53-.65-3.11-1.23-4.71-1.73a3.42,3.42,0,0,1-2-2.06l0-.09-1-4.08,0-.09a2.7,2.7,0,0,0-2.09-1.78l-9.6-1.22a1.69,1.69,0,0,0-1.89,1.49l-.4,3.66a2.09,2.09,0,0,1-1.9,1.79,38.36,38.36,0,0,0-4.24.53,5.27,5.27,0,0,1-3.15-.52l-6.77-4a3.5,3.5,0,0,0-3-.1l-5.72,2.87a1,1,0,0,0-.66,1.23,1.33,1.33,0,0,0,.44.63l5.31,4.43a1.56,1.56,0,0,1,.52.76,1.82,1.82,0,0,1-.35,1.61,12.61,12.61,0,0,0-1,1.47,2.85,2.85,0,0,1-2.44,1.45l-8.47-.51a1.46,1.46,0,0,0-1.59,1.6l.33,4.45a2.07,2.07,0,0,0,.08.42Zm59.32,3.33c1,3.39-.41,6.64-4.41,8.64-6.74,3.38-18.18,1.93-25.55-3.22-3-2.1-4.85-4.49-5.56-6.81-1-3.39.42-6.64,4.42-8.64,6.74-3.38,18.17-1.93,25.54,3.22,3,2.1,4.86,4.49,5.56,6.81Z" style="fill:#fff"></path></g></g></g></svg>