<svg id="visual" viewBox="0 0 1920 1080" width="1920" height="1080" xmlns="http://www.w3.org/2000/svg" xmlns:xlink="http://www.w3.org/1999/xlink" version="1.1"><rect x="0" y="0" width="1920" height="1080" fill="#fff"></rect><defs><linearGradient id="grad1_0" x1="43.8%" y1="0%" x2="100%" y2="100%"><stop offset="14.444444444444446%" stop-color="#ffffff" stop-opacity="1"></stop><stop offset="85.55555555555554%" stop-color="#ffffff" stop-opacity="1"></stop></linearGradient></defs><defs><linearGradient id="grad2_0" x1="0%" y1="0%" x2="56.3%" y2="100%"><stop offset="14.444444444444446%" stop-color="#ffffff" stop-opacity="1"></stop><stop offset="85.55555555555554%" stop-color="#ffffff" stop-opacity="1"></stop></linearGradient></defs><g transform="translate(1920, 0)"><path d="M0 972C-127 873.7 -253.9 775.4 -408 706.7C-562.1 638 -743.3 598.8 -841.8 486C-940.3 373.2 -956.1 186.6 -972 0L0 0Z" fill="#007038"></path></g><g transform="translate(0, 1080)"><path d="M0 -972C177.1 -950.7 354.2 -929.4 486 -841.8C617.8 -754.2 704.2 -600.3 777.7 -449C851.1 -297.7 911.6 -148.8 972 0L0 0Z" fill="#007038"></path></g></svg>