<svg id="eKecx09GTsI1" xmlns="http://www.w3.org/2000/svg" xmlns:xlink="http://www.w3.org/1999/xlink" viewBox="0 0 640 640" shape-rendering="geometricPrecision" text-rendering="geometricPrecision" style="background-color:transparent"><defs><linearGradient id="eKecx09GTsI3-fill" x1="0.489361" y1="-0.00383" x2="0.921055" y2="0.624081" spreadMethod="pad" gradientUnits="objectBoundingBox" gradientTransform="translate(0 0)"><stop id="eKecx09GTsI3-fill-0" offset="0%" stop-color="#265cbe"/><stop id="eKecx09GTsI3-fill-1" offset="100%" stop-color="#0c0b33"/></linearGradient><linearGradient id="eKecx09GTsI4-stroke" x1="0" y1="0.5" x2="1" y2="0.5" spreadMethod="pad" gradientUnits="objectBoundingBox" gradientTransform="translate(0 0)"><stop id="eKecx09GTsI4-stroke-0" offset="0%" stop-color="#8fc2ff"/><stop id="eKecx09GTsI4-stroke-1" offset="100%" stop-color="#fff"/></linearGradient></defs><g transform="translate(-42.159327 88.623402)"><ellipse rx="236.187196" ry="236.187196" transform="matrix(1.041057 0 0 1.041057 365.09482 214.948172)" fill="url(#eKecx09GTsI3-fill)" stroke-width="0"/></g><path d="M220.914252,431.101285c90.2536,15.239556,161.417616,9.003373,184.99156-36.905159s-10.50092-83.273885-59.159254-128.330123-105.616875-169.530414-73.34309-182.137362s45.67567,47.772194,65.624815,61.451608c7.875866,6.042797,15.085439,2.615719,16.734674.966484s-.973821-5.494419-6.966995-14.832957-11.197352-25.187854-13.035023-33.261784-8.540189-19.327793-11.23709-14.383474s4.944319,22.474177,13.709249,20.676243s18.611023-7.022038,5.327031-33.179158-66.278046-52.2844-102.764437-16.49967-15.43655,120.685754,14.734889,178.221986s70.61553,102.487246,83.570615,102.868279-31.730804-71.339778-111.978432-83.640509-204.158148-4.205912-221.923411-24.12454s89.277642-11.045052,130.831092,42.969035s58.048709,105.188894,134.489288,116.390579s50.053405-53.601311-7.7429-85.126568-253.846327-37.402494-253.846327-37.402494s77.082461,142.497371,211.983746,166.279584Z" transform="translate(92.589193 80.626306)" fill="none" stroke="url(#eKecx09GTsI4-stroke)" stroke-width="5" stroke-miterlimit="36" stroke-dashoffset="2659.74" stroke-dasharray="2659.74"/></svg>
