<svg xmlns="http://www.w3.org/2000/svg" viewBox="0 0 500 500"><g id="freepik--background-complete--inject-4"><path d="M360.93,305.34c-17.81-10.61-23.26-32.3-24-52.1-.13-3.31-.75-6.76.61-9.77s4.87-5.25,7.93-4.07c2.53,1,3.8,3.74,5.35,6a19.35,19.35,0,0,0,8.27,6.82c2.18.93,4.82,1.41,6.81.12,2.73-1.78,2.78-5.74,2.52-9q-.72-9.17-1.45-18.33c-.26-3.28-.52-6.63.28-9.81s2.83-6.25,5.89-7.35,7,.42,7.94,3.58a30.48,30.48,0,0,1,.39,4.07c.19,1.36.93,2.82,2.25,3.1s2.58-.73,3.49-1.76c3.15-3.56,5.13-8,7-12.4s3.6-8.89,6.41-12.73,6.85-7,11.52-7.61,9.9,1.92,11.42,6.45-.83,9.42-3.49,13.38a73.54,73.54,0,0,1-14.18,15.64,6,6,0,0,0-2.35,2.93c-.55,2.23,1.68,4.25,3.89,4.82,2.5.63,5.14.18,7.72.3s5.43,1,6.57,3.38c1.59,3.26-1,7-3.55,9.48a62.85,62.85,0,0,1-17.77,12.07c-2.35,1.06-4.83,2-6.65,3.85s-2.78,4.87-1.44,7.1,4.42,2.74,6.91,2.09,4.65-2.19,7-3.27c4.39-2,10.23-2.15,13.4,1.53,2.08,2.43,2.51,6,1.78,9.1a24.11,24.11,0,0,1-4.38,8.47A63.32,63.32,0,0,1,391.4,302.3c-10.19,4.39-19.8,6.08-30.47,3" style="fill:#ebebeb"></path><path d="M365.12,292.58a295.17,295.17,0,0,1,9.36-32.49c1-2.83,1.94-5.63,2.89-8.39s1.9-5.48,3-8.09A144.62,144.62,0,0,1,387.49,229c2.49-4.55,5-8.78,7.42-12.71s4.71-7.56,7-10.77a116.34,116.34,0,0,1,11.72-14.35c1.51-1.58,2.72-2.77,3.55-3.56.4-.38.72-.67.95-.9s.34-.29.34-.29a2.14,2.14,0,0,1-.29.34l-.91.94c-.81.82-2,2-3.47,3.64a122.59,122.59,0,0,0-11.54,14.43c-2.22,3.22-4.5,6.85-6.89,10.78s-4.88,8.18-7.36,12.72a149.14,149.14,0,0,0-7.06,14.61c-1.08,2.6-2,5.3-3,8.06s-1.92,5.56-2.89,8.39a300.78,300.78,0,0,0-9.38,32.41" style="fill:#e0e0e0"></path><path d="M380.53,243.57a6.44,6.44,0,0,1-.42-1.37c-.24-.9-.54-2.2-.89-3.82-.7-3.23-1.52-7.73-2.4-12.69s-1.77-9.43-2.52-12.64c-.37-1.61-.68-2.91-.91-3.8a6.5,6.5,0,0,1-.28-1.41,6.69,6.69,0,0,1,.51,1.34c.3.88.67,2.17,1.1,3.76.86,3.2,1.81,7.68,2.69,12.65s1.63,9.32,2.23,12.71c.27,1.52.51,2.81.7,3.84A6.74,6.74,0,0,1,380.53,243.57Z" style="fill:#e0e0e0"></path><path d="M422.12,232.61a8.74,8.74,0,0,1-1.67.32c-1.07.18-2.63.43-4.54.79-3.83.7-9.09,1.85-14.84,3.37s-10.88,3.15-14.57,4.42c-1.85.62-3.33,1.17-4.35,1.54a9.12,9.12,0,0,1-1.62.52,9.21,9.21,0,0,1,1.53-.75c1-.43,2.46-1,4.3-1.72,3.66-1.38,8.79-3.06,14.56-4.6a148,148,0,0,1,14.91-3.21c1.93-.31,3.5-.49,4.59-.59A9,9,0,0,1,422.12,232.61Z" style="fill:#e0e0e0"></path><path d="M365.59,291.77a2.15,2.15,0,0,1-.33-.5l-.83-1.47c-.72-1.28-1.71-3.16-2.9-5.51-2.39-4.68-5.48-11.25-8.8-18.54s-6.34-13.89-8.63-18.62c-1.12-2.29-2-4.18-2.72-5.59l-.74-1.52a2.86,2.86,0,0,1-.22-.55,2.2,2.2,0,0,1,.33.49l.83,1.47c.72,1.28,1.71,3.17,2.9,5.51,2.39,4.68,5.48,11.25,8.8,18.55s6.35,13.89,8.63,18.61l2.72,5.59.74,1.52A2.34,2.34,0,0,1,365.59,291.77Z" style="fill:#e0e0e0"></path><path d="M420.3,269.62a2.38,2.38,0,0,1-.54.26l-1.59.67-5.86,2.38c-4.94,2-11.74,4.87-19.25,8s-14.34,6-19.33,7.88c-2.5,1-4.52,1.71-5.93,2.2l-1.63.56a2.67,2.67,0,0,1-.58.16,2.06,2.06,0,0,1,.54-.28l1.58-.66,5.86-2.38c4.95-2,11.75-4.87,19.26-8s14.34-6,19.33-7.88c2.49-1,4.52-1.71,5.93-2.2l1.62-.56A2.14,2.14,0,0,1,420.3,269.62Z" style="fill:#e0e0e0"></path><path d="M441.63,109.72a10.08,10.08,0,0,1,.48-2.14,16.66,16.66,0,0,0,.59-2.56,26,26,0,0,0,.51-3.55,33.16,33.16,0,0,0-.48-9.75,33.65,33.65,0,0,0-32.81-27.43,31.23,31.23,0,0,0-9.51,1.31,35.29,35.29,0,0,0-4.67,1.69,37.65,37.65,0,0,0-4.42,2.47,33.29,33.29,0,0,0-13.87,36.92,38.55,38.55,0,0,0,1.7,4.77,36.57,36.57,0,0,0,2.4,4.35,31.48,31.48,0,0,0,6.3,7.25,33.81,33.81,0,0,0,42.76,1,33,33,0,0,0,6.77-7,27,27,0,0,0,2-3,19.18,19.18,0,0,0,1.25-2.32,10,10,0,0,1,1-1.93,9.47,9.47,0,0,1-.7,2.09,15.09,15.09,0,0,1-1.1,2.43,23.84,23.84,0,0,1-1.84,3.15,32.26,32.26,0,0,1-6.72,7.43,34.77,34.77,0,0,1-27.79,7.37,35.15,35.15,0,0,1-16.76-7.82,33,33,0,0,1-6.68-7.59,40.61,40.61,0,0,1-2.56-4.57,39,39,0,0,1-1.8-5,34.93,34.93,0,0,1,14.63-39,40.4,40.4,0,0,1,4.67-2.6,41.58,41.58,0,0,1,4.94-1.76,32.93,32.93,0,0,1,10-1.31,35.13,35.13,0,0,1,17.77,5.15,34.79,34.79,0,0,1,16.06,23.84,32.34,32.34,0,0,1,.16,10,24.24,24.24,0,0,1-.68,3.59,16.66,16.66,0,0,1-.77,2.56A9.38,9.38,0,0,1,441.63,109.72Z" style="fill:#e0e0e0"></path><path d="M442.2,87.24c0,.13-.73.43-2.15.88l-2.6.77c-.51.14-1.06.31-1.64.44l-1.89.28a38.7,38.7,0,0,1-20.7-1.84l-2.83-1.13-2.62-1.39c-.42-.24-.85-.45-1.26-.7l-1.18-.79c-.76-.53-1.53-1-2.24-1.56a43.58,43.58,0,0,1-6.78-6.53c-3.43-4.13-4.71-7.25-4.49-7.35s1.9,2.68,5.49,6.47a51.74,51.74,0,0,0,6.81,6c.7.49,1.45,1,2.19,1.44l1.14.74,1.22.64,2.5,1.31L413.88,86a41.84,41.84,0,0,0,19.87,2.28l1.86-.14c.58-.09,1.12-.21,1.63-.3l2.64-.44C441.33,87.18,442.16,87.12,442.2,87.24Z" style="fill:#e0e0e0"></path><path d="M376.7,108.57c0-.12.72-.43,2.14-.87l2.61-.77c.51-.14,1.05-.31,1.64-.44l1.88-.28a38.68,38.68,0,0,1,20.7,1.83l2.84,1.13,2.61,1.4c.43.23.86.45,1.27.69l1.17.79c.77.54,1.54,1,2.25,1.56a44.5,44.5,0,0,1,6.78,6.53c3.42,4.14,4.7,7.26,4.49,7.36s-1.91-2.68-5.49-6.47a51.24,51.24,0,0,0-6.82-6c-.69-.5-1.45-1-2.19-1.44l-1.13-.74-1.22-.65-2.51-1.31L405,109.81a41.71,41.71,0,0,0-19.87-2.28l-1.85.14c-.58.08-1.13.2-1.64.29l-2.63.45C377.56,108.63,376.73,108.7,376.7,108.57Z" style="fill:#e0e0e0"></path><path d="M441.35,110.47c-.18.49-14.7-4.52-32.42-11.17S377,86.85,377.16,86.36s14.7,4.51,32.43,11.17S441.53,110,441.35,110.47Z" style="fill:#e0e0e0"></path><path d="M396.77,129.48c-.49-.18,4.51-14.7,11.17-32.41s12.44-31.94,12.93-31.76S416.36,80,409.7,97.73,397.25,129.66,396.77,129.48Z" style="fill:#e0e0e0"></path><path d="M396.79,129.43c-.19.15-2.92-3.51-5.13-10.42a46.41,46.41,0,0,1-2.13-12.52,41.4,41.4,0,0,1,2.55-15.38,39.29,39.29,0,0,1,8.27-13.22,47.5,47.5,0,0,1,9.86-8c6.2-3.75,10.61-4.83,10.66-4.6s-4.07,1.77-9.93,5.72a51,51,0,0,0-9.31,8,39.17,39.17,0,0,0-7.78,12.7,41.73,41.73,0,0,0-2.58,14.69,49.89,49.89,0,0,0,1.67,12.18C394.77,125.46,397,129.3,396.79,129.43Z" style="fill:#e0e0e0"></path><path d="M421.59,65.58c.19-.15,2.91,3.51,5.12,10.42a45.64,45.64,0,0,1,2.13,12.52,41.38,41.38,0,0,1-2.54,15.38A39.39,39.39,0,0,1,418,117.12a47.6,47.6,0,0,1-9.87,8c-6.19,3.75-10.6,4.83-10.66,4.6s4.08-1.78,9.94-5.72a51,51,0,0,0,9.31-8,39.51,39.51,0,0,0,7.78-12.7,41.77,41.77,0,0,0,2.58-14.69,49.37,49.37,0,0,0-1.68-12.18C423.61,69.55,421.34,65.71,421.59,65.58Z" style="fill:#e0e0e0"></path><path d="M67.55,164.71l-1.16-5.47a18.34,18.34,0,0,0-35.78,8.07l1.17,5.57a10.25,10.25,0,0,0-6.29,11.82l7.27,32.16A10.26,10.26,0,0,0,45,224.61l33.39-7.55a10.27,10.27,0,0,0,7.75-12.28l-7.28-32.16A10.26,10.26,0,0,0,67.55,164.71Zm-5.33,37.07-8.73,2-.07-6.62a5.45,5.45,0,1,1,5.75-1.4C60.34,198,62.22,201.78,62.22,201.78Zm1.46-36.24-28.07,6.35-1.14-5.43a14.39,14.39,0,0,1,28.06-6.37Z" style="fill:#ebebeb"></path><path d="M91.93,83.83l1-3.1a10.72,10.72,0,0,0-20.43-6.48l-1,3.16a6,6,0,0,0-6.67,4.11L59,99.89a6,6,0,0,0,3.91,7.52l19.07,6a6,6,0,0,0,7.53-3.91l5.81-18.37A6,6,0,0,0,91.93,83.83ZM78.31,101l-5-1.58L75.24,96a3.18,3.18,0,1,1,3.32,1C78.47,98.53,78.31,101,78.31,101ZM89.74,83.11,73.7,78l1-3.08a8.41,8.41,0,0,1,16,5.06Z" style="fill:#f5f5f5"></path><path d="M110.33,224a11.49,11.49,0,0,1,8.34,3.4,20.39,20.39,0,0,1,4.77,7.84c2,5.62,1.67,12.48.52,18.34-6.41-1.68-10.82-8-12.86-11.33-3.21-5.28-5.82-16.77-.77-18.25" style="fill:#ebebeb"></path><path d="M133.52,259.76a9.82,9.82,0,0,1-1.31-9.76,13,13,0,0,1,7.28-7,5.47,5.47,0,0,1,4.62-.18,4.19,4.19,0,0,1,1.95,3.78,8.5,8.5,0,0,1-1.45,4.18c-2.67,4.36-6.06,8.08-11.09,8.94" style="fill:#ebebeb"></path><path d="M134.31,275a19.23,19.23,0,0,1-1.12-3.78,18.65,18.65,0,0,1-.45-4.29,40.74,40.74,0,0,1,.27-5.26,19.74,19.74,0,0,1,3.4-8.92,14.82,14.82,0,0,1,2-2.15,3.2,3.2,0,0,1,.87-.62c.08.09-1.1,1-2.44,3a21.22,21.22,0,0,0-3.13,8.74,47.64,47.64,0,0,0-.31,5.17,20.5,20.5,0,0,0,.29,4.2A25.83,25.83,0,0,1,134.31,275Z" style="fill:#e0e0e0"></path><path d="M113.09,232.87a10.47,10.47,0,0,1,1.06,1.69c.65,1.11,1.56,2.73,2.66,4.74,2.22,4,5.22,9.61,8.38,15.87s5.86,12,7.72,16.2c.94,2.09,1.67,3.8,2.16,5a12.32,12.32,0,0,1,.69,1.87,11.71,11.71,0,0,1-.93-1.76l-2.34-4.91c-2-4.14-4.74-9.84-7.9-16.09l-8.19-15.95c-1-2-1.84-3.59-2.48-4.84A12.17,12.17,0,0,1,113.09,232.87Z" style="fill:#e0e0e0"></path><path d="M127.77,265.15A23,23,0,0,0,108,258.31c-1.83.28-3.93,1.08-4.36,2.88s1.07,3.47,2.6,4.52a19.6,19.6,0,0,0,21.76-.09" style="fill:#ebebeb"></path><path d="M111.91,262.33a3,3,0,0,1,1-.13c.67-.05,1.65-.05,2.85,0a25.89,25.89,0,0,1,9.26,1.86,16.65,16.65,0,0,1,4.41,2.84,16.32,16.32,0,0,1,2.71,3.31,15.64,15.64,0,0,1,1.27,2.58,3.28,3.28,0,0,1,.31,1c-.12.06-.67-1.34-2-3.32a17.35,17.35,0,0,0-2.73-3.11,16.64,16.64,0,0,0-4.26-2.68,29.13,29.13,0,0,0-9-2A33.79,33.79,0,0,1,111.91,262.33Z" style="fill:#e0e0e0"></path></g><g id="freepik--World--inject-4"><path d="M314.5,132.13s.14-.12.43-.32l1.27-.91c.55-.41,1.28-.85,2.05-1.49l2.72-2.15c1-.88,2.06-1.82,3.21-2.91s2.39-2.3,3.58-3.71a68.09,68.09,0,0,0,7.52-10,69,69,0,0,0,10.2-30.71,51.36,51.36,0,0,0-1.93-19,34.7,34.7,0,0,0-10.86-17.17,27.37,27.37,0,0,0-9.15-4.88,34.17,34.17,0,0,0-10-1.36,67.87,67.87,0,0,0-18.94,3.27,134.94,134.94,0,0,0-30,12.94,139.83,139.83,0,0,0-18.1,12.59c-2,1.68-3.55,3-4.56,3.92l-1.17,1-.41.34.37-.38,1.14-1.07c1-1,2.51-2.29,4.49-4a134.79,134.79,0,0,1,48.07-25.86,68.56,68.56,0,0,1,19.09-3.32,34.68,34.68,0,0,1,10.19,1.38,27.86,27.86,0,0,1,9.34,5,35.12,35.12,0,0,1,11,17.43A51.62,51.62,0,0,1,346,79.93a68.89,68.89,0,0,1-10.37,30.87,66.51,66.51,0,0,1-7.63,10c-1.2,1.42-2.5,2.56-3.62,3.7s-2.28,2-3.26,2.88l-2.75,2.12c-.79.62-1.53,1.05-2.09,1.45l-1.3.86Z" style="fill:#ECEFF1"></path><path d="M176.38,215.15a55.24,55.24,0,0,1-8.33,1.91,64.59,64.59,0,0,1-23.22-.58A55.82,55.82,0,0,1,129.71,211a53.84,53.84,0,0,1-14.42-11.52,48.59,48.59,0,0,1-10.09-17.69,38,38,0,0,1-1.26-5.23,44.11,44.11,0,0,1-.69-5.42c-.09-.92,0-1.84-.06-2.77a23.52,23.52,0,0,1,.07-2.78l.21-2.8c.14-.92.28-1.85.43-2.78a52.69,52.69,0,0,1,3-10.74c.61-1.73,1.44-3.36,2.2-5,.39-.82.85-1.59,1.28-2.38s.84-1.58,1.34-2.32A64.61,64.61,0,0,1,125,124a77.11,77.11,0,0,1,15.47-10.1,95.54,95.54,0,0,1,15-5.86,126.49,126.49,0,0,1,22.87-4.41c2.74-.26,4.87-.43,6.32-.49l1.64-.08c.37,0,.57,0,.57,0l-.56.06-1.65.14c-1.44.1-3.57.3-6.3.59a131.3,131.3,0,0,0-22.78,4.58,96.52,96.52,0,0,0-14.92,5.88,77.65,77.65,0,0,0-15.35,10.09,64.37,64.37,0,0,0-13.12,15.4c-.5.74-.9,1.52-1.33,2.3s-.88,1.55-1.27,2.36c-.74,1.63-1.56,3.24-2.17,5a52.43,52.43,0,0,0-3,10.63c-.14.92-.28,1.84-.43,2.76s-.13,1.84-.2,2.76a23,23,0,0,0-.07,2.75c0,.92,0,1.83.06,2.73a43.13,43.13,0,0,0,.67,5.36,38.56,38.56,0,0,0,1.24,5.17,48.32,48.32,0,0,0,10,17.51,53.34,53.34,0,0,0,14.26,11.46,59.46,59.46,0,0,0,7.59,3.42,58.15,58.15,0,0,0,7.39,2.12,65.68,65.68,0,0,0,23.11.75c2.71-.42,4.8-.86,6.21-1.19l1.6-.39C176.19,215.18,176.38,215.15,176.38,215.15Z" style="fill:#ECEFF1"></path><path d="M341.68,169c-1-2.35-1.27-4.94-2-7.4a4.93,4.93,0,0,0-2.23-3.32,21,21,0,0,0-2.66-.6c-3.13-.93-4-5.3-6.94-6.66a10.15,10.15,0,0,0-3-.62c-4-.47-8.07-1.84-10.56-4.95a18.83,18.83,0,0,0-2.45-3c-1-.82-2.59-1.17-3.58-.34.84,1.68,1.66,3.35,2.48,5a13,13,0,0,0,2.78,4.16,4.49,4.49,0,0,0,4.67,1,3.08,3.08,0,0,1,1.57-.56,1.76,1.76,0,0,1,1,.66c2.16,2.39,1.46,6.36-.65,8.8S315,164.83,312,166a6.36,6.36,0,0,1-3.35.65c-2.07-.39-3.18-2.64-3.78-4.67-1.36-4.48-2-9.35-4.79-13.14a16.46,16.46,0,0,1-2.52-3.66c-.57-1.51-.44-3.27-1.34-4.59s-2.93-2.19-3.07-3.86a3.06,3.06,0,0,1,2-2.71c1.07-.52,2.28-.67,3.38-1.13.44-.18.92-.5.94-1,0-.7-1-1-1.22-1.64s.48-1.42.8-2.14c.69-1.64-1-3.3-2.68-4s-3.63-1.16-4.4-2.77a9.53,9.53,0,0,1-.53-2.39,5.26,5.26,0,0,0-3.92-4.32c-2.06-.33-4.33,1.49-4,3.53.2,1.13,1,2,1.49,3s.34,2.58-.74,2.92c-1.75.53-3.44-2.68-4.92-1.58.61,2.06,1.19,4.12,1.8,6.19-2.31,1.18-5.08-1-6.06-3.36s-1-5.14-2.2-7.45-4.33-4-6.34-2.41c-.1,3,3.83,4.19,5.57,6.6,1.26,1.74,1.08,4.57-.78,5.67s-4.77-.82-4.07-2.84c.25-.71.84-1.29.9-2,.07-.93-.71-1.69-1.43-2.29l-3.37-2.83a7,7,0,0,0-2.39-1.5c-2.31-.67-4.62,1.2-5.84,3.26s-1.91,4.5-3.6,6.23c-2.43,2.51-7,2.66-9.3,0s-1.13-7.55,2.24-8.5c1.27-.35,2.88-.32,3.55-1.44,1.17-2-2.18-4.54-1-6.55.89-1.54,3.23-.83,4.94-1.35s2.65-2.23,3.65-3.7,2.54-2.93,4.28-2.54a5.43,5.43,0,0,1,.19-3.05,1.86,1.86,0,0,1,2.56-.94c-.85,1.41.17,3.37,1.66,4.07a9,9,0,0,0,4.87.35c1.64-.2,3.69-.8,3.83-2.44a5.75,5.75,0,0,1,.05-1.61c.72-2,4.33.74,5.72-.84.81-.82-.08-2.27-1.2-2.54s-2.26.14-3.4.17-2.53-.55-2.58-1.69,1.21-1.93,1.34-3c.22-1.88-3-2.36-4.08-.84s-.72,3.62-.39,5.47.52,4-.85,5.36c-.59.89-2.11.42-2.61-.52a7.63,7.63,0,0,1-.49-3.13A2.69,2.69,0,0,0,262.85,94a5.66,5.66,0,0,0-2.22.25c-2.91.35-4.94-3.41-4-6.19s3.55-4.59,6.11-6c1.87-1,4.2-2,6.06-.95.87.48,1.47,1.32,2.32,1.82,1.48.87,3.3.55,5,.59a11.64,11.64,0,0,1,7.28,2.83c.75.68,1.46,1.82.87,2.64s-2.46,1.06-2.14,2.08a3.63,3.63,0,0,0,4.55-2.93,3.05,3.05,0,0,1,1.76,2.47,5.42,5.42,0,0,1,7.95.66,6.86,6.86,0,0,0,1.47,1.89c.67.43,1.84.22,1.92-.57a1.59,1.59,0,0,0-.13-.74c-.4-1.14-.82-2.26-1.22-3.38,1.56-.83,3.4.47,4.45,1.88,3.92,5.23,6.71,2.09,12.23,2.94,3.74.57,5.38,3,7.49,5.86,6.46,8.9,15,16.2,20.86,25.5.62,1,1.19,2,1.73,3-.1-.26-.19-.51-.29-.76a103.45,103.45,0,0,0-8.53-17.35c-.72-1.17-1.46-2.33-2.21-3.47-.47-.7-.95-1.42-1.44-2.1-.62-.91-1.27-1.78-1.92-2.65-.52-.7-1-1.39-1.58-2.06-.37-.47-.75-.93-1.14-1.4s-.83-1.06-1.3-1.58l-1.41-1.62a5.07,5.07,0,0,0-.45-.5c-.48-.57-1-1.12-1.52-1.68a.56.56,0,0,0-.15-.16l-.44-.45c-.42-.47-.87-.92-1.3-1.38-.72-.73-1.46-1.47-2.21-2.17s-1.26-1.21-1.91-1.79-1.14-1-1.72-1.54-1.14-1-1.73-1.48-1.42-1.18-2.16-1.77h0c-2-1.62-4.12-3.16-6.26-4.6l-1.59-1.07c-.54-.37-1.09-.71-1.62-1s-1.09-.69-1.64-1-1.11-.67-1.66-1-.89-.52-1.34-.75a5.28,5.28,0,0,0-.69-.39c-.95-.54-1.92-1-2.89-1.54-.49-.25-1-.5-1.47-.74s-1.26-.61-1.9-.9a1.2,1.2,0,0,0-.28-.13c-.57-.27-1.14-.54-1.72-.79l-2.46-1c-.94-.38-1.88-.77-2.83-1.12s-2.11-.79-3.18-1.14-2.16-.72-3.25-1.05-2.17-.64-3.28-.94c-2.17-.58-4.38-1.1-6.61-1.55,0,0-.08,0-.12,0-.85-.17-1.7-.33-2.56-.47l-.16,0c-.37-.07-.76-.13-1.14-.18-1.59-.27-3.2-.49-4.82-.67a5.6,5.6,0,0,0-.59-.07c-.47-.07-.94-.1-1.42-.15-1.07-.1-2.14-.19-3.23-.25s-2.26-.14-3.4-.17-2.37-.07-3.56-.07q-4.73,0-9.34.42c-.74.05-1.46.12-2.18.2l-2.26.27c-.75.1-1.5.2-2.24.32s-1.49.23-2.24.37-1.29.21-1.93.35c-1.57.3-3.12.63-4.66,1-.72.17-1.44.35-2.16.55l-2.15.59c-1.18.33-2.34.7-3.49,1.07h0l-2.81,1a.11.11,0,0,0-.07,0c-1,.33-1.87.68-2.81,1l-.15,0c-.85.34-1.71.69-2.54,1-1.06.44-2.1.9-3.12,1.37s-1.72.81-2.56,1.22-1.8.91-2.69,1.38l-.1,0c-.86.45-1.71.92-2.55,1.4s-1.72,1-2.57,1.53h0c-.8.48-1.59,1-2.38,1.47-.3.18-.58.38-.88.58-.84.54-1.64,1.09-2.46,1.66-1,.69-2,1.41-2.95,2.13s-1.69,1.29-2.51,1.94a104.84,104.84,0,0,0-13.15,12.47c-1.43,1.57-2.76,3.18-4.07,4.82-1.1,1.4-2.18,2.82-3.2,4.3-.92,1.28-1.8,2.58-2.66,3.91.86-1.33,1.74-2.63,2.66-3.91q.41-.06.81-.09a12.09,12.09,0,0,0,4.45-.72,27.4,27.4,0,0,0,3.28-2.54c2.91-2.08,7.68-2.46,8.47-5.94.26-1.17,0-2.44.38-3.57.82-2.09,3.62-2.39,5.86-2.36.95,0,2.07.14,2.51,1a2.42,2.42,0,0,1-.1,1.95,18.18,18.18,0,0,1-7.68,9.43c-2.91,1.78-6.71,3.15-7.52,6.46.4,1.13,2.45,1,2.61,2.21.12.94-1.08,1.43-1.52,2.26-.64,1.22.82,2.71,2.21,2.65a6.1,6.1,0,0,0,3.56-2c3.05-2.83,6.25-5.88,7.35-9.89.47-1.66.64-3.6,2-4.7a3.26,3.26,0,0,1,5,1.59c1.32-.74,3.38-1.29,4.06.08a6.81,6.81,0,0,1,.29,1.57c.43,2.14,3.36,3.12,3.66,5.27.35,2.5-2.84,3.79-5.34,4.17-2.26.35-4.51.7-6.77,1.07a6.18,6.18,0,0,0-2.81.91,2.18,2.18,0,0,0-.84,2.62,6.37,6.37,0,0,0,1.17,1.21c1.87,1.87.33,5.74-2.31,5.82-.9,0-1.79-.3-2.69-.33-2.68-.12-4.81,2.24-6.08,4.6s-2.22,5-4.37,6.66c-3.44,2.59-9.39,2-11.06,6-.67,1.6-.32,3.41-.05,5.13s.39,3.62-.62,5-3.56,1.71-4.3.13a3.81,3.81,0,0,1-.1-2.22q.6-3.72,1.17-7.43c.29-1.84.54-3.9-.55-5.41-1.52-2.11-4.94-1.91-6.91-.22s-2.78,4.34-3.33,6.87a29.77,29.77,0,0,1-1.91,6.66h0c-.35,2.07-.64,4.18-.85,6.31s-.37,4.33-.46,6.54a10.1,10.1,0,0,0,.86-.8c1.05-1.09,3.18-5.69,5.09-3.43a1.71,1.71,0,0,1,0,2.09c-.59.75-1.76.92-2.21,1.74-.55,1,.22,2.17,1.12,2.81s2,1.05,2.64,2c1.23,1.76.06,4.42,1.24,6.21,1,1.54,3.2,1.64,5.06,1.84l.63.1c.52-3.68,2.25-6.67,7.27-7.81,6.92-1.57,16,4.17,19.93,9.39,4.35,5.84,6.41,14.11,13.07,17,4.77,2.1,11.55,1.34,13.87,6,2.08,4.19-1.54,8.89-2.09,13.52-.35,3.07.65,6.11.89,9.18s-.69,6.66-3.48,7.94c-1.56.71-3.52.62-4.77,1.8-2.23,2.1-.4,6.46-2.63,8.56a11.08,11.08,0,0,1-2.83,1.49c-5,2.53-4.87,9.89-2.54,15,.08.18.16.35.25.53a105.57,105.57,0,0,0,54.24,15A105.3,105.3,0,0,0,295.69,258h0a104.15,104.15,0,0,0,9.36-5.64,105.28,105.28,0,0,0,13.14-10.44,102.58,102.58,0,0,0,8-8.39c1.77-2,3.45-4.16,5-6.34.82-1.12,1.63-2.24,2.38-3.4a103.67,103.67,0,0,0,13.15-27.06,102.43,102.43,0,0,0,4-17.92c.32-2.38.57-4.79.73-7.21a6.1,6.1,0,0,1-4.25,1.89C344.79,173.41,342.7,171.29,341.68,169Z" style="fill:#ECEFF1"></path><g style="opacity:0.8"><path d="M341.68,169c-1-2.35-1.27-4.94-2-7.4a4.93,4.93,0,0,0-2.23-3.32,21,21,0,0,0-2.66-.6c-3.13-.93-4-5.3-6.94-6.66a10.15,10.15,0,0,0-3-.62c-4-.47-8.07-1.84-10.56-4.95a18.83,18.83,0,0,0-2.45-3c-1-.82-2.59-1.17-3.58-.34.84,1.68,1.66,3.35,2.48,5a13,13,0,0,0,2.78,4.16,4.49,4.49,0,0,0,4.67,1,3.08,3.08,0,0,1,1.57-.56,1.76,1.76,0,0,1,1,.66c2.16,2.39,1.46,6.36-.65,8.8S315,164.83,312,166a6.36,6.36,0,0,1-3.35.65c-2.07-.39-3.18-2.64-3.78-4.67-1.36-4.48-2-9.35-4.79-13.14a16.46,16.46,0,0,1-2.52-3.66c-.57-1.51-.44-3.27-1.34-4.59s-2.93-2.19-3.07-3.86a3.06,3.06,0,0,1,2-2.71c1.07-.52,2.28-.67,3.38-1.13.44-.18.92-.5.94-1,0-.7-1-1-1.22-1.64s.48-1.42.8-2.14c.69-1.64-1-3.3-2.68-4s-3.63-1.16-4.4-2.77a9.53,9.53,0,0,1-.53-2.39,5.26,5.26,0,0,0-3.92-4.32c-2.06-.33-4.33,1.49-4,3.53.2,1.13,1,2,1.49,3s.34,2.58-.74,2.92c-1.75.53-3.44-2.68-4.92-1.58.61,2.06,1.19,4.12,1.8,6.19-2.31,1.18-5.08-1-6.06-3.36s-1-5.14-2.2-7.45-4.33-4-6.34-2.41c-.1,3,3.83,4.19,5.57,6.6,1.26,1.74,1.08,4.57-.78,5.67s-4.77-.82-4.07-2.84c.25-.71.84-1.29.9-2,.07-.93-.71-1.69-1.43-2.29l-3.37-2.83a7,7,0,0,0-2.39-1.5c-2.31-.67-4.62,1.2-5.84,3.26s-1.91,4.5-3.6,6.23c-2.43,2.51-7,2.66-9.3,0s-1.13-7.55,2.24-8.5c1.27-.35,2.88-.32,3.55-1.44,1.17-2-2.18-4.54-1-6.55.89-1.54,3.23-.83,4.94-1.35s2.65-2.23,3.65-3.7,2.54-2.93,4.28-2.54a5.43,5.43,0,0,1,.19-3.05,1.86,1.86,0,0,1,2.56-.94c-.85,1.41.17,3.37,1.66,4.07a9,9,0,0,0,4.87.35c1.64-.2,3.69-.8,3.83-2.44a5.75,5.75,0,0,1,.05-1.61c.72-2,4.33.74,5.72-.84.81-.82-.08-2.27-1.2-2.54s-2.26.14-3.4.17-2.53-.55-2.58-1.69,1.21-1.93,1.34-3c.22-1.88-3-2.36-4.08-.84s-.72,3.62-.39,5.47.52,4-.85,5.36c-.59.89-2.11.42-2.61-.52a7.63,7.63,0,0,1-.49-3.13A2.69,2.69,0,0,0,262.85,94a5.66,5.66,0,0,0-2.22.25c-2.91.35-4.94-3.41-4-6.19s3.55-4.59,6.11-6c1.87-1,4.2-2,6.06-.95.87.48,1.47,1.32,2.32,1.82,1.48.87,3.3.55,5,.59a11.64,11.64,0,0,1,7.28,2.83c.75.68,1.46,1.82.87,2.64s-2.46,1.06-2.14,2.08a3.63,3.63,0,0,0,4.55-2.93,3.05,3.05,0,0,1,1.76,2.47,5.42,5.42,0,0,1,7.95.66,6.86,6.86,0,0,0,1.47,1.89c.67.43,1.84.22,1.92-.57a1.59,1.59,0,0,0-.13-.74c-.4-1.14-.82-2.26-1.22-3.38,1.56-.83,3.4.47,4.45,1.88,3.92,5.23,6.71,2.09,12.23,2.94,3.74.57,5.38,3,7.49,5.86,6.46,8.9,15,16.2,20.86,25.5.62,1,1.19,2,1.73,3-.1-.26-.19-.51-.29-.76a103.45,103.45,0,0,0-8.53-17.35c-.72-1.17-1.46-2.33-2.21-3.47-.47-.7-.95-1.42-1.44-2.1-.62-.91-1.27-1.78-1.92-2.65-.52-.7-1-1.39-1.58-2.06-.37-.47-.75-.93-1.14-1.4s-.83-1.06-1.3-1.58l-1.41-1.62a5.07,5.07,0,0,0-.45-.5c-.48-.57-1-1.12-1.52-1.68a.56.56,0,0,0-.15-.16l-.44-.45c-.42-.47-.87-.92-1.3-1.38-.72-.73-1.46-1.47-2.21-2.17s-1.26-1.21-1.91-1.79-1.14-1-1.72-1.54-1.14-1-1.73-1.48-1.42-1.18-2.16-1.77h0c-2-1.62-4.12-3.16-6.26-4.6l-1.59-1.07c-.54-.37-1.09-.71-1.62-1s-1.09-.69-1.64-1-1.11-.67-1.66-1-.89-.52-1.34-.75a5.28,5.28,0,0,0-.69-.39c-.95-.54-1.92-1-2.89-1.54-.49-.25-1-.5-1.47-.74s-1.26-.61-1.9-.9a1.2,1.2,0,0,0-.28-.13c-.57-.27-1.14-.54-1.72-.79l-2.46-1c-.94-.38-1.88-.77-2.83-1.12s-2.11-.79-3.18-1.14-2.16-.72-3.25-1.05-2.17-.64-3.28-.94c-2.17-.58-4.38-1.1-6.61-1.55,0,0-.08,0-.12,0-.85-.17-1.7-.33-2.56-.47l-.16,0c-.37-.07-.76-.13-1.14-.18-1.59-.27-3.2-.49-4.82-.67a5.6,5.6,0,0,0-.59-.07c-.47-.07-.94-.1-1.42-.15-1.07-.1-2.14-.19-3.23-.25s-2.26-.14-3.4-.17-2.37-.07-3.56-.07q-4.73,0-9.34.42c-.74.05-1.46.12-2.18.2l-2.26.27c-.75.1-1.5.2-2.24.32s-1.49.23-2.24.37-1.29.21-1.93.35c-1.57.3-3.12.63-4.66,1-.72.17-1.44.35-2.16.55l-2.15.59c-1.18.33-2.34.7-3.49,1.07h0l-2.81,1a.11.11,0,0,0-.07,0c-1,.33-1.87.68-2.81,1l-.15,0c-.85.34-1.71.69-2.54,1-1.06.44-2.1.9-3.12,1.37s-1.72.81-2.56,1.22-1.8.91-2.69,1.38l-.1,0c-.86.45-1.71.92-2.55,1.4s-1.72,1-2.57,1.53h0c-.8.48-1.59,1-2.38,1.47-.3.18-.58.38-.88.58-.84.54-1.64,1.09-2.46,1.66-1,.69-2,1.41-2.95,2.13s-1.69,1.29-2.51,1.94a104.84,104.84,0,0,0-13.15,12.47c-1.43,1.57-2.76,3.18-4.07,4.82-1.1,1.4-2.18,2.82-3.2,4.3-.92,1.28-1.8,2.58-2.66,3.91.86-1.33,1.74-2.63,2.66-3.91q.41-.06.81-.09a12.09,12.09,0,0,0,4.45-.72,27.4,27.4,0,0,0,3.28-2.54c2.91-2.08,7.68-2.46,8.47-5.94.26-1.17,0-2.44.38-3.57.82-2.09,3.62-2.39,5.86-2.36.95,0,2.07.14,2.51,1a2.42,2.42,0,0,1-.1,1.95,18.18,18.18,0,0,1-7.68,9.43c-2.91,1.78-6.71,3.15-7.52,6.46.4,1.13,2.45,1,2.61,2.21.12.94-1.08,1.43-1.52,2.26-.64,1.22.82,2.71,2.21,2.65a6.1,6.1,0,0,0,3.56-2c3.05-2.83,6.25-5.88,7.35-9.89.47-1.66.64-3.6,2-4.7a3.26,3.26,0,0,1,5,1.59c1.32-.74,3.38-1.29,4.06.08a6.81,6.81,0,0,1,.29,1.57c.43,2.14,3.36,3.12,3.66,5.27.35,2.5-2.84,3.79-5.34,4.17-2.26.35-4.51.7-6.77,1.07a6.18,6.18,0,0,0-2.81.91,2.18,2.18,0,0,0-.84,2.62,6.37,6.37,0,0,0,1.17,1.21c1.87,1.87.33,5.74-2.31,5.82-.9,0-1.79-.3-2.69-.33-2.68-.12-4.81,2.24-6.08,4.6s-2.22,5-4.37,6.66c-3.44,2.59-9.39,2-11.06,6-.67,1.6-.32,3.41-.05,5.13s.39,3.62-.62,5-3.56,1.71-4.3.13a3.81,3.81,0,0,1-.1-2.22q.6-3.72,1.17-7.43c.29-1.84.54-3.9-.55-5.41-1.52-2.11-4.94-1.91-6.91-.22s-2.78,4.34-3.33,6.87a29.77,29.77,0,0,1-1.91,6.66h0c-.35,2.07-.64,4.18-.85,6.31s-.37,4.33-.46,6.54a10.1,10.1,0,0,0,.86-.8c1.05-1.09,3.18-5.69,5.09-3.43a1.71,1.71,0,0,1,0,2.09c-.59.75-1.76.92-2.21,1.74-.55,1,.22,2.17,1.12,2.81s2,1.05,2.64,2c1.23,1.76.06,4.42,1.24,6.21,1,1.54,3.2,1.64,5.06,1.84l.63.1c.52-3.68,2.25-6.67,7.27-7.81,6.92-1.57,16,4.17,19.93,9.39,4.35,5.84,6.41,14.11,13.07,17,4.77,2.1,11.55,1.34,13.87,6,2.08,4.19-1.54,8.89-2.09,13.52-.35,3.07.65,6.11.89,9.18s-.69,6.66-3.48,7.94c-1.56.71-3.52.62-4.77,1.8-2.23,2.1-.4,6.46-2.63,8.56a11.08,11.08,0,0,1-2.83,1.49c-5,2.53-4.87,9.89-2.54,15,.08.18.16.35.25.53a105.57,105.57,0,0,0,54.24,15A105.3,105.3,0,0,0,295.69,258h0a104.15,104.15,0,0,0,9.36-5.64,105.28,105.28,0,0,0,13.14-10.44,102.58,102.58,0,0,0,8-8.39c1.77-2,3.45-4.16,5-6.34.82-1.12,1.63-2.24,2.38-3.4a103.67,103.67,0,0,0,13.15-27.06,102.43,102.43,0,0,0,4-17.92c.32-2.38.57-4.79.73-7.21a6.1,6.1,0,0,1-4.25,1.89C344.79,173.41,342.7,171.29,341.68,169Z" style="fill:#fff"></path></g><path d="M220.82,86.52c-2.1,1.25-3.21,3.61-4.83,5.44s-4.52,3.14-6.42,1.61a4.43,4.43,0,0,1-1.44-3.11,8,8,0,0,1,1.14-4.84c.91-1.49,2.3-2.66,3.07-4.22s.62-3.85-1-4.58c-.86-.39-1.93-.24-2.69-.8-1.37-1-.39-3.38,1.19-4s3.34-.14,5,0c6.14.39,10.64-3.62,15.25-7,3.58-2.59,11.22-5.65,15.37-3,1.65,1.06,2.3,3.78.74,5-.7.54-1.66.66-2.31,1.25s-.89,1.87-1.34,2.83c-1.16,2.48-4.5,3.38-5.58,5.9-.65,1.51-.35,3.4-1.35,4.71a5.8,5.8,0,0,1-3.44,1.71l-8,1.9A11.76,11.76,0,0,0,220.82,86.52Z" style="fill:#263238"></path><path d="M292.28,216.69c-2.65,4-3.14,9-3.87,13.72s-2,9.78-5.64,12.9-10.33,2.94-12.34-1.42c-1.09-2.37-.53-5.15-1.12-7.69-.77-3.3-3.4-5.85-4.65-9-1.06-2.69-1.07-5.67-1.15-8.56-.48-15.8-4.33-32.29-15.09-43.88a10.45,10.45,0,0,0-4.7-3.31,6,6,0,0,0-6.17,2.13c-.87,1.15-1.31,2.61-2.37,3.57-2.3,2.1-6.31.6-7.85-2.11s-1.32-6-1.07-9.13l1-11.54c.17-2,.39-4.18,1.71-5.7,1.88-2.18,5.25-2.28,7.55-4,3-2.26,3.41-6.56,5.31-9.81s7.85-4.63,8.73-1c6.29-13.46,20.19,6.54,28.45,5,2.4-.44,4.75-1.59,7.16-1.25,4.27.59,6.47,5.29,7.92,9.35l7.23,20.2c.92,2.56,2.11,5.41,4.64,6.4,1.95.75,4.21.18,6.17.89,5.19,1.89,3.5,10-.67,13.66s-10,5.89-12,11c-1.5,3.88-.31,8.43-1.92,12.26C296.34,212.22,293.92,214.21,292.28,216.69Z" style="fill:#263238"></path><path d="M312,221.07c-1.71.24-3.72-.6-5,.53a5.66,5.66,0,0,0-1.22,2.71,5.73,5.73,0,0,1-2.41,3.3,3.63,3.63,0,0,1-3.94-.07,2.67,2.67,0,0,1-.55-3.7c.42-.48,1-.76,1.47-1.2,2.27-2.14.72-6.1,2.44-8.64,1-1.5,2.61-3,3.72-4.54.86-1.17,1.17-2.09,2.75-2.4C316.1,205.7,319.22,220.06,312,221.07Z" style="fill:#263238"></path><path d="M154.14,192.38c-.33-3,.67-6.06.72-9.13,0-2.1-.12-4.33-.15-6.46a28.47,28.47,0,0,1-5.37-.75,1.6,1.6,0,0,1-1-.5,2,2,0,0,1-.22-1.12c-.13-2.38-2.42-3.95-4.48-5.14a18.37,18.37,0,0,0-3.27-1.61c0,.25,0,.49,0,.74A105.25,105.25,0,0,0,147.13,202a100.4,100.4,0,0,0,6.46,13.86c1,1.93,2.17,3.82,3.36,5.67,1.47,2.3,3,4.54,4.67,6.7s3.18,4.1,4.9,6a104.63,104.63,0,0,0,7.49,7.7q3.48,3.25,7.28,6.19c-5.78-15.5-11.22-31.31-21.09-44.5C157.6,200.17,154.63,196.66,154.14,192.38Z" style="fill:#ECEFF1"></path><path d="M140.37,162.67c0,.64,0,1.27,0,1.91s0,1,0,1.55c0-.52,0-1,0-1.55S140.36,163.31,140.37,162.67Z" style="fill:#263238"></path><g style="opacity:0.6000000000000001"><path d="M187.2,252.41c.89.6,1.79,1.18,2.7,1.75.64.4,1.28.79,1.93,1.17-.65-.38-1.29-.77-1.93-1.17C189,253.59,188.09,253,187.2,252.41Z" style="fill:#263238"></path></g><path d="M311.42,186.18c4.17-3.61,5.86-11.77.67-13.66-2-.71-4.22-.14-6.17-.89-2.53-1-3.72-3.84-4.64-6.4L294.05,145c-1.45-4.06-3.65-8.76-7.92-9.35-2.41-.34-4.76.81-7.16,1.25-8.26,1.5-22.16-18.5-28.45-5-.88-3.66-6.83-2.28-8.73,1s-2.3,7.55-5.31,9.81c-2.3,1.72-5.67,1.82-7.55,4-1.32,1.52-1.54,3.68-1.71,5.7l-1,11.54c-.25,3.1-.47,6.42,1.07,9.13s5.55,4.21,7.85,2.11c1.06-1,1.5-2.42,2.37-3.57a6,6,0,0,1,6.17-2.13,10.45,10.45,0,0,1,4.7,3.31c10.76,11.59,14.61,28.08,15.09,43.88.08,2.89.09,5.87,1.15,8.56,1.25,3.15,3.88,5.7,4.65,9,.59,2.54,0,5.32,1.12,7.69,2,4.36,8.7,4.54,12.34,1.42s4.9-8.16,5.64-12.9,1.22-9.73,3.87-13.72c1.64-2.48,4.06-4.47,5.21-7.21,1.61-3.83.42-8.38,1.92-12.26C301.39,192.07,307.25,189.79,311.42,186.18Z" style="fill:#ECEFF1"></path><g style="opacity:0.6000000000000001"><path d="M140.43,160.18v0h0v0c0,.2,0,.38,0,.58,0,.63,0,1.27,0,1.91,0-.64,0-1.28,0-1.91C140.4,160.56,140.42,160.38,140.43,160.18Z" style="fill:#263238"></path></g><g style="opacity:0.6000000000000001"><path d="M140.36,166.13c0,.51,0,1,0,1.54h0C140.37,167.16,140.37,166.64,140.36,166.13Z" style="fill:#263238"></path></g><path d="M154.89,172.69l-.63-.1c-1.86-.2-4-.3-5.06-1.84-1.18-1.79,0-4.45-1.24-6.21-.63-.92-1.74-1.32-2.64-2s-1.67-1.84-1.12-2.81c.45-.82,1.62-1,2.21-1.74a1.71,1.71,0,0,0,0-2.09c-1.91-2.26-4,2.34-5.09,3.43a10.1,10.1,0,0,1-.86.8v0c0,.2,0,.38,0,.58,0,.63,0,1.27,0,1.91s0,1.27,0,1.91,0,1,0,1.55,0,1,0,1.54a18.37,18.37,0,0,1,3.27,1.61c2.06,1.19,4.35,2.76,4.48,5.14a2,2,0,0,0,.22,1.12,1.6,1.6,0,0,0,1,.5,28.47,28.47,0,0,0,5.37.75" style="fill:#ECEFF1"></path><path d="M154.71,176.79c0,2.13.18,4.36.15,6.46-.05,3.07-1.05,6.1-.72,9.13.49,4.28,3.46,7.79,6.06,11.24,9.87,13.19,15.31,29,21.09,44.5h0c1.07.85,2.16,1.66,3.27,2.44.87.63,1.74,1.25,2.63,1.85s1.79,1.18,2.7,1.75c.64.4,1.28.79,1.93,1.17-.09-.18-.17-.35-.25-.53-2.33-5.11-2.46-12.47,2.54-15a11.25,11.25,0,0,0,2.83-1.49c2.23-2.1.4-6.46,2.63-8.56,1.25-1.18,3.21-1.09,4.77-1.8,2.79-1.28,3.7-4.87,3.48-7.94s-1.24-6.11-.89-9.18c.55-4.63,4.17-9.33,2.09-13.52-2.32-4.67-9.1-3.91-13.87-6-6.66-2.92-8.72-11.19-13.07-17-3.9-5.22-13-11-19.93-9.39-5,1.14-6.75,4.13-7.27,7.81" style="fill:#ECEFF1"></path><path d="M147,133.78c2-1.69,5.39-1.89,6.91.22,1.09,1.51.84,3.57.55,5.41q-.57,3.71-1.17,7.43a3.81,3.81,0,0,0,.1,2.22c.74,1.58,3.31,1.28,4.3-.13s.89-3.33.62-5-.62-3.53.05-5.13c1.67-4,7.62-3.39,11.06-6,2.15-1.61,3.1-4.3,4.37-6.66s3.4-4.72,6.08-4.6c.9,0,1.79.37,2.69.33,2.64-.08,4.18-3.95,2.31-5.82a6.37,6.37,0,0,1-1.17-1.21,2.18,2.18,0,0,1,.84-2.62,6.18,6.18,0,0,1,2.81-.91c2.26-.37,4.51-.72,6.77-1.07,2.5-.38,5.69-1.67,5.34-4.17-.3-2.15-3.23-3.13-3.66-5.27a6.81,6.81,0,0,0-.29-1.57c-.68-1.37-2.74-.82-4.06-.08a3.26,3.26,0,0,0-5-1.59c-1.34,1.1-1.51,3-2,4.7-1.1,4-4.3,7.06-7.35,9.89a6.1,6.1,0,0,1-3.56,2c-1.39.06-2.85-1.43-2.21-2.65.44-.83,1.64-1.32,1.52-2.26-.16-1.17-2.21-1.08-2.61-2.21.81-3.31,4.61-4.68,7.52-6.46a18.18,18.18,0,0,0,7.68-9.43,2.42,2.42,0,0,0,.1-1.95c-.44-.83-1.56-1-2.51-1-2.24,0-5,.27-5.86,2.36-.43,1.13-.12,2.4-.38,3.57-.79,3.48-5.56,3.86-8.47,5.94a27.4,27.4,0,0,1-3.28,2.54,12.09,12.09,0,0,1-4.45.72q-.41,0-.81.09c-.92,1.28-1.8,2.58-2.66,3.91s-1.68,2.67-2.47,4a104.93,104.93,0,0,0-9.18,20.45q-1.23,3.75-2.17,7.62c-.62,2.58-1.16,5.2-1.59,7.86a29.77,29.77,0,0,0,1.91-6.66C144.2,138.12,145,135.47,147,133.78Z" style="fill:#ECEFF1"></path><path d="M235.69,81.71c1-1.31.7-3.2,1.35-4.71,1.08-2.52,4.42-3.42,5.58-5.9.45-1,.56-2.12,1.34-2.83s1.61-.71,2.31-1.25c1.56-1.19.91-3.91-.74-5-4.15-2.64-11.79.42-15.37,3-4.61,3.34-9.11,7.35-15.25,7-1.69-.11-3.44-.57-5,0s-2.56,3-1.19,4c.76.56,1.83.41,2.69.8,1.58.73,1.73,3,1,4.58s-2.16,2.73-3.07,4.22a8,8,0,0,0-1.14,4.84,4.43,4.43,0,0,0,1.44,3.11c1.9,1.53,4.81.22,6.42-1.61s2.73-4.19,4.83-5.44a11.76,11.76,0,0,1,3.43-1.2l8-1.9A5.8,5.8,0,0,0,235.69,81.71Z" style="fill:#ECEFF1"></path><g style="opacity:0.6000000000000001"><path d="M345.16,127.64c.5,1.34,1,2.69,1.42,4-.45-1.36-.92-2.71-1.42-4,0,0,0,0,0,0h0Z" style="fill:#263238"></path></g><path d="M351.77,163.12c0-1.52-.06-3-.14-4.53s-.2-3-.35-4.49c-.11-1.2-.25-2.39-.42-3.58s-.34-2.5-.55-3.75a105.82,105.82,0,0,0-2.47-11c-.4-1.38-.82-2.75-1.26-4.1s-.92-2.71-1.42-4h0c-.54-1-1.11-2-1.73-3-5.87-9.3-14.4-16.6-20.86-25.5-2.11-2.9-3.75-5.29-7.49-5.86-5.52-.85-8.31,2.29-12.23-2.94C301.8,89,300,87.65,298.4,88.48c.4,1.12.82,2.24,1.22,3.38a1.59,1.59,0,0,1,.13.74c-.08.79-1.25,1-1.92.57a6.86,6.86,0,0,1-1.47-1.89,5.42,5.42,0,0,0-7.95-.66,3.05,3.05,0,0,0-1.76-2.47,3.63,3.63,0,0,1-4.55,2.93c-.32-1,1.51-1.21,2.14-2.08s-.12-2-.87-2.64a11.64,11.64,0,0,0-7.28-2.83c-1.69,0-3.51.28-5-.59-.85-.5-1.45-1.34-2.32-1.82-1.86-1.06-4.19-.09-6.06.95-2.56,1.42-5.21,3.22-6.11,6s1.11,6.54,4,6.19a5.66,5.66,0,0,1,2.22-.25,2.69,2.69,0,0,1,1.59,2.56,7.63,7.63,0,0,0,.49,3.13c.5.94,2,1.41,2.61.52,1.37-1.31,1.2-3.5.85-5.36s-.72-3.94.39-5.47,4.3-1,4.08.84c-.13,1.1-1.39,1.91-1.34,3S273,95,274.1,95s2.29-.45,3.4-.17,2,1.72,1.2,2.54c-1.39,1.58-5-1.12-5.72.84a5.75,5.75,0,0,0-.05,1.61c-.14,1.64-2.19,2.24-3.83,2.44a9,9,0,0,1-4.87-.35c-1.49-.7-2.51-2.66-1.66-4.07a1.86,1.86,0,0,0-2.56.94,5.43,5.43,0,0,0-.19,3.05c-1.74-.39-3.29,1.08-4.28,2.54s-2,3.18-3.65,3.7-4-.19-4.94,1.35c-1.15,2,2.2,4.56,1,6.55-.67,1.12-2.28,1.09-3.55,1.44-3.37.95-4.54,5.87-2.24,8.5s6.87,2.48,9.3,0c1.69-1.73,2.38-4.16,3.6-6.23s3.53-3.93,5.84-3.26a7,7,0,0,1,2.39,1.5l3.37,2.83c.72.6,1.5,1.36,1.43,2.29-.06.76-.65,1.34-.9,2-.7,2,2.23,3.94,4.07,2.84s2-3.93.78-5.67c-1.74-2.41-5.67-3.62-5.57-6.6,2-1.64,5.17.09,6.34,2.41s1.21,5.06,2.2,7.45,3.75,4.54,6.06,3.36c-.61-2.07-1.19-4.13-1.8-6.19,1.48-1.1,3.17,2.11,4.92,1.58,1.08-.34,1.21-1.88.74-2.92s-1.29-1.9-1.49-3c-.33-2,1.94-3.86,4-3.53a5.26,5.26,0,0,1,3.92,4.32,9.53,9.53,0,0,0,.53,2.39c.77,1.61,2.76,2.1,4.4,2.77s3.37,2.32,2.68,4c-.32.72-1.07,1.41-.8,2.14s1.22.94,1.22,1.64c0,.47-.5.79-.94,1-1.1.46-2.31.61-3.38,1.13a3.06,3.06,0,0,0-2,2.71c.14,1.67,2.13,2.47,3.07,3.86s.77,3.08,1.34,4.59a16.46,16.46,0,0,0,2.52,3.66c2.78,3.79,3.43,8.66,4.79,13.14.6,2,1.71,4.28,3.78,4.67A6.36,6.36,0,0,0,312,166c3-1.19,6.11-2.46,8.2-4.89s2.81-6.41.65-8.8a1.76,1.76,0,0,0-1-.66,3.08,3.08,0,0,0-1.57.56,4.49,4.49,0,0,1-4.67-1,13,13,0,0,1-2.78-4.16c-.82-1.66-1.64-3.33-2.48-5,1-.83,2.56-.48,3.58.34a18.83,18.83,0,0,1,2.45,3c2.49,3.11,6.59,4.48,10.56,4.95a10.15,10.15,0,0,1,3,.62c3,1.36,3.81,5.73,6.94,6.66a21,21,0,0,1,2.66.6,4.93,4.93,0,0,1,2.23,3.32c.69,2.46.92,5,2,7.4s3.11,4.46,5.65,4.5a6.1,6.1,0,0,0,4.25-1.89v0c.14-2.31.22-4.62.22-7C351.8,164.09,351.8,163.61,351.77,163.12Z" style="fill:#ECEFF1"></path><path d="M309.21,207.06c-1.58.31-1.89,1.23-2.75,2.4-1.11,1.52-2.71,3-3.72,4.54-1.72,2.54-.17,6.5-2.44,8.64-.46.44-1.05.72-1.47,1.2a2.67,2.67,0,0,0,.55,3.7,3.63,3.63,0,0,0,3.94.07,5.73,5.73,0,0,0,2.41-3.3A5.66,5.66,0,0,1,307,221.6c1.3-1.13,3.31-.29,5-.53C319.22,220.06,316.1,205.7,309.21,207.06Z" style="fill:#ECEFF1"></path><g style="opacity:0.6000000000000001"><path d="M311.42,186.18c4.17-3.61,5.86-11.77.67-13.66-2-.71-4.22-.14-6.17-.89-2.53-1-3.72-3.84-4.64-6.4L294.05,145c-1.45-4.06-3.65-8.76-7.92-9.35-2.41-.34-4.76.81-7.16,1.25-8.26,1.5-22.16-18.5-28.45-5-.88-3.66-6.83-2.28-8.73,1s-2.3,7.55-5.31,9.81c-2.3,1.72-5.67,1.82-7.55,4-1.32,1.52-1.54,3.68-1.71,5.7l-1,11.54c-.25,3.1-.47,6.42,1.07,9.13s5.55,4.21,7.85,2.11c1.06-1,1.5-2.42,2.37-3.57a6,6,0,0,1,6.17-2.13,10.45,10.45,0,0,1,4.7,3.31c10.76,11.59,14.61,28.08,15.09,43.88.08,2.89.09,5.87,1.15,8.56,1.25,3.15,3.88,5.7,4.65,9,.59,2.54,0,5.32,1.12,7.69,2,4.36,8.7,4.54,12.34,1.42s4.9-8.16,5.64-12.9,1.22-9.73,3.87-13.72c1.64-2.48,4.06-4.47,5.21-7.21,1.61-3.83.42-8.38,1.92-12.26C301.39,192.07,307.25,189.79,311.42,186.18Z" style="fill:#fff"></path></g><g style="opacity:0.6000000000000001"><path d="M181.29,248.12h0c1.07.85,2.16,1.66,3.27,2.44.87.63,1.74,1.25,2.63,1.85s1.79,1.18,2.7,1.75c.64.4,1.28.79,1.93,1.17-.09-.18-.17-.35-.25-.53-2.33-5.11-2.46-12.47,2.54-15a11.25,11.25,0,0,0,2.83-1.49c2.23-2.1.4-6.46,2.63-8.56,1.25-1.18,3.21-1.09,4.77-1.8,2.79-1.28,3.7-4.87,3.48-7.94s-1.24-6.11-.89-9.18c.55-4.63,4.17-9.33,2.09-13.52-2.32-4.67-9.1-3.91-13.87-6-6.66-2.92-8.72-11.19-13.07-17-3.9-5.22-13-11-19.93-9.39-5,1.14-6.75,4.13-7.27,7.81l-.63-.1c-1.86-.2-4-.3-5.06-1.84-1.18-1.79,0-4.45-1.24-6.21-.63-.92-1.74-1.32-2.64-2s-1.67-1.84-1.12-2.81c.45-.82,1.62-1,2.21-1.74a1.71,1.71,0,0,0,0-2.09c-1.91-2.26-4,2.34-5.09,3.43a10.1,10.1,0,0,1-.86.8v0c0,.2,0,.38,0,.58,0,.63,0,1.27,0,1.91s0,1.27,0,1.91,0,1,0,1.55,0,1,0,1.54c0,.25,0,.49,0,.74A105.25,105.25,0,0,0,147.13,202a100.4,100.4,0,0,0,6.46,13.86c1,1.93,2.17,3.82,3.36,5.67,1.47,2.3,3,4.54,4.67,6.7s3.18,4.1,4.9,6a104.63,104.63,0,0,0,7.49,7.7q3.48,3.25,7.28,6.19" style="fill:#fff"></path></g><g style="opacity:0.6000000000000001"><path d="M147,133.78c2-1.69,5.39-1.89,6.91.22,1.09,1.51.84,3.57.55,5.41q-.57,3.71-1.17,7.43a3.81,3.81,0,0,0,.1,2.22c.74,1.58,3.31,1.28,4.3-.13s.89-3.33.62-5-.62-3.53.05-5.13c1.67-4,7.62-3.39,11.06-6,2.15-1.61,3.1-4.3,4.37-6.66s3.4-4.72,6.08-4.6c.9,0,1.79.37,2.69.33,2.64-.08,4.18-3.95,2.31-5.82a6.37,6.37,0,0,1-1.17-1.21,2.18,2.18,0,0,1,.84-2.62,6.18,6.18,0,0,1,2.81-.91c2.26-.37,4.51-.72,6.77-1.07,2.5-.38,5.69-1.67,5.34-4.17-.3-2.15-3.23-3.13-3.66-5.27a6.81,6.81,0,0,0-.29-1.57c-.68-1.37-2.74-.82-4.06-.08a3.26,3.26,0,0,0-5-1.59c-1.34,1.1-1.51,3-2,4.7-1.1,4-4.3,7.06-7.35,9.89a6.1,6.1,0,0,1-3.56,2c-1.39.06-2.85-1.43-2.21-2.65.44-.83,1.64-1.32,1.52-2.26-.16-1.17-2.21-1.08-2.61-2.21.81-3.31,4.61-4.68,7.52-6.46a18.18,18.18,0,0,0,7.68-9.43,2.42,2.42,0,0,0,.1-1.95c-.44-.83-1.56-1-2.51-1-2.24,0-5,.27-5.86,2.36-.43,1.13-.12,2.4-.38,3.57-.79,3.48-5.56,3.86-8.47,5.94a27.4,27.4,0,0,1-3.28,2.54,12.09,12.09,0,0,1-4.45.72q-.41,0-.81.09c-.92,1.28-1.8,2.58-2.66,3.91s-1.68,2.67-2.47,4a104.93,104.93,0,0,0-9.18,20.45q-1.23,3.75-2.17,7.62c-.62,2.58-1.16,5.2-1.59,7.86a29.77,29.77,0,0,0,1.91-6.66C144.2,138.12,145,135.47,147,133.78Z" style="fill:#fff"></path></g><g style="opacity:0.6000000000000001"><path d="M235.69,81.71c1-1.31.7-3.2,1.35-4.71,1.08-2.52,4.42-3.42,5.58-5.9.45-1,.56-2.12,1.34-2.83s1.61-.71,2.31-1.25c1.56-1.19.91-3.91-.74-5-4.15-2.64-11.79.42-15.37,3-4.61,3.34-9.11,7.35-15.25,7-1.69-.11-3.44-.57-5,0s-2.56,3-1.19,4c.76.56,1.83.41,2.69.8,1.58.73,1.73,3,1,4.58s-2.16,2.73-3.07,4.22a8,8,0,0,0-1.14,4.84,4.43,4.43,0,0,0,1.44,3.11c1.9,1.53,4.81.22,6.42-1.61s2.73-4.19,4.83-5.44a11.76,11.76,0,0,1,3.43-1.2l8-1.9A5.8,5.8,0,0,0,235.69,81.71Z" style="fill:#fff"></path></g><g style="opacity:0.6000000000000001"><path d="M351.77,163.12c0-1.52-.06-3-.14-4.53s-.2-3-.35-4.49c-.11-1.2-.25-2.39-.42-3.58s-.34-2.5-.55-3.75a105.82,105.82,0,0,0-2.47-11c-.4-1.38-.82-2.75-1.26-4.1s-.92-2.71-1.42-4h0c-.54-1-1.11-2-1.73-3-5.87-9.3-14.4-16.6-20.86-25.5-2.11-2.9-3.75-5.29-7.49-5.86-5.52-.85-8.31,2.29-12.23-2.94C301.8,89,300,87.65,298.4,88.48c.4,1.12.82,2.24,1.22,3.38a1.59,1.59,0,0,1,.13.74c-.08.79-1.25,1-1.92.57a6.86,6.86,0,0,1-1.47-1.89,5.42,5.42,0,0,0-7.95-.66,3.05,3.05,0,0,0-1.76-2.47,3.63,3.63,0,0,1-4.55,2.93c-.32-1,1.51-1.21,2.14-2.08s-.12-2-.87-2.64a11.64,11.64,0,0,0-7.28-2.83c-1.69,0-3.51.28-5-.59-.85-.5-1.45-1.34-2.32-1.82-1.86-1.06-4.19-.09-6.06.95-2.56,1.42-5.21,3.22-6.11,6s1.11,6.54,4,6.19a5.66,5.66,0,0,1,2.22-.25,2.69,2.69,0,0,1,1.59,2.56,7.63,7.63,0,0,0,.49,3.13c.5.94,2,1.41,2.61.52,1.37-1.31,1.2-3.5.85-5.36s-.72-3.94.39-5.47,4.3-1,4.08.84c-.13,1.1-1.39,1.91-1.34,3S273,95,274.1,95s2.29-.45,3.4-.17,2,1.72,1.2,2.54c-1.39,1.58-5-1.12-5.72.84a5.75,5.75,0,0,0-.05,1.61c-.14,1.64-2.19,2.24-3.83,2.44a9,9,0,0,1-4.87-.35c-1.49-.7-2.51-2.66-1.66-4.07a1.86,1.86,0,0,0-2.56.94,5.43,5.43,0,0,0-.19,3.05c-1.74-.39-3.29,1.08-4.28,2.54s-2,3.18-3.65,3.7-4-.19-4.94,1.35c-1.15,2,2.2,4.56,1,6.55-.67,1.12-2.28,1.09-3.55,1.44-3.37.95-4.54,5.87-2.24,8.5s6.87,2.48,9.3,0c1.69-1.73,2.38-4.16,3.6-6.23s3.53-3.93,5.84-3.26a7,7,0,0,1,2.39,1.5l3.37,2.83c.72.6,1.5,1.36,1.43,2.29-.06.76-.65,1.34-.9,2-.7,2,2.23,3.94,4.07,2.84s2-3.93.78-5.67c-1.74-2.41-5.67-3.62-5.57-6.6,2-1.64,5.17.09,6.34,2.41s1.21,5.06,2.2,7.45,3.75,4.54,6.06,3.36c-.61-2.07-1.19-4.13-1.8-6.19,1.48-1.1,3.17,2.11,4.92,1.58,1.08-.34,1.21-1.88.74-2.92s-1.29-1.9-1.49-3c-.33-2,1.94-3.86,4-3.53a5.26,5.26,0,0,1,3.92,4.32,9.53,9.53,0,0,0,.53,2.39c.77,1.61,2.76,2.1,4.4,2.77s3.37,2.32,2.68,4c-.32.72-1.07,1.41-.8,2.14s1.22.94,1.22,1.64c0,.47-.5.79-.94,1-1.1.46-2.31.61-3.38,1.13a3.06,3.06,0,0,0-2,2.71c.14,1.67,2.13,2.47,3.07,3.86s.77,3.08,1.34,4.59a16.46,16.46,0,0,0,2.52,3.66c2.78,3.79,3.43,8.66,4.79,13.14.6,2,1.71,4.28,3.78,4.67A6.36,6.36,0,0,0,312,166c3-1.19,6.11-2.46,8.2-4.89s2.81-6.41.65-8.8a1.76,1.76,0,0,0-1-.66,3.08,3.08,0,0,0-1.57.56,4.49,4.49,0,0,1-4.67-1,13,13,0,0,1-2.78-4.16c-.82-1.66-1.64-3.33-2.48-5,1-.83,2.56-.48,3.58.34a18.83,18.83,0,0,1,2.45,3c2.49,3.11,6.59,4.48,10.56,4.95a10.15,10.15,0,0,1,3,.62c3,1.36,3.81,5.73,6.94,6.66a21,21,0,0,1,2.66.6,4.93,4.93,0,0,1,2.23,3.32c.69,2.46.92,5,2,7.4s3.11,4.46,5.65,4.5a6.1,6.1,0,0,0,4.25-1.89v0c.14-2.31.22-4.62.22-7C351.8,164.09,351.8,163.61,351.77,163.12Z" style="fill:#fff"></path></g><g style="opacity:0.6000000000000001"><path d="M309.21,207.06c-1.58.31-1.89,1.23-2.75,2.4-1.11,1.52-2.71,3-3.72,4.54-1.72,2.54-.17,6.5-2.44,8.64-.46.44-1.05.72-1.47,1.2a2.67,2.67,0,0,0,.55,3.7,3.63,3.63,0,0,0,3.94.07,5.73,5.73,0,0,0,2.41-3.3A5.66,5.66,0,0,1,307,221.6c1.3-1.13,3.31-.29,5-.53C319.22,220.06,316.1,205.7,309.21,207.06Z" style="fill:#fff"></path></g><path d="M175.49,85.85s.83-.61,2.52-1.62a57.3,57.3,0,0,1,7.68-3.8,63.49,63.49,0,0,1,13.06-3.69,72.1,72.1,0,0,1,8.42-.95c1.5-.12,3-.17,4.63-.19s3.21,0,4.88,0a94.41,94.41,0,0,1,21.53,3.19A80.13,80.13,0,0,1,261,89a67.2,67.2,0,0,1,19.53,19.38A63.2,63.2,0,0,1,290.77,136a55.26,55.26,0,0,1-.22,14.28l-.44-.26a42.66,42.66,0,0,1,12.06-6.75,45,45,0,0,1,13.15-2.5,40.62,40.62,0,0,1,24,6.63,43.33,43.33,0,0,1,14.82,16.87,40.59,40.59,0,0,1,4.21,19,42.95,42.95,0,0,1-9.87,25.94,39.79,39.79,0,0,1-5.39,5.38l-1.57,1.19-.55.4s.17-.16.52-.44l1.54-1.23a42.59,42.59,0,0,0,5.3-5.43,44.12,44.12,0,0,0,6.22-10.28,43.24,43.24,0,0,0,3.43-15.54,40.16,40.16,0,0,0-4.23-18.82A43,43,0,0,0,339,147.81a40.14,40.14,0,0,0-23.67-6.51,44.17,44.17,0,0,0-13,2.48,41.87,41.87,0,0,0-11.91,6.67l-.54.43.1-.69a54.91,54.91,0,0,0,.22-14.12,62.88,62.88,0,0,0-10.14-27.43,66.81,66.81,0,0,0-19.36-19.25,79.66,79.66,0,0,0-22.64-10.13A94.12,94.12,0,0,0,216.66,76c-1.66,0-3.28-.11-4.86,0s-3.11,0-4.61.17a69.76,69.76,0,0,0-8.39.91,64.06,64.06,0,0,0-13,3.58,60.11,60.11,0,0,0-7.71,3.7c-.85.48-1.48.88-1.91,1.14S175.49,85.85,175.49,85.85Z" style="fill:#ECEFF1"></path><path d="M292.72,148a4.84,4.84,0,0,0-1.55-1.8c-1.64-1.49-3.75-1.28-4.6-.19a4.46,4.46,0,0,0-.34,4.42,4.93,4.93,0,0,0,3,2.84A3.38,3.38,0,0,0,293,152,3.88,3.88,0,0,0,292.72,148Z" style="fill:#ECEFF1"></path></g></svg>