<svg version="1.1" xmlns="http://www.w3.org/2000/svg" xmlns:xlink="http://www.w3.org/1999/xlink" width="512" height="512" viewBox="0,0,256,256"><g fill="#ffffff" fill-rule="nonzero" stroke="none" stroke-width="1" stroke-linecap="butt" stroke-linejoin="miter" stroke-miterlimit="10" stroke-dasharray="" stroke-dashoffset="0" font-family="none" font-weight="none" font-size="none" text-anchor="none" style="mix-blend-mode: normal"><g transform="scale(0.5,0.5)"><path d="M476,104h-76v-88c0,-4.41828 -3.58172,-8 -8,-8h-64c-4.41828,0 -8,3.58172 -8,8v88h-14.37c1.47138,-3.42912 2.68801,-6.96202 3.64,-10.57c3.42824,-13.18079 -1.91039,-27.08213 -13.28,-34.58c-23.48,-15.6 -23.98,-41.78 -23.99,-42.85c0.00083,-2.91072 -1.57934,-5.59222 -4.12602,-7.00173c-2.54668,-1.40951 -5.65797,-1.32459 -8.12398,0.22173c-1.79,1.12 -43.75,27.83 -43.75,62.78c-0.06757,10.98618 2.09259,21.87205 6.35,32h-14.35v-8c-0.00116,-1.24203 -0.2886,-2.46708 -0.84,-3.58l-40,-80c-1.35803,-2.70951 -4.1292,-4.42034 -7.16,-4.42034c-3.0308,0 -5.80197,1.71083 -7.16,4.42034l-40,80c-0.5514,1.11292 -0.83884,2.33797 -0.84,3.58v8h-76c-15.45689,0.01708 -27.98292,12.54311 -28,28v280c0.01708,15.45689 12.54311,27.98292 28,28h160.18l-9.6,24h-42.58c-4.41828,0 -8,3.58172 -8,8v24c0,4.41828 3.58172,8 8,8h224c4.41828,0 8,-3.58172 8,-8v-24c0,-4.41828 -3.58172,-8 -8,-8h-42.58l-9.6,-24h160.18c15.45689,-0.01708 27.98292,-12.54311 28,-28v-280c-0.01708,-15.45689 -12.54311,-27.98292 -28,-28zM336,24h48v24h-8c-4.41828,0 -8,3.58172 -8,8c0,4.41828 3.58172,8 8,8h8v32h-24c-4.41828,0 -8,3.58172 -8,8c0,4.41828 3.58172,8 8,8h23.86c0.00054,0.48999 0.04741,0.97883 0.14,1.46v30.54h-8c-4.41828,0 -8,3.58172 -8,8c0,4.41828 3.58172,8 8,8h8v32h-24c-4.41828,0 -8,3.58172 -8,8c0,4.41828 3.58172,8 8,8h24v32h-8c-4.41828,0 -8,3.58172 -8,8c0,4.41828 3.58172,8 8,8h8v32h-24c-4.41828,0 -8,3.58172 -8,8c0,4.41828 3.58172,8 8,8h24v32h-8c-4.41828,0 -8,3.58172 -8,8c0,4.41828 3.58172,8 8,8h8v24h-48zM296,120h24v256h-31.27l15.24,-175.31c0.0668,-0.75565 0.023,-1.517 -0.13,-2.26l-14.42,-72.11c2.30792,-1.92248 4.44584,-4.04032 6.39,-6.33c0.06,0 0.13,0.01 0.19,0.01zM258.06,30.37c4.06528,17.10636 14.45,32.04221 29.07,41.81c5.66913,3.7058 8.35079,10.60899 6.67,17.17c-4.83,18.33 -16.81,30.65 -29.8,30.65c-17.35,0 -32,-21.98 -32,-48c0,-17.05 15.34,-32.75 26.06,-41.63zM287.27,208l-14.6,168h-17.34l-14.6,-168zM241.76,192l11.52,-57.58c3.47811,1.04238 7.08906,1.57459 10.72,1.58c3.63072,-0.00406 7.2405,-0.55007 10.71,-1.62l11.53,57.62zM208,120h24c0.05,0 0.09,-0.01 0.13,-0.01c1.95168,2.32679 4.10321,4.47832 6.43,6.43l-14.4,72.01c-0.153,0.743 -0.1968,1.50435 -0.13,2.26l15.24,175.31h-31.27zM160,33.89l11.06,22.11h-22.12zM140.94,72h38.12l12,24h-62.12zM192,112v264h-8v-264zM151.93,112h16.07v264h-16v-263c-0.00306,-0.33444 -0.02644,-0.66839 -0.07,-1zM128,112h8.07c-0.04356,0.33161 -0.06694,0.66556 -0.07,1v263h-8zM24,132c0.00551,-6.62513 5.37487,-11.99449 12,-12h76v256h-88zM360,480v8h-208v-8zM203.82,464l9.6,-24h85.16l9.6,24zM488,412c-0.00551,6.62513 -5.37487,11.99449 -12,12h-440c-6.62513,-0.00551 -11.99449,-5.37487 -12,-12v-20h464zM488,376h-88v-256h76c6.62513,0.00551 11.99449,5.37487 12,12z"></path></g></g></svg>