<svg version="1.1" xmlns="http://www.w3.org/2000/svg" xmlns:xlink="http://www.w3.org/1999/xlink" width="50px" height="50px" viewBox="0,0,256,256"><g fill="#ffffff" fill-rule="nonzero" stroke="none" stroke-width="1" stroke-linecap="butt" stroke-linejoin="miter" stroke-miterlimit="10" stroke-dasharray="" stroke-dashoffset="0" font-family="none" font-weight="none" font-size="none" text-anchor="none" style="mix-blend-mode: normal"><g transform="scale(10.66667,10.66667)"><path d="M12,1c-3.314,0 -6,2.686 -6,6c0,3.323 3.60656,8.10589 5.22656,10.08789c0.401,0.49 1.14392,0.49 1.54492,0c1.621,-1.982 5.22852,-6.76489 5.22852,-10.08789c0,-3.314 -2.686,-6 -6,-6zM12,4.85742c1.184,0 2.14258,0.95858 2.14258,2.14258c0,1.183 -0.95958,2.14258 -2.14258,2.14258c-1.183,0 -2.14258,-0.95858 -2.14258,-2.14258c0,-1.184 0.95858,-2.14258 2.14258,-2.14258zM6.99414,15.56445c-0.0769,0.00028 -0.15575,0.00992 -0.23437,0.0293c-2.855,0.705 -4.75977,1.96625 -4.75977,3.40625c0,2.209 4.477,4 10,4c5.523,0 10,-1.791 10,-4c0,-1.44 -1.90477,-2.7003 -4.75977,-3.4043c-0.629,-0.155 -1.24023,0.33052 -1.24023,0.97852c0,0.454 0.30219,0.85975 0.74219,0.96875c1.805,0.448 2.90203,1.06908 3.20703,1.45508c-0.515,0.655 -3.25522,2 -7.94922,2c-4.694,0 -7.43422,-1.345 -7.94922,-2c0.304,-0.387 1.40203,-1.00708 3.20703,-1.45508c0.44,-0.108 0.74219,-0.51475 0.74219,-0.96875c0,-0.56788 -0.46753,-1.01171 -1.00586,-1.00977z"></path></g></g></svg>