<svg version="1.1" xmlns="http://www.w3.org/2000/svg" xmlns:xlink="http://www.w3.org/1999/xlink" width="50px" height="50px" viewBox="0,0,256,256"><g fill="#007038" fill-rule="nonzero" stroke="none" stroke-width="1" stroke-linecap="butt" stroke-linejoin="miter" stroke-miterlimit="10" stroke-dasharray="" stroke-dashoffset="0" font-family="none" font-weight="none" font-size="none" text-anchor="none" style="mix-blend-mode: normal"><g transform="scale(4,4)"><path d="M26.00195,-0.00195c-14.336,0 -26,11.664 -26,26c0,14.336 11.664,26 26,26c6.067,0 11.64912,-2.09384 16.07813,-5.58984l2.56445,2.56445l-0.66406,0.66406c-0.391,0.391 -0.391,1.02306 0,1.41406l11.48633,11.48438c0.945,0.945 2.20016,1.46484 3.53516,1.46484c1.335,0 2.5892,-0.52084 3.5332,-1.46484c1.95,-1.95 1.95095,-5.12031 0.00195,-7.07031l-11.48633,-11.48633c-0.375,-0.375 -1.03906,-0.375 -1.41406,0l-0.75,0.75195l-2.55469,-2.55273c3.543,-4.444 5.66992,-10.06769 5.66992,-16.17969c0,-14.336 -11.663,-26 -26,-26zM26.00195,2c13.233,0 24,10.767 24,24c0,13.233 -10.767,24 -24,24c-13.233,0 -24,-10.767 -24,-24c0,-13.233 10.767,-24 24,-24zM26.00195,4c-12.131,0 -22,9.869 -22,22c0,12.131 9.869,22 22,22c12.131,0 22,-9.869 22,-22c0,-12.131 -9.869,-22 -22,-22zM26.00195,6c11.028,0 20,8.972 20,20c0,11.028 -8.971,20 -20,20c-11.028,0 -20,-8.972 -20,-20c0,-11.028 8.972,-20 20,-20zM26.00195,11c-8.271,0 -15,6.729 -15,15c0,4.134 1.67953,7.88361 4.39453,10.59961l0.00195,0.00195c0.001,0.001 0.00291,0.00095 0.00391,0.00195c2.717,2.715 6.46561,4.39648 10.59961,4.39648c8.271,0 15,-6.729 15,-15c0,-8.271 -6.728,-15 -15,-15zM25.00195,13.05078v12.53516l-8.86328,8.86133c-1.951,-2.275 -3.13672,-5.22131 -3.13672,-8.44531c0,-6.832 5.299,-12.43817 12,-12.95117zM27.00195,13.05078c6.37,0.488 11.46022,5.57922 11.94922,11.94922h-11.94922zM26.41602,27h12.53516c-0.514,6.701 -6.11822,12 -12.94922,12c-3.225,0 -6.17327,-1.18767 -8.44727,-3.13867zM45.02539,43.69727l2.44727,2.44727l-1.41406,1.41602l-2.45117,-2.45117c0.49,-0.452 0.96297,-0.92411 1.41797,-1.41211zM50.34375,46.10156l10.77734,10.77734c1.17,1.169 1.17095,3.07219 0.00195,4.24219c-1.133,1.133 -3.10919,1.133 -4.24219,0l-10.7793,-10.77734l3.49023,-3.49023l0.00195,-0.00195zM3.00195,50c-0.552,0 -1,0.448 -1,1c0,0.552 0.448,1 1,1h4c0.552,0 1,-0.448 1,-1c0,-0.552 -0.448,-1 -1,-1zM3.00195,54c-0.552,0 -1,0.448 -1,1c0,0.552 0.448,1 1,1h12c0.552,0 1,-0.448 1,-1c0,-0.552 -0.447,-1 -1,-1zM3.00195,58c-0.552,0 -1,0.448 -1,1c0,0.552 0.448,1 1,1h12c0.552,0 1,-0.448 1,-1c0,-0.552 -0.447,-1 -1,-1z"></path></g></g></svg>