<svg id="visual" viewBox="0 0 1920 1080" width="1920" height="1080" xmlns="http://www.w3.org/2000/svg" xmlns:xlink="http://www.w3.org/1999/xlink" version="1.1"><path d="M0 325L106.7 305.2C213.3 285.3 426.7 245.7 640 270.8C853.3 296 1066.7 386 1280 398.7C1493.3 411.3 1706.7 346.7 1813.3 314.3L1920 282L1920 0L1813.3 0C1706.7 0 1493.3 0 1280 0C1066.7 0 853.3 0 640 0C426.7 0 213.3 0 106.7 0L0 0Z" fill="#ffffff"></path><path d="M0 595L106.7 553.7C213.3 512.3 426.7 429.7 640 420.7C853.3 411.7 1066.7 476.3 1280 497.8C1493.3 519.3 1706.7 497.7 1813.3 486.8L1920 476L1920 280L1813.3 312.3C1706.7 344.7 1493.3 409.3 1280 396.7C1066.7 384 853.3 294 640 268.8C426.7 243.7 213.3 283.3 106.7 303.2L0 323Z" fill="#fff"></path><path d="M0 897L106.7 880.8C213.3 864.7 426.7 832.3 640 816.2C853.3 800 1066.7 800 1280 828.8C1493.3 857.7 1706.7 915.3 1813.3 944.2L1920 973L1920 474L1813.3 484.8C1706.7 495.7 1493.3 517.3 1280 495.8C1066.7 474.3 853.3 409.7 640 418.7C426.7 427.7 213.3 510.3 106.7 551.7L0 593Z" fill="#f1f1f1"></path><path d="M0 1081L106.7 1081C213.3 1081 426.7 1081 640 1081C853.3 1081 1066.7 1081 1280 1081C1493.3 1081 1706.7 1081 1813.3 1081L1920 1081L1920 971L1813.3 942.2C1706.7 913.3 1493.3 855.7 1280 826.8C1066.7 798 853.3 798 640 814.2C426.7 830.3 213.3 862.7 106.7 878.8L0 895Z" fill="#ffffff"></path></svg>