<svg version="1.1" xmlns="http://www.w3.org/2000/svg" xmlns:xlink="http://www.w3.org/1999/xlink" width="50px" height="50px" viewBox="0,0,256,256"><g fill="#ffffff" fill-rule="nonzero" stroke="none" stroke-width="1" stroke-linecap="butt" stroke-linejoin="miter" stroke-miterlimit="10" stroke-dasharray="" stroke-dashoffset="0" font-family="none" font-weight="none" font-size="none" text-anchor="none" style="mix-blend-mode: normal"><g transform="scale(8.53333,8.53333)"><path d="M21,10v-1c0,-3.31 -2.69,-6 -6,-6c-3.31,0 -6,2.69 -6,6v1c0,3.31 2.69,6 6,6c3.31,0 6,-2.69 6,-6zM15,21c-1.49,0 -2.85,-0.55 -3.9,-1.45c-2.94,0.77 -5.71,2.21 -6.73,3.54c-0.91,1.19 -0.04,2.91 1.46,2.91h9.55c-0.25,-0.79 -0.38,-1.63 -0.38,-2.5c0,-0.88 0.13,-1.72 0.38,-2.52c-0.12,0.02 -0.25,0.02 -0.38,0.02zM27.51,18.39c-1.1,-0.87 -2.5,-1.39 -4.01,-1.39c-0.98,0 -1.91,0.22 -2.74,0.6c-1.22,0.57 -2.24,1.51 -2.91,2.67c-0.54,0.95 -0.85,2.05 -0.85,3.23c0,0.88 0.18,1.73 0.5,2.5c0.75,1.81 2.3,3.2 4.2,3.75c0.57,0.16 1.17,0.25 1.8,0.25c0.63,0 1.23,-0.09 1.8,-0.25c0.6,-0.17 1.17,-0.43 1.68,-0.76v-0.01c0.18,-0.1 0.34,-0.22 0.5,-0.34c1.54,-1.19 2.52,-3.05 2.52,-5.14c0,-2.08 -0.98,-3.92 -2.49,-5.11zM26.47,26.41c-0.07,0.07 -0.15,0.14 -0.23,0.19c-0.08,0.06 -0.16,0.12 -0.25,0.16c-0.09,0.05 -0.19,0.08 -0.3,0.11c-0.17,0.04 -0.36,0.05 -0.57,0.02c-0.04,0 -0.08,-0.01 -0.12,-0.02c-0.04,0 -0.08,-0.01 -0.12,-0.03c-0.1,-0.02 -0.2,-0.05 -0.31,-0.09c-0.36,-0.14 -0.78,-0.38 -1.26,-0.75c-0.19,-0.14 -0.39,-0.31 -0.6,-0.5c-0.11,-0.09 -0.21,-0.19 -0.32,-0.29c-0.11,-0.1 -0.22,-0.21 -0.34,-0.33c-2.58,-2.58 -2.21,-3.74 -1.53,-4.43c0.13,-0.13 0.26,-0.21 0.37,-0.27h0.01c0.08,-0.04 0.15,-0.06 0.21,-0.08c0.04,0 0.08,-0.01 0.12,0c0.12,0 0.24,0.07 0.3,0.18l0.12,0.21l0.77,1.31c0.07,0.12 0.07,0.27 0,0.39l-0.36,0.6c-0.08,0.14 -0.07,0.31 0.03,0.43c0.16,0.22 0.44,0.56 0.74,0.87c0.3,0.3 0.65,0.58 0.87,0.75c0.13,0.1 0.3,0.11 0.43,0.02l0.61,-0.35c0.12,-0.08 0.26,-0.08 0.38,0c0.18,0.1 0.45,0.26 0.72,0.42c0.02,0 0.03,0.01 0.04,0.02c0.14,0.08 0.28,0.16 0.4,0.23c0.14,0.08 0.27,0.15 0.36,0.21c0.15,0.09 0.22,0.26 0.18,0.43c-0.04,0.16 -0.13,0.37 -0.35,0.59z"></path></g></g></svg>