<svg version="1.1" xmlns="http://www.w3.org/2000/svg" xmlns:xlink="http://www.w3.org/1999/xlink" width="24px" height="24px" viewBox="0,0,256,256"><g fill="#FFFFFF" fill-rule="nonzero" stroke="none" stroke-width="1" stroke-linecap="butt" stroke-linejoin="miter" stroke-miterlimit="10" stroke-dasharray="" stroke-dashoffset="0" font-family="none" font-weight="none" font-size="none" text-anchor="none" style="mix-blend-mode: normal"><g transform="scale(5.12,5.12)"><path d="M24,2v9c-0.0051,0.36064 0.18438,0.69608 0.49587,0.87789c0.3115,0.18181 0.69676,0.18181 1.00825,0c0.3115,-0.18181 0.50097,-0.51725 0.49587,-0.87789v-6.90039c11.13476,0.5317 20,9.63333 20,20.90039c0,11.61063 -9.38937,21 -21,21c-11.61063,0 -21,-9.38937 -21,-21c0,-5.53916 2.13914,-10.56584 5.63672,-14.31836c0.2536,-0.2596 0.34666,-0.63621 0.24317,-0.98405c-0.10349,-0.34784 -0.3873,-0.61232 -0.74156,-0.69107c-0.35426,-0.07875 -0.72339,0.0406 -0.96449,0.31184c-3.82842,4.10748 -6.17383,9.62681 -6.17383,15.68164c0,12.69137 10.30863,23 23,23c12.69137,0 23,-10.30863 23,-23c0,-12.69041 -10.30858,-23 -23,-23zM14,14c0,0 7.70691,11.94909 8.87891,13.12109c1.172,1.172 3.07119,1.171 4.24219,0c1.172,-1.171 1.172,-3.07019 0,-4.24219c-1.172,-1.172 -13.12109,-8.87891 -13.12109,-8.87891z"></path></g></g></svg>